<svg xmlns="http://www.w3.org/2000/svg" xmlns:xlink="http://www.w3.org/1999/xlink" viewBox="0 0 34.77 19.12"><defs><style>.cls-1{fill:#313640;}.cls-2{fill:#9393aa;}.cls-10,.cls-3{fill:#202121;}.cls-3{opacity:0.8;}.cls-4{stroke:#29292b;stroke-miterlimit:10;stroke-width:1.14px;fill:url(#linear-gradient);}.cls-5{fill:#f4e453;}.cls-6{fill:#fdc60b;}.cls-7{fill:#f393a0;}.cls-8{fill:#d3d4e3;}.cls-9{fill:#c7f6dd;}.cls-10,.cls-12{opacity:0.5;}.cls-11,.cls-14{fill:#fff;}.cls-13{fill:#bad539;}.cls-14{opacity:0.1;}</style><linearGradient id="linear-gradient" x1="1.25" y1="7.58" x2="23.04" y2="7.58" gradientUnits="userSpaceOnUse"><stop offset="0" stop-color="#3c588f"/><stop offset="1" stop-color="#5eb8e2"/></linearGradient></defs><title>desktop icon</title><g id="Layer_2" data-name="Layer 2"><g id="Layer_1-2" data-name="Layer 1"><rect class="cls-1" x="26.32" y="2.24" width="8.45" height="16.36" rx="0.61" ry="0.61"/><circle class="cls-2" cx="30.54" cy="15.25" r="0.59"/><circle class="cls-1" cx="30.54" cy="15.25" r="0.41"/><path class="cls-3" d="M28.29,9.54h1.24a.09.09,0,0,1,0,.18H28.29a.09.09,0,0,1,0-.18Z"/><rect class="cls-3" x="30.77" y="9.49" width="0.71" height="0.26"/><rect class="cls-3" x="31.87" y="9.49" width="0.71" height="0.26"/><rect class="cls-3" x="32.96" y="9.49" width="0.71" height="0.26"/><circle class="cls-3" cx="27.57" cy="9.63" r="0.16"/><rect class="cls-3" x="27.39" y="5.33" width="6.28" height="1.43"/><rect class="cls-3" x="27.39" y="3.25" width="6.28" height="1.43"/><rect class="cls-3" x="27.39" y="7.28" width="6.28" height="1.43"/><path class="cls-1" d="M.6,0H23.69a.6.6,0,0,1,.6.6V14.67a.6.6,0,0,1-.6.6H.61A.61.61,0,0,1,0,14.67V.6A.6.6,0,0,1,.6,0Z"/><rect class="cls-4" x="1.25" y="1.2" width="21.79" height="12.75"/><circle class="cls-3" cx="12.15" cy="0.62" r="0.21"/><path class="cls-1" d="M12.82,15.27s0,0,0,.06V17a.68.68,0,0,1-1.35,0V15.33s0,0,0-.06h-1v3.2h3.28v-3.2Z"/><rect class="cls-1" x="7.18" y="18.33" width="9.93" height="0.79"/><rect class="cls-5" x="3.51" y="2.28" width="0.75" height="0.75" rx="0.15" ry="0.15"/><rect class="cls-6" x="2.23" y="2.28" width="0.75" height="0.75" rx="0.15" ry="0.15"/><rect class="cls-7" x="3.51" y="3.55" width="0.75" height="0.75" rx="0.15" ry="0.15"/><rect class="cls-8" x="2.23" y="3.55" width="0.75" height="0.75" rx="0.15" ry="0.15"/><rect class="cls-9" x="2.23" y="4.9" width="0.75" height="0.75" rx="0.15" ry="0.15"/><rect class="cls-10" x="1.26" y="13.23" width="21.76" height="0.72"/><circle class="cls-11" cx="22.61" cy="13.59" r="0.17"/><circle class="cls-11" cx="22.07" cy="13.59" r="0.17"/><rect class="cls-11" x="1.74" y="13.52" width="1.02" height="0.15"/><g class="cls-12"><rect class="cls-5" x="4.01" y="13.39" width="0.41" height="0.41" rx="0.08" ry="0.08"/><rect class="cls-6" x="3.3" y="13.39" width="0.41" height="0.41" rx="0.08" ry="0.08"/><rect class="cls-7" x="6.14" y="13.39" width="0.41" height="0.41" rx="0.08" ry="0.08"/><rect class="cls-8" x="5.43" y="13.39" width="0.41" height="0.41" rx="0.08" ry="0.08"/><rect class="cls-13" x="4.72" y="13.39" width="0.41" height="0.41" rx="0.08" ry="0.08"/></g><path class="cls-14" d="M16.92,0H.6A.6.6,0,0,0,0,.6V14.67a.6.6,0,0,0,.6.6H11C12,12.94,15.71,3.16,16.92,0Z"/></g></g></svg>