<svg xmlns="http://www.w3.org/2000/svg" viewBox="0 0 31.86 19.09"><defs><style>.cls-1{fill:#3d3b3f;}.cls-2{fill:#58575e;}.cls-3{fill:#6d6e71;}.cls-4{fill:#444547;}.cls-5{fill:#333349;}.cls-10,.cls-5,.cls-9{opacity:0.6;}.cls-10,.cls-6{fill:#e6e7e8;}.cls-7{opacity:0.4;}.cls-8{fill:#4c4556;}.cls-11{fill:#28abe3;}.cls-12{fill:#fff;}.cls-13{fill:#e80a8d;}.cls-14{fill:#f9ed1f;}.cls-15{fill:#414042;}</style></defs><title>ink &amp;amp; toner icon</title><g id="Layer_2" data-name="Layer 2"><g id="Layer_1-2" data-name="Layer 1"><path class="cls-1" d="M19.65,14.08V7.8a1.94,1.94,0,0,0-1.93-1.93H5.81A1.94,1.94,0,0,0,3.88,7.8V19.09H16.3C19.86,19.09,19.65,14.08,19.65,14.08Z"/><path class="cls-2" d="M0,19.09V10.36A1.53,1.53,0,0,1,1.37,8.73H12.23a1.53,1.53,0,0,1,1.37,1.63v8.73Z"/><path class="cls-3" d="M17.9,5.87a4.21,4.21,0,0,0-4.27,4.5H0C0,8,2.64,5.87,5.41,5.87Z"/><polygon class="cls-4" points="12.62 7.83 3 7.83 4.1 6.96 13.71 6.96 12.62 7.83"/><path class="cls-5" d="M10.35,5.87l-2.69.46L12.79,7.4l5.9-1.53Z"/><path class="cls-6" d="M4.15,7.4S4,2.17,6.83.9h8.63C12.62,2.17,12.79,7.4,12.79,7.4Z"/><g class="cls-7"><rect class="cls-8" x="6.09" y="2.65" width="3.13" height="0.44"/></g><g class="cls-7"><rect class="cls-8" x="10.96" y="2.65" width="1.45" height="0.44"/></g><g class="cls-7"><rect class="cls-8" x="5.66" y="3.71" width="3.13" height="0.44"/></g><g class="cls-9"><rect class="cls-6" x="8.55" y="12.73" width="3.13" height="0.44"/></g><g class="cls-9"><rect class="cls-6" x="8.55" y="13.96" width="1.81" height="0.44"/></g><g class="cls-7"><rect class="cls-8" x="10.52" y="3.71" width="1.45" height="0.44"/></g><rect class="cls-10" x="1.53" y="12.74" width="2.35" height="2.31"/><rect class="cls-10" x="4.92" y="12.74" width="2.35" height="2.31"/><path class="cls-11" d="M24.5,3.3,26.13,0l1.64,3.3a1.83,1.83,0,0,1-1.64,2.64h0A1.83,1.83,0,0,1,24.5,3.3Z"/><path class="cls-12" d="M27.67,3.38a1.92,1.92,0,0,1-2.28,2.19,1.68,1.68,0,0,0,2.28-2.19Z"/><path class="cls-13" d="M20.84,10.26,22.48,7l1.64,3.3a1.83,1.83,0,0,1-1.64,2.64h0A1.83,1.83,0,0,1,20.84,10.26Z"/><path class="cls-12" d="M24,10.34a1.92,1.92,0,0,1-2.28,2.19A1.68,1.68,0,0,0,24,10.34Z"/><path class="cls-14" d="M28.39,10.26,30,7l1.64,3.3A1.83,1.83,0,0,1,30,12.91h0A1.83,1.83,0,0,1,28.39,10.26Z"/><path class="cls-12" d="M31.56,10.34a1.92,1.92,0,0,1-2.28,2.19,1.68,1.68,0,0,0,2.28-2.19Z"/><path class="cls-15" d="M24.39,16,26,12.74,27.67,16A1.83,1.83,0,0,1,26,18.68h0A1.83,1.83,0,0,1,24.39,16Z"/><path class="cls-12" d="M27.57,16.12a1.92,1.92,0,0,1-2.28,2.19,1.68,1.68,0,0,0,2.28-2.19Z"/></g></g></svg>