<svg xmlns="http://www.w3.org/2000/svg" viewBox="0 0 27.27 18.88"><defs><style>.cls-1{fill:#97cec8;}.cls-2{fill:#606161;}.cls-3{fill:#cdd7d6;}.cls-4{fill:#4f4f4f;}.cls-5{fill:#c0e5e2;}</style></defs><title>laptop icon</title><g id="Layer_2" data-name="Layer 2"><g id="Layer_1-2" data-name="Layer 1"><path class="cls-1" d="M24.26,1.6V15.2a.47.47,0,0,1-.47.47H3.48A.47.47,0,0,1,3,15.2V1.6a.47.47,0,0,1,.47-.47H23.79a.47.47,0,0,1,.47.47Z"/><path class="cls-2" d="M24.25,15.2a.47.47,0,0,1-.47.47H3.48A.47.47,0,0,1,3,15.2V1.6a.47.47,0,0,1,.47-.47H23.79a.47.47,0,0,1,.47.47V15.2ZM23.79,0H3.48a1.6,1.6,0,0,0-1.6,1.6V15.2a1.6,1.6,0,0,0,1.6,1.6H23.79a1.6,1.6,0,0,0,1.6-1.6V1.6A1.6,1.6,0,0,0,23.79,0Z"/><path class="cls-3" d="M27.27,17.41H0a.32.32,0,0,1,.32-.3H26.95a.32.32,0,0,1,.32.3Z"/><polygon class="cls-4" points="6.54 17.11 4.29 17.11 4.29 16.8 6.54 16.8 6.54 17.11 6.54 17.11"/><polygon class="cls-4" points="22.98 17.11 20.72 17.11 20.72 16.8 22.98 16.8 22.98 17.11 22.98 17.11"/><path class="cls-2" d="M27.27,17.43v.17A1.28,1.28,0,0,1,26,18.88H1.28A1.28,1.28,0,0,1,0,17.6v-.17a.06.06,0,0,1,0,0H27.27a.06.06,0,0,1,0,0Z"/><path class="cls-4" d="M14.46,16.34H12.82a.2.2,0,0,1-.2-.2h0a.2.2,0,0,1,.2-.2h1.64a.2.2,0,0,1,.2.2h0a.2.2,0,0,1-.2.2Z"/><path class="cls-5" d="M16.79,1.13h2.15L11,15.67H3.48A.47.47,0,0,1,3,15.2V12.55L16.79,1.13Z"/></g></g></svg>