<svg xmlns="http://www.w3.org/2000/svg" viewBox="0 0 26.56 21.83"><defs><style>.cls-1{fill:#97cec8;}.cls-2{fill:#606161;}.cls-3{fill:#c0e5e2;}.cls-4{fill:#f04b48;}.cls-5{fill:#3e803d;}.cls-6{fill:#4f4f4f;}</style></defs><title>monitor icon</title><g id="Layer_2" data-name="Layer 2"><g id="Layer_1-2" data-name="Layer 1"><path class="cls-1" d="M25.29,1.8V17.18a.53.53,0,0,1-.53.53H1.8a.53.53,0,0,1-.53-.53V1.8a.53.53,0,0,1,.53-.53h23a.53.53,0,0,1,.53.53Z"/><path class="cls-2" d="M25.28,17.18a.53.53,0,0,1-.53.53H1.8a.53.53,0,0,1-.53-.53V1.8a.53.53,0,0,1,.53-.53h23a.53.53,0,0,1,.53.53V17.18ZM24.76,0H1.8A1.81,1.81,0,0,0,0,1.8V17.18A1.81,1.81,0,0,0,1.8,19h23a1.81,1.81,0,0,0,1.8-1.8V1.8A1.81,1.81,0,0,0,24.76,0Z"/><path class="cls-3" d="M16.85,1.28h2.43L10.35,17.71H1.8a.53.53,0,0,1-.53-.53v-3L16.85,1.28Z"/><path class="cls-4" d="M22.32,18.39a.38.38,0,1,1-.38-.38.38.38,0,0,1,.38.38Z"/><polygon class="cls-2" points="15.68 21 10.95 21 11.46 20 11.97 18.99 14.66 18.99 15.17 20 15.68 21 15.68 21"/><path class="cls-5" d="M16.83,21.83H10v-.32a.51.51,0,0,1,.51-.51h5.81a.51.51,0,0,1,.51.51v.32Z"/><polygon class="cls-6" points="15.17 20 11.46 20 11.97 18.99 14.66 18.99 15.17 20 15.17 20"/></g></g></svg>