<svg xmlns="http://www.w3.org/2000/svg" viewBox="0 0 26.19 17.77"><defs><style>.cls-1{fill:#636464;}.cls-2{fill:#5b595a;}.cls-3{fill:#fff;}.cls-4{fill:#4a494a;}.cls-5{fill:#5d9cb4;}.cls-6{fill:#448599;}.cls-7{fill:#666766;}.cls-8{fill:#f15523;}.cls-9{fill:#757576;}</style></defs><title>printer icon</title><g id="Layer_2" data-name="Layer 2"><g id="Layer_1-2" data-name="Layer 1"><path class="cls-1" d="M13.08,6.83v4.92L4,12.15l-.4,3.77H2a2,2,0,0,1-2-2V8A2,2,0,0,1,.37,6.83Z"/><path class="cls-2" d="M26.19,8v6a2,2,0,0,1-2,2H4.65v-3.1h8.43v-6H25.82A2,2,0,0,1,26.19,8Z"/><polygon class="cls-3" points="4.65 16.7 21.54 16.7 21.54 12.82 4.65 12.82 4.65 16.7 4.65 16.7"/><path class="cls-4" d="M13.08,11.75v1.07h8.31a.15.15,0,0,1,.15.15v3.57a.15.15,0,0,1-.15.15H13.08v1.07H22a.59.59,0,0,0,.58-.59V12.34a.58.58,0,0,0-.58-.59Z"/><path class="cls-2" d="M4.8,12.82h8.27V11.75H4.17a.59.59,0,0,0-.58.59v4.84a.59.59,0,0,0,.58.59h8.91V16.7H4.8a.15.15,0,0,1-.15-.15V13a.15.15,0,0,1,.15-.15Z"/><path class="cls-5" d="M13.08,1.07V6H6.88V1.45a.38.38,0,0,1,.38-.38Z"/><path class="cls-6" d="M18.93,1.07H13.08V6h6.23V1.45a.38.38,0,0,0-.38-.38Z"/><path class="cls-7" d="M13.08,0V1.07H7.26a.38.38,0,0,0-.38.38V6H5.82V1.1A1.1,1.1,0,0,1,6.91,0Z"/><path class="cls-2" d="M20.37,1.1V6H19.31V1.44a.38.38,0,0,0-.37-.38H13.08V0h6.2a1.08,1.08,0,0,1,.52.13h0a1.1,1.1,0,0,1,.43.43h0a1.1,1.1,0,0,1,.13.52Z"/><path class="cls-3" d="M21.86,7.42a.32.32,0,1,1-.32-.32.32.32,0,0,1,.32.32Z"/><path class="cls-8" d="M23.25,7.42a.32.32,0,1,1-.32-.32.32.32,0,0,1,.32.32Z"/><path class="cls-9" d="M13.08,6v.83H.37A2,2,0,0,1,2,6Z"/><path class="cls-4" d="M25.82,6.83H13.08V6H24.21a2,2,0,0,1,1.6.83Z"/><polygon class="cls-2" points="19.78 13.9 6.37 13.9 6.37 13.61 19.78 13.61 19.78 13.9 19.78 13.9"/><polygon class="cls-2" points="19.78 14.69 6.37 14.69 6.37 14.4 19.78 14.4 19.78 14.69 19.78 14.69"/><polygon class="cls-2" points="19.78 15.47 6.37 15.47 6.37 15.19 19.78 15.19 19.78 15.47 19.78 15.47"/></g></g></svg>