<svg xmlns="http://www.w3.org/2000/svg" viewBox="0 0 27.27 23.89"><defs><style>.cls-1{fill:#57575d;}.cls-2{fill:#8b8b8c;}.cls-3{fill:#f8f081;}.cls-4{fill:#fbf9da;}.cls-5{fill:#bde6f6;}.cls-6{fill:#fff;}</style></defs><title>scanner icon</title><g id="Layer_2" data-name="Layer 2"><g id="Layer_1-2" data-name="Layer 1"><path class="cls-1" d="M0,21.74a2.15,2.15,0,0,0,2.15,2.15H25.09a2.15,2.15,0,0,0,2.15-2.15Z"/><polygon class="cls-2" points="6.79 0 0 21.74 27.24 21.74 20.23 0 6.79 0 6.79 0"/><polygon class="cls-3" points="3.29 17.56 7.17 1.38 19.19 1.38 24.26 17.55 3.29 17.56 3.29 17.56"/><path class="cls-4" d="M5,15.54l3.11-13A1.38,1.38,0,0,1,9.46,1.16h6.88a1.38,1.38,0,0,1,1.38,1.38l4.07,13Z"/><path class="cls-1" d="M27.19,12.28a2.15,2.15,0,0,0-2.08-1.6H2.18A2.15,2.15,0,0,0,0,12.83H27.27a2.15,2.15,0,0,0-.07-.55Z"/><path class="cls-5" d="M15.61,19.55c0,.33-.38.6-.85.6s-.85-.27-.85-.6.38-.6.85-.6.85.27.85.6Z"/><path class="cls-6" d="M13.22,19.55c0,.33-.38.6-.85.6s-.85-.27-.85-.6.38-.6.85-.6.85.27.85.6Z"/><path class="cls-2" d="M6.66,0,.53,11.46a2.15,2.15,0,0,1,1.65-.78H25.12a2.14,2.14,0,0,1,1.53.64L20.2,0Z"/></g></g></svg>