<svg xmlns="http://www.w3.org/2000/svg" viewBox="0 0 17.98 35.47"><defs><style>.cls-1{isolation:isolate;}.cls-2{fill:#525159;}.cls-3{fill:#7d7b87;}.cls-4{opacity:0.3;}.cls-5{fill:#28272b;}.cls-6{fill:#404040;}.cls-7{fill:#d7df23;}.cls-8{opacity:0.5;}.cls-9{fill:#36353d;}.cls-10,.cls-12{fill:#fff;}.cls-11{fill:#e04457;}.cls-12{mix-blend-mode:overlay;}</style></defs><title>server icon</title><g class="cls-1"><g id="Layer_2" data-name="Layer 2"><g id="Layer_1-2" data-name="Layer 1"><path class="cls-2" d="M14,0H3.95A4,4,0,0,0,0,3.95V31.52a4,4,0,0,0,3.95,3.95H14A4,4,0,0,0,18,31.52V3.95A4,4,0,0,0,14,0Z"/><rect class="cls-3" x="1.58" y="5.87" width="14.83" height="19.94" rx="1.05" ry="1.05"/><g class="cls-4"><rect class="cls-5" x="2.37" y="6.86" width="13.25" height="3.55" rx="0.79" ry="0.79"/></g><g class="cls-4"><rect class="cls-5" x="2.37" y="11.57" width="13.25" height="3.55" rx="0.79" ry="0.79"/></g><g class="cls-4"><rect class="cls-5" x="2.37" y="16.29" width="13.25" height="3.55" rx="0.79" ry="0.79"/></g><g class="cls-4"><rect class="cls-5" x="2.37" y="21" width="13.25" height="3.55" rx="0.79" ry="0.79"/></g><path class="cls-6" d="M9.43,29.23a.79.79,0,1,1-.79.79.79.79,0,0,1,.79-.79Zm0-.79A1.58,1.58,0,1,0,11,30a1.58,1.58,0,0,0-1.58-1.58Z"/><circle class="cls-7" cx="4.61" cy="3.43" r="0.74"/><g class="cls-8"><path class="cls-9" d="M4.61,2.69a.74.74,0,1,1-.74.74.74.74,0,0,1,.74-.74Zm0-.53A1.27,1.27,0,1,0,5.88,3.43,1.27,1.27,0,0,0,4.61,2.16Z"/></g><circle class="cls-10" cx="4.45" cy="3.17" r="0.26"/><circle class="cls-7" cx="4.61" cy="8.63" r="0.48"/><g class="cls-8"><path class="cls-9" d="M4.61,8.15a.48.48,0,1,1-.48.48.48.48,0,0,1,.48-.48Zm0-.53a1,1,0,1,0,1,1,1,1,0,0,0-1-1Z"/></g><circle class="cls-10" cx="4.45" cy="8.37" r="0.26"/><circle class="cls-11" cx="4.61" cy="13.4" r="0.48"/><g class="cls-8"><path class="cls-9" d="M4.61,12.92a.48.48,0,1,1-.48.48.48.48,0,0,1,.48-.48Zm0-.53a1,1,0,1,0,1,1,1,1,0,0,0-1-1Z"/></g><circle class="cls-12" cx="4.45" cy="13.14" r="0.26"/><circle class="cls-7" cx="4.61" cy="18.15" r="0.48"/><g class="cls-8"><path class="cls-9" d="M4.61,17.67a.48.48,0,1,1-.48.48.48.48,0,0,1,.48-.48Zm0-.53a1,1,0,1,0,1,1,1,1,0,0,0-1-1Z"/></g><circle class="cls-10" cx="4.45" cy="17.89" r="0.26"/><circle class="cls-7" cx="4.61" cy="22.78" r="0.48"/><g class="cls-8"><path class="cls-9" d="M4.61,22.3a.48.48,0,1,1-.48.48.48.48,0,0,1,.48-.48Zm0-.53a1,1,0,1,0,1,1,1,1,0,0,0-1-1Z"/></g><circle class="cls-10" cx="4.45" cy="22.51" r="0.26"/></g></g></g></svg>