<svg xmlns="http://www.w3.org/2000/svg" viewBox="0 0 150 58.34"><defs><style>.cls-1{font-size:30.44px;font-family:Amaranth, Amaranth;}.cls-1,.cls-2{fill:#fff;}</style></defs><title>iqonmind white logo</title><g id="Layer_2" data-name="Layer 2"><g id="Layer_1-2" data-name="Layer 1"><text class="cls-1" transform="translate(0 41.09)">i</text><text class="cls-1" transform="translate(52.12 41.07)">onmind</text><path class="cls-2" d="M51.11,47.87a2.69,2.69,0,0,0-1.22.3,7.84,7.84,0,0,0-1.34.88l-1.1.88a8.52,8.52,0,0,1-2.13,1.31,6.78,6.78,0,0,1-2.62.46,9.6,9.6,0,0,1-3.17-.49,22.33,22.33,0,0,1-3.29-1.52,25.2,25.2,0,0,0-2.71-1.34A10.28,10.28,0,0,0,31,47.68l3.71-1.4a19.41,19.41,0,0,0,8.43-4.11,21,21,0,0,0,5.72-7.58,23.34,23.34,0,0,0,2-9.74,24,24,0,0,0-1-7.11l-7.12,4.11a18.34,18.34,0,0,1,.24,3,16.43,16.43,0,0,1-1.64,7.4,13.26,13.26,0,0,1-4.57,5.27,11.58,11.58,0,0,1-6.57,1.95,11.67,11.67,0,0,1-6.6-1.92,12.85,12.85,0,0,1-4.5-5.27,16.87,16.87,0,0,1-1.61-7.43,16.88,16.88,0,0,1,1.61-7.43,12.85,12.85,0,0,1,4.5-5.27,11.67,11.67,0,0,1,6.6-1.92,11.59,11.59,0,0,1,6.57,1.95c.33.22.65.46,1,.71l6.91-4a20.43,20.43,0,0,0-3.82-3.06A19.77,19.77,0,0,0,30.17,2.94,19.76,19.76,0,0,0,19.55,5.86a20.29,20.29,0,0,0-7.37,7.94,23.32,23.32,0,0,0-2.65,11,23.64,23.64,0,0,0,2,9.74,20.85,20.85,0,0,0,5.66,7.58,19.18,19.18,0,0,0,8.4,4.11l-6,2.25a3.08,3.08,0,0,0-2.13,3.17,3.59,3.59,0,0,0,1.07,2.53A3.36,3.36,0,0,0,21,55.35a5.74,5.74,0,0,0,1.7-.21,8.82,8.82,0,0,0,1.46-.64q.79-.37,1.28-.55a3.49,3.49,0,0,1,1.22-.18,6.12,6.12,0,0,1,2.31.4,19.23,19.23,0,0,1,2.5,1.31,25,25,0,0,0,4.6,2.1,20.18,20.18,0,0,0,6.18.76,17.08,17.08,0,0,0,5.27-1,16.13,16.13,0,0,0,5-2.59,4.44,4.44,0,0,0,2-3.38A3.38,3.38,0,0,0,53.48,49,3.32,3.32,0,0,0,51.11,47.87Z"/><rect class="cls-2" x="47.17" y="3.55" width="2.54" height="2.54"/><rect class="cls-2" x="47.17" y="9.64" width="5.07" height="5.07"/><rect class="cls-2" x="52.75" y="5.07" width="4.57" height="4.57"/><rect class="cls-2" x="52.25" width="2.03" height="2.03"/></g></g></svg>