<svg xmlns="http://www.w3.org/2000/svg" viewBox="0 0 130.43 226.94"><defs><style>.cls-1,.cls-5{fill:#0b2e44;}.cls-2,.cls-26,.cls-6,.cls-7{fill:#fff;}.cls-2{opacity:0.8;}.cls-3{fill:#424242;}.cls-4{fill:#f3ae1b;}.cls-27,.cls-5,.cls-6{fill-rule:evenodd;}.cls-18,.cls-6{opacity:0.2;}.cls-25,.cls-27,.cls-7{opacity:0.1;}.cls-8{fill:#d0edfa;}.cls-9{fill:#ff651f;}.cls-10{fill:#0051c4;}.cls-11{fill:#e46400;}.cls-12{fill:#c0003b;}.cls-13{fill:#ffea50;}.cls-14{fill:#ff2c0d;}.cls-15{fill:#ff1a2c;}.cls-16{fill:#ff2c4d;}.cls-17{fill:#ffd74c;}.cls-19{fill:#4c4c4b;}.cls-20{fill:#6cd2ea;}.cls-21{fill:#f7674f;}.cls-22{fill:#fff064;}.cls-23{fill:#4f4e4f;}.cls-24{fill:#1e2f47;}.cls-26{opacity:0.4;}</style></defs><title>Asset Gateway 3</title><g id="Layer_2" data-name="Layer 2"><g id="Layer_1-2" data-name="Layer 1"><g id="Phone"><rect class="cls-1" width="130.43" height="226.94" rx="7.69" ry="7.69"/><rect class="cls-2" x="12.03" y="26.93" width="106.37" height="155.14"/><g id="Setting"><circle class="cls-3" cx="38.44" cy="103.6" r="17.88"/><circle class="cls-4" cx="37.1" cy="102.53" r="17.88"/><path class="cls-5" d="M38.42,90.71H36a.24.24,0,0,0-.23.24v1.25a9.62,9.62,0,0,0-4.19,1.67L30.4,92.69a.23.23,0,0,0-.33,0L28.36,94.4a.24.24,0,0,0,0,.33l1.13,1.12a10.65,10.65,0,0,0-1.82,3.46L26,99a.24.24,0,0,0-.27.19l-.42,2.38a.23.23,0,0,0,.19.27l1.65.29c0,.12,0,.25,0,.38a10.9,10.9,0,0,0,.36,2.81l-1.49.7a.24.24,0,0,0-.11.31l1,2.19a.23.23,0,0,0,.31.12l1.38-.64a10.37,10.37,0,0,0,2.13,2.57l-.69,1.19a.23.23,0,0,0,.08.32l2.09,1.21a.24.24,0,0,0,.32-.08l.62-1.08a9.51,9.51,0,0,0,3.37.82l.1,1.19a.24.24,0,0,0,.26.22l2.41-.21a.23.23,0,0,0,.21-.26l-.1-1.23a9.71,9.71,0,0,0,3.1-1.42l.89,1.06a.24.24,0,0,0,.33,0l1.85-1.55a.24.24,0,0,0,0-.33l-1-1.18a10.48,10.48,0,0,0,1.62-2.79l1.65.44a.23.23,0,0,0,.28-.17l.63-2.33a.23.23,0,0,0-.16-.29L47,103.69a11.32,11.32,0,0,0,.06-1.15,11,11,0,0,0-.18-2l1.68-.61a.23.23,0,0,0,.14-.3l-.83-2.27a.24.24,0,0,0-.3-.14L46,97.82a10.47,10.47,0,0,0-1.84-2.65L45,93.89a.23.23,0,0,0-.06-.32l-2-1.39a.23.23,0,0,0-.32.06l-.8,1.14a9.57,9.57,0,0,0-3.2-1.14V90.94a.24.24,0,0,0-.24-.24ZM37.1,97.46A5.07,5.07,0,1,1,32,102.53a5.07,5.07,0,0,1,5.07-5.07Z"/><path class="cls-6" d="M37.1,95.51a7,7,0,1,1-7,7,7,7,0,0,1,7-7Zm0,2A5.07,5.07,0,1,1,32,102.53a5.07,5.07,0,0,1,5.07-5.07Z"/><path class="cls-7" d="M48.69,104.14,47,103.69a11.32,11.32,0,0,0,.06-1.15,11,11,0,0,0-.18-2l1.68-.61a.23.23,0,0,0,.14-.3l-.83-2.27a.24.24,0,0,0-.3-.14L46,97.82a10.47,10.47,0,0,0-1.84-2.65L45,93.89a.23.23,0,0,0-.06-.32l-2-1.39a.23.23,0,0,0-.32.06l-.8,1.14a9.57,9.57,0,0,0-3.2-1.14V90.94a.24.24,0,0,0-.24-.24H37.1v6.76a5.07,5.07,0,0,1,0,10.13v6.74l2.24-.2a.23.23,0,0,0,.21-.26l-.1-1.23a9.71,9.71,0,0,0,3.1-1.42l.89,1.06a.24.24,0,0,0,.33,0l1.85-1.55a.24.24,0,0,0,0-.33l-1-1.18a10.48,10.48,0,0,0,1.62-2.79l1.65.44a.23.23,0,0,0,.28-.17l.63-2.33A.23.23,0,0,0,48.69,104.14Z"/></g><g id="Game"><circle class="cls-3" cx="76.32" cy="84.18" r="17.88"/><circle class="cls-8" cx="74.95" cy="82.94" r="17.88"/><g id="Rocket"><path class="cls-9" d="M82.36,75.29S71.91,72.59,66,82.19l2,3,2.05,3C81.16,86,82.36,75.29,82.36,75.29Z"/><path class="cls-10" d="M68.18,85.39l0-.07L66,82.19a5.19,5.19,0,0,0-.21,2.3l1.15,1.67,0,.07,1,1.46a4.78,4.78,0,0,0,2.11.44Z"/><rect class="cls-11" x="65.81" y="84.43" width="1.09" height="3.76" transform="translate(-37.26 52.89) rotate(-34.57)"/><polygon class="cls-12" points="66.33 88.13 64.64 85.69 65.06 85.4 66.75 87.84 66.33 88.13"/><polygon class="cls-13" points="70.38 78.51 63.91 78.4 66.99 82.55 70.38 78.51"/><polygon class="cls-13" points="75.19 84.86 72.99 90.94 70.21 86.58 75.19 84.86"/><path class="cls-14" d="M81.42,78.73a15.05,15.05,0,0,0,.94-3.44,15,15,0,0,0-3.55-.35Z"/><polygon class="cls-15" points="61.92 89.37 64.41 89.17 66.9 88.97 65.48 86.91 64.06 84.85 62.99 87.11 61.92 89.37"/><polygon class="cls-16" points="62.95 88.59 64.72 88.48 66.49 88.38 65.45 86.86 64.41 85.34 63.68 86.96 62.95 88.59"/><polygon class="cls-17" points="64.24 87.67 65.19 87.77 66.15 87.88 65.44 86.84 64.72 85.81 64.48 86.73 64.24 87.67"/><path class="cls-18" d="M81.42,78.73h0a15.77,15.77,0,0,0,.92-3.29h0l0-.13h0l-.06,0L62,89.26l-.05.11,2.49-.2L66.9,89l-.41-.59-.17-.25.42-.29.22.32.9-.61.1.14a4.78,4.78,0,0,0,2.11.44h0l1-.22,1.93,3,1.56-4.34A14.85,14.85,0,0,0,81.42,78.73Z"/></g><path class="cls-19" d="M73.33,92.2a1.27,1.27,0,0,0-.3,0A2.75,2.75,0,0,0,70.5,90a2.53,2.53,0,0,0-2.15,1.33,2.28,2.28,0,0,0-1-.23,2.24,2.24,0,0,0-2.2,2.74h9.45a1.28,1.28,0,0,0,0-.3A1.31,1.31,0,0,0,73.33,92.2Z"/><path class="cls-20" d="M72.7,92.2a1.32,1.32,0,0,0-.31,0A2.74,2.74,0,0,0,69.87,90a2.53,2.53,0,0,0-2.15,1.33,2.28,2.28,0,0,0-1-.23,2.24,2.24,0,0,0-2.26,2.23,2.36,2.36,0,0,0,.06.51H74a1.28,1.28,0,0,0,0-.3A1.31,1.31,0,0,0,72.7,92.2Z"/><path class="cls-18" d="M72.7,92.2a1.32,1.32,0,0,0-.31,0A2.74,2.74,0,0,0,69.87,90h-.11V93.8H74a1.28,1.28,0,0,0,0-.3A1.31,1.31,0,0,0,72.7,92.2Z"/><path class="cls-19" d="M76.84,71.37a2,2,0,0,0-.46.05A4.14,4.14,0,0,0,72.57,68a3.81,3.81,0,0,0-3.24,2,3.46,3.46,0,0,0-1.51-.35,3.37,3.37,0,0,0-3.32,4.14H78.76a1.93,1.93,0,0,0,.05-.45A2,2,0,0,0,76.84,71.37Z"/><path class="cls-20" d="M75.89,71.37a2,2,0,0,0-.46.05A4.14,4.14,0,0,0,71.62,68a3.82,3.82,0,0,0-3.24,2,3.46,3.46,0,0,0-1.51-.35,3.37,3.37,0,0,0-3.32,4.14H77.82a1.93,1.93,0,0,0,.05-.45A2,2,0,0,0,75.89,71.37Z"/><path class="cls-18" d="M75.89,71.37a2,2,0,0,0-.46.05A4.14,4.14,0,0,0,71.62,68h-.17v5.79h6.36a1.93,1.93,0,0,0,.05-.45A2,2,0,0,0,75.89,71.37Z"/><path class="cls-19" d="M90.29,85.59a1.85,1.85,0,0,0-.39,0,3.55,3.55,0,0,0-3.27-3,3.27,3.27,0,0,0-2.78,1.72,3,3,0,0,0-1.3-.3,2.89,2.89,0,0,0-2.85,3.55H91.94a1.68,1.68,0,0,0-1.65-2.06Z"/><path class="cls-20" d="M89.48,85.59a1.85,1.85,0,0,0-.39,0,3.55,3.55,0,0,0-3.27-3A3.26,3.26,0,0,0,83,84.39a3,3,0,0,0-1.3-.3,2.89,2.89,0,0,0-2.85,3.55H91.13a1.68,1.68,0,0,0-1.65-2.06Z"/><path class="cls-18" d="M89.48,85.59a1.85,1.85,0,0,0-.39,0,3.55,3.55,0,0,0-3.27-3h-.14v5h5.46a1.68,1.68,0,0,0-1.65-2.06Z"/></g><g id="Idea"><circle class="cls-3" cx="71.16" cy="127.01" r="17.88"/><circle class="cls-21" cx="69.64" cy="125.97" r="17.88"/><g id="Lamp"><path class="cls-22" d="M69.68,121.88a5.41,5.41,0,0,0-5.76,5.81c0,2.28,3.15,7,3.15,7h5.21s3.15-4.73,3.15-7A5.41,5.41,0,0,0,69.68,121.88Z"/><path class="cls-23" d="M70.41,134.85a16.71,16.71,0,0,1-.26-3.08,4.38,4.38,0,0,1,.14-1.31,1.18,1.18,0,0,1-.43,0,.43.43,0,0,1-.25-.12,1.1,1.1,0,0,1-.5.19l.06.08c.41.63.15,4.09.14,4.23l-.16,0c.08-1,.2-3.64-.11-4.13l-.11-.16H68.8c-.34,0-.36-.11-.36-.14a.2.2,0,0,1,.13-.22c.09,0,.23,0,.42.19a1.28,1.28,0,0,0,.35-.07.79.79,0,0,0,.2-.11h0a.48.48,0,0,1,.15-.43.1.1,0,0,1,.12,0c.06,0,.06.12,0,.27a.55.55,0,0,1-.1.2.28.28,0,0,0,.16.08,1.11,1.11,0,0,0,.49,0,.57.57,0,0,1,.2-.22.33.33,0,0,1,.32,0l.09.05-.08.08a1.14,1.14,0,0,1-.42.25,3.49,3.49,0,0,0-.17,1.36,16.37,16.37,0,0,0,.25,3Zm-1.8-4.51.14,0c-.06,0-.1-.05-.12,0Z"/><path class="cls-24" d="M67.08,134.7v2.75a.64.64,0,0,0,.62.65h4a.64.64,0,0,0,.62-.65V134.7Z"/><path class="cls-7" d="M72.29,135.12a.18.18,0,0,1-.2.17H67.28a.19.19,0,0,1-.2-.17h0a.19.19,0,0,1,.2-.18h4.82a.19.19,0,0,1,.2.18Z"/><path class="cls-7" d="M72.29,135.82a.18.18,0,0,1-.2.17H67.28a.19.19,0,0,1-.2-.17h0a.19.19,0,0,1,.2-.18h4.82a.19.19,0,0,1,.2.18Z"/><path class="cls-7" d="M72.29,136.53a.19.19,0,0,1-.2.18H67.28a.19.19,0,0,1-.2-.18h0a.19.19,0,0,1,.2-.18h4.82a.19.19,0,0,1,.2.18Z"/><path class="cls-7" d="M72.29,137.23a.19.19,0,0,1-.2.18H67.28a.19.19,0,0,1-.2-.18h0a.19.19,0,0,1,.2-.17h4.82a.18.18,0,0,1,.2.17Z"/><path class="cls-25" d="M72.29,135.47a.19.19,0,0,1-.2.18H67.28a.19.19,0,0,1-.2-.18h0a.19.19,0,0,1,.2-.18h4.82a.19.19,0,0,1,.2.18Z"/><path class="cls-25" d="M72.29,136.17a.18.18,0,0,1-.2.17H67.28a.19.19,0,0,1-.2-.17h0a.19.19,0,0,1,.2-.18h4.82a.19.19,0,0,1,.2.18Z"/><path class="cls-25" d="M72.29,136.88a.19.19,0,0,1-.2.18H67.28a.19.19,0,0,1-.2-.18h0a.19.19,0,0,1,.2-.18h4.82a.19.19,0,0,1,.2.18Z"/><path class="cls-25" d="M72.29,137.58a.19.19,0,0,1-.2.18H67.28a.19.19,0,0,1-.2-.18h0a.19.19,0,0,1,.2-.17h4.82a.18.18,0,0,1,.2.17Z"/><path class="cls-25" d="M71.31,122.07c.82,1.84,2.76,7.28-.14,12.63h1.12s3.15-4.72,3.15-7C75.44,123.74,73,122.47,71.31,122.07Z"/><ellipse class="cls-26" cx="66.09" cy="126.91" rx="0.9" ry="0.59" transform="translate(-38.4 29.15) rotate(-19.4)"/><ellipse class="cls-26" cx="67.26" cy="124.6" rx="1.73" ry="1.14" transform="translate(-37.53 29.37) rotate(-19.38)"/><polygon class="cls-22" points="60.85 116.93 61.03 116.78 65.89 121.71 65.7 121.88 60.85 116.93"/><polygon class="cls-22" points="55.59 123.91 55.62 123.67 62.61 124.57 62.58 124.8 55.59 123.91"/><polygon class="cls-22" points="55.87 130.51 55.82 130.28 62.73 128.94 62.78 129.17 55.87 130.51"/><polygon class="cls-22" points="77.96 116.93 77.78 116.78 72.92 121.71 73.1 121.88 77.96 116.93"/><polygon class="cls-22" points="83.7 124.27 83.67 124.04 76.68 124.94 76.71 125.17 83.7 124.27"/><polygon class="cls-22" points="83.23 129.96 83.28 129.73 76.37 128.39 76.32 128.62 83.23 129.96"/><polygon class="cls-22" points="69.85 120.55 69.6 120.56 69.47 113.86 69.72 113.85 69.85 120.55"/></g></g><polygon class="cls-27" points="118.4 26.93 116.42 26.93 12.03 175.8 12.03 182.06 118.4 182.06 118.4 26.93"/></g></g></g></svg>