<svg xmlns="http://www.w3.org/2000/svg" xmlns:xlink="http://www.w3.org/1999/xlink" viewBox="0 0 437.72 431.79"><defs><style>.cls-1{fill:none;}.cls-2{clip-path:url(#clip-path);}.cls-3{fill:#f99b4e;}.cls-4{fill:#efefef;}.cls-5{fill:#a5a5a5;}.cls-23,.cls-6{fill:#fff;}.cls-6{opacity:0.3;}.cls-7{fill:#ccc;}.cls-8{fill:#223666;}.cls-9{fill:#e2e2e2;}.cls-10{fill:#f95a78;}.cls-11{fill:#f9f94b;}.cls-12{fill:#f49625;}.cls-13{fill:#aec647;}.cls-14{fill:#f3ae1b;}.cls-15{fill:#df3f11;}.cls-16{fill:#bcdede;}.cls-17{fill:#34495e;}.cls-18{fill:#e2e1e0;}.cls-19{fill:#ff614f;}.cls-20{fill:#84e570;}.cls-21{fill:#7d57ff;}.cls-22{fill:#0b2e44;}.cls-23{opacity:0.8;}.cls-24{fill-rule:evenodd;}.cls-24,.cls-28{opacity:0.1;}.cls-25{fill:#ecf0f1;}.cls-26{fill:#c84119;}.cls-27{fill:#6bb5ce;}.cls-29{fill:#ededed;}</style><clipPath id="clip-path" transform="translate(-97.84 -224)"><rect class="cls-1" width="437" height="575" rx="10" ry="10"/></clipPath></defs><title>Asset Register</title><g id="Layer_2" data-name="Layer 2"><g id="Layer_1-2" data-name="Layer 1"><g class="cls-2"><circle id="Background_2" data-name="Background 2" class="cls-3" cx="225.04" cy="216.18" r="198.44"/><g id="Responsive_Web" data-name="Responsive Web"><g id="Line"><path class="cls-4" d="M308.81,335.82l1.91-3.79s-2.76-1.4-5.58-2.69c-1.41-.65-2.83-1.27-3.91-1.73l-1.31-.54-.52-.21-1.52,4,1.71.7c1,.44,2.42,1,3.79,1.68C306.11,334.45,308.81,335.82,308.81,335.82Z" transform="translate(-97.84 -224)"/><path class="cls-4" d="M324.54,344.67l2.25-3.6s-2.62-1.65-5.3-3.2-5.4-3-5.4-3l-2,3.73s2.67,1.45,5.28,3S324.54,344.67,324.54,344.67Z" transform="translate(-97.84 -224)"/><path class="cls-4" d="M339.36,354.95l2.59-3.37-1.54-1.17c-.92-.71-2.18-1.61-3.43-2.52-2.52-1.8-5.1-3.52-5.1-3.52l-2.36,3.53s2.52,1.69,5,3.45c1.22.9,2.45,1.78,3.35,2.46Z" transform="translate(-97.84 -224)"/><path class="cls-4" d="M353,366.68l2.95-3.05-1.4-1.35c-.85-.8-2-1.84-3.15-2.88s-2.33-2-3.23-2.79l-1.49-1.24-2.7,3.27,1.45,1.21c.87.73,2,1.73,3.14,2.72l3.06,2.81Z" transform="translate(-97.84 -224)"/><path class="cls-4" d="M365.1,379.95l3.33-2.63s-.47-.63-1.22-1.52-1.72-2.12-2.76-3.27-2.05-2.34-2.86-3.18l-1.33-1.42-3.07,2.93,1.29,1.38c.79.81,1.78,1.95,2.77,3.08s1.94,2.3,2.67,3.16S365.1,379.95,365.1,379.95Z" transform="translate(-97.84 -224)"/><path class="cls-4" d="M375.09,394.79l3.7-2.08s-1.51-2.73-3.2-5.36c-.82-1.33-1.73-2.6-2.37-3.57-.32-.49-.61-.88-.81-1.16l-.31-.43-3.45,2.47.3.42c.19.27.47.65.78,1.12.62.94,1.49,2.17,2.28,3.44C373.64,392.17,375.09,394.79,375.09,394.79Z" transform="translate(-97.84 -224)"/><path class="cls-4" d="M382.4,411.06l4-1.37-.67-1.84-.69-1.88c-.25-.69-.57-1.4-.87-2.13l-.88-2.12-.84-1.82-.83-1.77L377.83,400l.79,1.7.81,1.74.84,2c.28.69.59,1.38.83,2l.66,1.8Z" transform="translate(-97.84 -224)"/><path class="cls-4" d="M386.47,428.39l4.21-.57s0-.19-.07-.53l-.23-1.4c-.21-1.16-.39-2.71-.75-4.24s-.61-3.07-.94-4.2l-.5-1.89-4.1,1.11.48,1.81c.32,1.08.57,2.55.9,4s.52,2.95.72,4.05l.22,1.34C386.45,428.2,386.47,428.39,386.47,428.39Z" transform="translate(-97.84 -224)"/><path class="cls-4" d="M387.14,446.2l4.24.24.07-2c0-1.17.12-2.73.07-4.3s0-3.13-.11-4.3l-.12-2-4.23.3.12,1.87c.11,1.12.07,2.62.11,4.12s0,3-.07,4.12S387.14,446.2,387.14,446.2Z" transform="translate(-97.84 -224)"/><path class="cls-4" d="M384.6,463.88l4.14.94.44-1.9c.24-1.14.5-2.68.78-4.22s.47-3.08.64-4.24l.26-1.94-4.22-.48-.25,1.86c-.16,1.11-.31,2.61-.61,4.08s-.52,3-.76,4.07Z" transform="translate(-97.84 -224)"/><path class="cls-4" d="M379.4,481l4,1.5.68-1.82c.43-1.08.91-2.56,1.39-4s1-2.95,1.28-4.08l.52-1.87-4.09-1.13-.51,1.81c-.27,1.1-.79,2.52-1.24,4s-.93,2.87-1.35,3.92Z" transform="translate(-97.84 -224)"/><path class="cls-4" d="M372.08,497.49l3.78,1.94.89-1.72c.55-1,1.17-2.45,1.84-3.85s1.35-2.8,1.78-3.88l.76-1.79-3.91-1.65-.73,1.74c-.42,1.05-1.1,2.41-1.73,3.78s-1.26,2.75-1.79,3.75Z" transform="translate(-97.84 -224)"/><path class="cls-4" d="M363.12,513.16l3.59,2.27,3.23-5.28c.82-1.31,1.54-2.69,2.12-3.69l1-1.69-3.72-2.06-.93,1.65c-.57,1-1.27,2.32-2.08,3.61Z" transform="translate(-97.84 -224)"/><path class="cls-4" d="M352.86,528.06l3.41,2.53,1.16-1.54c.69-.93,1.56-2.21,2.46-3.46l2.45-3.47,1.06-1.62-3.53-2.36-1,1.59-2.4,3.41c-.88,1.24-1.74,2.49-2.42,3.41Z" transform="translate(-97.84 -224)"/><path class="cls-4" d="M388.45,343.8l1.2-5.4s-4.06-.86-8.15-1.57c-2-.36-4.1-.68-5.66-.91l-1.89-.25-.75-.09-.64,5.49,2.45.32c1.49.21,3.49.53,5.48.88C384.48,343,388.45,343.8,388.45,343.8Z" transform="translate(-97.84 -224)"/><path class="cls-4" d="M411.83,349.83l1.71-5.27s-4-1.23-8-2.3-8-2.07-8-2.07l-1.37,5.36s3.94,1,7.85,2S411.83,349.83,411.83,349.83Z" transform="translate(-97.84 -224)"/><path class="cls-4" d="M434.52,357.94l2.23-5.09-2.39-1c-1.44-.59-3.37-1.31-5.3-2.06-3.88-1.45-7.8-2.77-7.8-2.77l-1.87,5.22s3.83,1.3,7.62,2.72c1.88.73,3.78,1.44,5.18,2Z" transform="translate(-97.84 -224)"/><path class="cls-4" d="M456.17,368.27l2.8-4.81-2.27-1.24c-1.37-.73-3.21-1.66-5.05-2.61s-3.72-1.82-5.12-2.47l-2.35-1.07-2.41,5,2.29,1c1.37.64,3.18,1.53,5,2.4l4.92,2.54Z" transform="translate(-97.84 -224)"/><path class="cls-4" d="M476.32,381.05l3.43-4.41s-.82-.63-2.09-1.51-2.94-2.11-4.68-3.22-3.45-2.28-4.78-3.07l-2.2-1.36-3,4.7,2.13,1.31c1.29.77,3,1.87,4.63,3s3.3,2.27,4.53,3.12S476.32,381.05,476.32,381.05Z" transform="translate(-97.84 -224)"/><path class="cls-4" d="M494.27,396.5l4.11-3.82s-2.89-3-6-5.71c-1.51-1.4-3.11-2.71-4.28-3.73-.58-.51-1.09-.92-1.44-1.2l-.55-.44-3.65,4.24.53.43c.34.27.83.66,1.39,1.15,1.12,1,2.66,2.25,4.12,3.59C491.5,393.66,494.27,396.5,494.27,396.5Z" transform="translate(-97.84 -224)"/><path class="cls-4" d="M509.21,414.61l4.75-3-1.48-2.1L511,407.33c-.56-.78-1.22-1.58-1.84-2.4l-1.86-2.39-1.7-2-1.67-2-4.33,3.59,1.6,1.88,1.63,1.93,1.78,2.29c.6.78,1.23,1.55,1.76,2.29l1.46,2.06Z" transform="translate(-97.84 -224)"/><path class="cls-4" d="M520.32,435.13l5.27-2.08s-.08-.24-.27-.65l-.77-1.69c-.66-1.39-1.42-3.3-2.4-5.1s-1.83-3.67-2.63-5l-1.28-2.22-4.94,2.74,1.23,2.12c.77,1.26,1.6,3,2.52,4.77s1.66,3.55,2.29,4.87l.73,1.62C520.24,434.9,520.32,435.13,520.32,435.13Z" transform="translate(-97.84 -224)"/><path class="cls-4" d="M527.17,457.36l5.58-1.09-.57-2.48c-.34-1.49-.76-3.49-1.36-5.44s-1.06-3.94-1.59-5.38l-.82-2.42L523,442.29l.78,2.32c.51,1.38,1,3.28,1.52,5.15s1,3.79,1.3,5.22Z" transform="translate(-97.84 -224)"/><path class="cls-4" d="M529.82,480.48l5.69-.17-.07-2.54c-.07-1.52-.26-3.55-.4-5.57s-.42-4-.6-5.56l-.32-2.52-5.64.77.3,2.43c.17,1.46.47,3.39.58,5.35s.32,3.9.39,5.37S529.82,480.48,529.82,480.48Z" transform="translate(-97.84 -224)"/><path class="cls-4" d="M528.84,503.82l5.66.59.27-2.52c.2-1.51.32-3.53.44-5.55s.31-4,.3-5.56l0-2.54-5.69-.09s0,1,0,2.45-.18,3.43-.29,5.39-.24,3.92-.43,5.38Z" transform="translate(-97.84 -224)"/><path class="cls-4" d="M524.86,526.93l5.55,1.2.58-2.46c.37-1.47.69-3.47,1.1-5.45s.81-4,1-5.47l.38-2.5-5.63-.81-.37,2.43c-.19,1.47-.61,3.4-1,5.33s-.71,3.88-1.07,5.32Z" transform="translate(-97.84 -224)"/><path class="cls-4" d="M518.5,549.61l5.42,1.69,2.41-7.71c.62-1.92,1.09-3.89,1.51-5.34l.67-2.43L523,534.44l-.65,2.38c-.41,1.43-.87,3.35-1.48,5.23Z" transform="translate(-97.84 -224)"/><path class="cls-4" d="M510.19,571.73l5.27,2.07,1-2.32c.58-1.4,1.29-3.29,2-5.17l2-5.18.84-2.38-5.37-1.82-.82,2.34-2,5.09c-.72,1.85-1.42,3.71-2,5.08Z" transform="translate(-97.84 -224)"/><path class="cls-4" d="M184.89,534.19l-4.06,1.24s.74,2.42,1.54,4.84c.4,1.2.81,2.41,1.13,3.31l.56,1.52,4-1.52-.52-1.43c-.31-.87-.71-2-1.11-3.23C185.62,536.57,184.89,534.19,184.89,534.19Z" transform="translate(-97.84 -224)"/><path class="cls-4" d="M180.94,519.88l-4.12,1,.38,1.54.88,3.37c.65,2.45,1.35,4.88,1.35,4.88l4.08-1.17s-.68-2.4-1.33-4.81l-.86-3.32Z" transform="translate(-97.84 -224)"/><path class="cls-4" d="M177.73,505.37l-4.17.81.3,1.55.7,3.41c.25,1.24.54,2.47.74,3.4l.35,1.54,4.13-.95-.34-1.52c-.2-.91-.48-2.13-.73-3.35L178,506.9Z" transform="translate(-97.84 -224)"/><path class="cls-4" d="M175.27,490.72l-4.2.59s.37,2.5.75,5l.56,3.43.28,1.56,4.18-.74-.27-1.54-.55-3.38Z" transform="translate(-97.84 -224)"/><path class="cls-4" d="M173.63,476l-4.23.35.13,1.58.34,3.47c.12,1.26.28,2.52.38,3.46l.18,1.57,4.21-.51-.18-1.55c-.1-.93-.26-2.16-.38-3.4l-.33-3.41Z" transform="translate(-97.84 -224)"/><path class="cls-4" d="M172.86,461.16l-4.24.09s0,.63,0,1.58.08,2.22.13,3.48.12,2.53.17,3.48.09,1.58.09,1.58l4.23-.26s0-.62-.09-1.55-.13-2.18-.17-3.42-.09-2.49-.13-3.42S172.86,461.16,172.86,461.16Z" transform="translate(-97.84 -224)"/><path class="cls-4" d="M173.06,446.35l-4.24-.21s0,.63-.08,1.59-.07,2.22-.11,3.48,0,2.54-.05,3.49,0,1.59,0,1.59h4.24s0-.62,0-1.55,0-2.18.05-3.42l.1-3.42C173,447,173.06,446.35,173.06,446.35Z" transform="translate(-97.84 -224)"/><path class="cls-4" d="M174.34,431.61l-4.21-.54s-.09.63-.19,1.58l-.38,3.47c-.15,1.26-.22,2.53-.31,3.48l-.13,1.58,4.23.31.13-1.55c.09-.93.15-2.17.3-3.4s.27-2.47.37-3.39S174.34,431.61,174.34,431.61Z" transform="translate(-97.84 -224)"/><path class="cls-4" d="M176.83,417l-4.14-.9-1,5-.85,5,4.19.65.83-4.89Z" transform="translate(-97.84 -224)"/><path class="cls-4" d="M180.68,402.81l-4-1.31-.48,1.52c-.28.91-.69,2.12-1,3.36l-.93,3.38c-.13.46-.23.85-.29,1.11l-.1.43,4.11,1,.1-.41c.06-.26.16-.64.28-1.09l.9-3.28c.31-1.2.71-2.37,1-3.26Z" transform="translate(-97.84 -224)"/><path class="cls-4" d="M186,389.06l-3.87-1.74-.65,1.45c-.41.86-.86,2.06-1.34,3.24s-1,2.36-1.29,3.26l-.54,1.5,4,1.45.52-1.45c.31-.88.8-2,1.25-3.16s.9-2.3,1.3-3.14Z" transform="translate(-97.84 -224)"/><path class="cls-4" d="M192.72,376l-3.64-2.17-.23.37c-.15.24-.35.59-.58,1l-1.71,3.06c-.64,1.11-1.2,2.26-1.63,3.11l-.72,1.43,3.8,1.88.69-1.38c.42-.83,1-1.94,1.58-3l1.66-3c.23-.41.41-.74.56-1Z" transform="translate(-97.84 -224)"/><path class="cls-4" d="M201,363.88l-3.35-2.6-1,1.27c-.57.77-1.37,1.77-2.1,2.82l-2.89,4.21,3.55,2.32,2.79-4.07c.7-1,1.48-2,2-2.72Z" transform="translate(-97.84 -224)"/><path class="cls-4" d="M210.73,352.86l-3-3L206.59,351c-.66.69-1.52,1.64-2.39,2.58l-1.27,1.38-.59.63-.5.6-1,1.22,3.24,2.74,1-1.18.48-.57.57-.61,1.23-1.33c.84-.91,1.66-1.82,2.3-2.49Z" transform="translate(-97.84 -224)"/><path class="cls-4" d="M221.71,343.08l-2.63-3.33-1.24,1c-.74.61-1.75,1.38-2.71,2.22l-3.81,3.4,2.88,3.11,3.69-3.29c.93-.82,1.91-1.56,2.63-2.15Z" transform="translate(-97.84 -224)"/><path class="cls-4" d="M233.73,334.59l-2.25-3.6-4.26,2.8c-.53.35-1.07.69-1.56,1l-1.32,1-1.29.94,2.51,3.42,1.25-.91,1.28-.93c.47-.34,1-.66,1.51-1Z" transform="translate(-97.84 -224)"/><path class="cls-4" d="M246.62,327.42l-1.88-3.8-.39.19c-.25.12-.61.28-1,.51L240.22,326c-1.12.61-2.25,1.19-3.08,1.66l-1.37.81,2.13,3.67,1.33-.79c.8-.47,1.91-1,3-1.61l3-1.6c.41-.23.76-.39,1-.5Z" transform="translate(-97.84 -224)"/><path class="cls-4" d="M260.14,321.47l-1.54-4-.41.15c-.26.1-.64.23-1.07.42l-3.22,1.36-3.22,1.36c-.44.18-.79.37-1,.48l-.39.19,1.77,3.86.39-.18c.25-.11.59-.29,1-.47l3.14-1.33,3.14-1.33c.43-.19.8-.31,1.05-.41Z" transform="translate(-97.84 -224)"/><path class="cls-4" d="M274.13,316.63l-1.23-4.06-.42.12-1.09.36-3.32,1.09-3.32,1.09-1.49.56,1.44,4,1.45-.54,3.25-1.06,3.25-1.07,1.07-.35Z" transform="translate(-97.84 -224)"/><path class="cls-4" d="M288.45,312.83l-1-4.13-4.93,1.2-1.81.44c-.58.15-1.11.31-1.56.44l-1.53.43,1.14,4.08,1.5-.42c.45-.12,1-.28,1.53-.43l1.78-.43Z" transform="translate(-97.84 -224)"/><path class="cls-4" d="M303,309.94l-.71-4.18-1.56.26c-.93.17-2.19.35-3.43.6l-5,1,.87,4.15,4.88-1c1.22-.25,2.46-.43,3.38-.59Z" transform="translate(-97.84 -224)"/></g><g id="Blooming"><path class="cls-5" d="M399.39,639.73c-11.64-10.28-6.34-34.26-6.34-34.26H358.36s5.29,24-6.35,34.26A41.72,41.72,0,0,1,326.78,650v5.78h97.84V650A41.72,41.72,0,0,1,399.39,639.73Z" transform="translate(-97.84 -224)"/><rect class="cls-6" x="228.94" y="426.01" width="97.84" height="5.78"/><path class="cls-7" d="M164,224.76h227.8a15.41,15.41,0,0,1,15.41,15.41V366.06a15.41,15.41,0,0,1-15.41,15.41H164a15.41,15.41,0,0,1-15.41-15.41V240.17A15.42,15.42,0,0,1,164,224.76Z"/><path class="cls-8" d="M246.39,464.17V590.06a15.32,15.32,0,0,0,2.34,8.14H502.67a15.32,15.32,0,0,0,2.34-8.14V464.17a15.33,15.33,0,0,0-4-10.35H250.4A15.34,15.34,0,0,0,246.39,464.17Z" transform="translate(-97.84 -224)"/><rect class="cls-9" x="159.67" y="235.03" width="236.36" height="133.81"/><rect class="cls-10" x="173.98" y="265.11" width="37.1" height="34.32"/><rect class="cls-11" x="263.25" y="265.11" width="37.1" height="34.32"/><rect class="cls-12" x="342.5" y="265.11" width="37.1" height="34.32"/><rect class="cls-13" x="173.98" y="306.63" width="59.48" height="2.5"/><rect class="cls-14" x="173.98" y="314.13" width="59.48" height="2.5"/><rect class="cls-15" x="173.98" y="321.08" width="59.48" height="2.5"/><rect class="cls-14" x="232.53" y="336.92" width="48.83" height="2.5"/><rect class="cls-13" x="181.43" y="336.92" width="45.07" height="2.5"/><rect class="cls-14" x="181.43" y="343.87" width="45.07" height="2.5"/><rect class="cls-13" x="232.53" y="343.87" width="22.93" height="2.5"/><rect class="cls-13" x="181.43" y="357.31" width="45.07" height="2.5"/><rect class="cls-14" x="232.53" y="357.31" width="22.93" height="2.5"/><rect class="cls-14" x="281.88" y="350.54" width="16.39" height="2.5"/><rect class="cls-16" x="181.43" y="328.86" width="97.35" height="2.5"/><rect class="cls-16" x="181.43" y="350.54" width="97.35" height="2.5"/><rect class="cls-13" x="281.88" y="365.27" width="16.39" height="2.5"/><rect class="cls-13" x="181.43" y="365.27" width="97.35" height="2.5"/><rect class="cls-14" x="347.35" y="337.79" width="39.48" height="2.5"/><rect class="cls-13" x="306.03" y="337.79" width="36.44" height="2.5"/><rect class="cls-14" x="306.03" y="344.73" width="36.44" height="2.5"/><rect class="cls-13" x="347.35" y="344.73" width="18.54" height="2.5"/><rect class="cls-13" x="306.03" y="358.18" width="36.44" height="2.5"/><rect class="cls-14" x="347.35" y="358.18" width="18.54" height="2.5"/><rect class="cls-16" x="306.03" y="329.73" width="78.72" height="2.5"/><rect class="cls-16" x="306.03" y="351.4" width="78.72" height="2.5"/><rect class="cls-13" x="306.03" y="366.13" width="78.72" height="2.5"/><rect class="cls-17" x="159.72" y="234.94" width="236.47" height="23.42"/><path class="cls-18" d="M379.64,469a5.2,5.2,0,0,1-5.17,5.22H272.59a5.2,5.2,0,0,1-5.17-5.22h0a5.2,5.2,0,0,1,5.17-5.22H374.47a5.2,5.2,0,0,1,5.17,5.22Z" transform="translate(-97.84 -224)"/><ellipse class="cls-19" cx="361.05" cy="243.1" rx="3.34" ry="3.37"/><ellipse class="cls-20" cx="372.1" cy="243.1" rx="3.34" ry="3.37"/><ellipse class="cls-21" cx="383.61" cy="243.1" rx="3.34" ry="3.37"/></g><g id="Phone"><rect class="cls-22" x="355.25" y="303.8" width="70.66" height="122.94" rx="4.17" ry="4.17"/><rect class="cls-23" x="361.77" y="318.38" width="57.62" height="84.04"/><rect class="cls-10" x="365.25" y="331.48" width="9.04" height="15.08"/><rect class="cls-11" x="387.01" y="331.48" width="9.04" height="15.08"/><rect class="cls-12" x="406.33" y="331.48" width="9.04" height="15.08"/><rect class="cls-13" x="365.25" y="349.71" width="14.5" height="1.1"/><rect class="cls-14" x="365.25" y="353.01" width="14.5" height="1.1"/><rect class="cls-15" x="365.25" y="356.06" width="14.5" height="1.1"/><rect class="cls-14" x="379.52" y="363.02" width="11.9" height="1.1"/><rect class="cls-13" x="367.07" y="363.02" width="10.99" height="1.1"/><rect class="cls-14" x="367.07" y="366.07" width="10.99" height="1.1"/><rect class="cls-13" x="379.52" y="366.07" width="5.59" height="1.1"/><rect class="cls-13" x="367.07" y="371.98" width="10.99" height="1.1"/><rect class="cls-14" x="379.52" y="371.98" width="5.59" height="1.1"/><rect class="cls-14" x="391.55" y="369" width="4" height="1.1"/><rect class="cls-16" x="367.07" y="359.48" width="23.73" height="1.1"/><rect class="cls-16" x="367.07" y="369" width="23.73" height="1.1"/><rect class="cls-13" x="391.55" y="375.47" width="4" height="1.1"/><rect class="cls-13" x="367.07" y="375.47" width="23.73" height="1.1"/><rect class="cls-14" x="407.51" y="363.4" width="9.63" height="1.1"/><rect class="cls-13" x="397.44" y="363.4" width="8.88" height="1.1"/><rect class="cls-14" x="397.44" y="366.45" width="8.88" height="1.1"/><rect class="cls-13" x="407.51" y="366.45" width="4.52" height="1.1"/><rect class="cls-13" x="397.44" y="372.35" width="8.88" height="1.1"/><rect class="cls-14" x="407.51" y="372.35" width="4.52" height="1.1"/><rect class="cls-16" x="397.44" y="359.86" width="19.19" height="1.1"/><rect class="cls-16" x="397.44" y="369.38" width="19.19" height="1.1"/><rect class="cls-13" x="397.44" y="375.85" width="19.19" height="1.1"/><rect class="cls-17" x="361.78" y="318.22" width="57.63" height="10.29"/><path class="cls-18" d="M489.38,546.62c0,1.27-.56,2.29-1.26,2.29H463.28c-.7,0-1.26-1-1.26-2.29h0c0-1.27.56-2.29,1.26-2.29h24.83c.7,0,1.26,1,1.26,2.29Z" transform="translate(-97.84 -224)"/><ellipse class="cls-19" cx="410.85" cy="321.81" rx="0.81" ry="1.48"/><ellipse class="cls-20" cx="413.54" cy="321.81" rx="0.81" ry="1.48"/><ellipse class="cls-21" cx="416.35" cy="321.81" rx="0.81" ry="1.48"/><polygon class="cls-24" points="419.39 318.38 418.32 318.38 361.77 399.03 361.77 402.42 419.39 402.42 419.39 318.38"/></g><g id="Web"><path class="cls-25" d="M389.66,368.94c0,3.66-2,6.63-4.55,6.63H275.64c-2.51,0-4.55-3-4.55-6.63V251.27c0-3.66,2-6.63,4.55-6.63H385.12c2.51,0,4.55,3,4.55,6.63Z" transform="translate(-97.84 -224)"/><path class="cls-17" d="M385.12,224H275.64c-2.51,0-4.55,2.69-4.55,6v23.25H389.66V230C389.66,226.69,387.63,224,385.12,224Z" transform="translate(-97.84 -224)"/><ellipse class="cls-19" cx="270.73" cy="4.75" rx="2.27" ry="2.48"/><ellipse class="cls-20" cx="278.25" cy="4.75" rx="2.27" ry="2.48"/><ellipse class="cls-21" cx="286.07" cy="4.75" rx="2.27" ry="2.48"/><path class="cls-18" d="M353.34,231.81a3.69,3.69,0,0,1-3.52,3.84H280.53a3.69,3.69,0,0,1-3.52-3.84h0a3.69,3.69,0,0,1,3.52-3.84h69.29a3.69,3.69,0,0,1,3.52,3.84Z" transform="translate(-97.84 -224)"/><rect class="cls-10" x="182.3" y="39.39" width="25.23" height="25.23"/><rect class="cls-11" x="219.92" y="39.39" width="25.23" height="25.23"/><rect class="cls-12" x="255.84" y="39.39" width="25.23" height="25.23"/><rect class="cls-13" x="183.81" y="73.53" width="28.8" height="1.43"/><rect class="cls-14" x="183.81" y="77.83" width="28.8" height="1.43"/><rect class="cls-15" x="183.81" y="81.81" width="28.8" height="1.43"/><rect class="cls-13" x="183.81" y="118.78" width="28.8" height="1.43"/><rect class="cls-13" x="183.81" y="114.06" width="28.8" height="1.43"/><rect class="cls-13" x="183.81" y="123.66" width="28.8" height="1.43"/><rect class="cls-14" x="218.18" y="90.88" width="28.8" height="1.43"/><rect class="cls-13" x="187.78" y="90.88" width="28.8" height="1.43"/><rect class="cls-14" x="187.78" y="94.86" width="28.8" height="1.43"/><rect class="cls-13" x="218.18" y="94.86" width="13.52" height="1.43"/><rect class="cls-13" x="187.78" y="102.55" width="28.8" height="1.43"/><rect class="cls-14" x="218.18" y="102.55" width="13.52" height="1.43"/><rect class="cls-14" x="252.55" y="98.68" width="13.52" height="1.43"/><rect class="cls-16" x="187.78" y="86.26" width="62.22" height="1.43"/><rect class="cls-16" x="187.78" y="98.68" width="62.22" height="1.43"/><rect class="cls-13" x="252.55" y="107.11" width="13.52" height="1.43"/><rect class="cls-13" x="187.78" y="107.11" width="62.22" height="1.43"/><rect class="cls-26" x="248.57" y="127.64" width="13.52" height="1.43"/><rect class="cls-27" x="183.81" y="127.64" width="62.22" height="1.43"/><path class="cls-28" d="M385.12,224H330.38V375.57h54.74c2.51,0,4.55-3,4.55-6.63V230C389.66,226.69,387.63,224,385.12,224Z" transform="translate(-97.84 -224)"/></g><g id="Tablet"><g id="Acces"><g id="Tablet-2" data-name="Tablet"><path class="cls-17" d="M292.71,621.14c0,14-1.85,13.24-15.89,13.24H113.2c-14,0-15.36-1.32-15.36-15.36V509.4c0-14,2.91-14.83,16.95-14.83l157.27-.16c14,0,20.51-2.79,20.51,11.25Z" transform="translate(-97.84 -224)"/><rect class="cls-29" x="12.09" y="283.59" width="170.7" height="113.39"/></g></g><rect class="cls-10" x="22.38" y="307.14" width="26.78" height="26.78"/><rect class="cls-11" x="86.82" y="307.14" width="26.78" height="26.78"/><rect class="cls-12" x="144.03" y="307.14" width="26.78" height="26.78"/><rect class="cls-13" x="22.38" y="339.54" width="42.94" height="1.95"/><rect class="cls-14" x="22.38" y="345.39" width="42.94" height="1.95"/><rect class="cls-15" x="22.38" y="350.81" width="42.94" height="1.95"/><rect class="cls-14" x="64.65" y="363.17" width="35.25" height="1.95"/><rect class="cls-13" x="27.76" y="363.17" width="32.53" height="1.95"/><rect class="cls-14" x="27.76" y="368.59" width="32.53" height="1.95"/><rect class="cls-13" x="64.65" y="368.59" width="16.55" height="1.95"/><rect class="cls-13" x="27.76" y="379.08" width="32.53" height="1.95"/><rect class="cls-14" x="64.65" y="379.08" width="16.55" height="1.95"/><rect class="cls-14" x="100.27" y="373.8" width="11.84" height="1.95"/><rect class="cls-16" x="27.76" y="356.89" width="70.28" height="1.95"/><rect class="cls-16" x="27.76" y="373.8" width="70.28" height="1.95"/><rect class="cls-13" x="100.27" y="385.29" width="11.84" height="1.95"/><rect class="cls-13" x="27.76" y="385.29" width="70.28" height="1.95"/><rect class="cls-14" x="147.53" y="363.85" width="28.5" height="1.95"/><rect class="cls-13" x="117.71" y="363.85" width="26.3" height="1.95"/><rect class="cls-14" x="117.71" y="369.27" width="26.3" height="1.95"/><rect class="cls-13" x="147.53" y="369.27" width="13.38" height="1.95"/><rect class="cls-13" x="117.71" y="379.76" width="26.3" height="1.95"/><rect class="cls-14" x="147.53" y="379.76" width="13.38" height="1.95"/><rect class="cls-16" x="117.71" y="357.56" width="56.82" height="1.95"/><rect class="cls-16" x="117.71" y="374.47" width="56.82" height="1.95"/><rect class="cls-13" x="117.71" y="385.97" width="56.82" height="1.95"/><rect class="cls-17" x="12.09" y="283.59" width="170.7" height="18.28"/><path class="cls-18" d="M198.06,515.41a3.92,3.92,0,0,1-3.74,4.07H120.78a3.92,3.92,0,0,1-3.74-4.07h0a3.92,3.92,0,0,1,3.74-4.08h73.54a3.92,3.92,0,0,1,3.74,4.08Z" transform="translate(-97.84 -224)"/><ellipse class="cls-19" cx="157.42" cy="289.96" rx="2.41" ry="2.63"/><ellipse class="cls-20" cx="165.4" cy="289.96" rx="2.41" ry="2.63"/><ellipse class="cls-21" cx="173.71" cy="289.96" rx="2.41" ry="2.63"/></g></g></g></g></g></svg>