<svg xmlns="http://www.w3.org/2000/svg" xmlns:xlink="http://www.w3.org/1999/xlink" viewBox="0 0 614.08 575.15"><defs><style>.cls-1{fill:none;}.cls-2{clip-path:url(#clip-path);}.cls-3{fill:#f46e67;}.cls-4{fill:#0a4e7c;}.cls-5{fill:#e2e2e0;}.cls-6{fill:#ff651f;}.cls-7{fill:#ffa931;}.cls-8{opacity:0.1;}.cls-9{fill:#e5e5e5;}.cls-10{fill:#ecf0f1;}.cls-11{fill:#34495e;}.cls-12{fill:#ff614f;}.cls-13{fill:#84e570;}.cls-14{fill:#7d57ff;}.cls-15{fill:#e2e1e0;}.cls-16{fill:#f95a78;}.cls-17{opacity:0.5;}.cls-18{fill:#0061fa;opacity:0.06;}.cls-19{fill:#0051c4;}.cls-20{fill:#e46400;}.cls-21{fill:#c0003b;}.cls-22{fill:#ffea50;}.cls-23{fill:#ff1a2c;}.cls-24{fill:#ff2c4d;}.cls-25{fill:#ffd74c;}.cls-26{opacity:0.2;}.cls-27{fill:#4c4c4b;}</style><clipPath id="clip-path" transform="translate(-552.32 -232.16)"><rect class="cls-1" width="1366" height="664"/></clipPath></defs><title>Asset Gateway 2</title><g id="Layer_2" data-name="Layer 2"><g id="Layer_1-2" data-name="Layer 1"><g class="cls-2"><circle id="Background_2" data-name="Background 2" class="cls-3" cx="275.68" cy="301.84" r="273.31"/><g id="Speed_Acces" data-name="Speed Acces"><g id="Speed"><path class="cls-4" d="M1038.06,682a246.25,246.25,0,0,0,37.36-130.77c0-136.65-110.77-247.42-247.42-247.42S580.58,414.58,580.58,551.23A246.25,246.25,0,0,0,617.94,682Z" transform="translate(-552.32 -232.16)"/><path class="cls-5" d="M1024.88,670.13a230.81,230.81,0,0,0,35-122.56c0-128.07-103.82-231.9-231.89-231.9S596.11,419.49,596.11,547.57a230.75,230.75,0,0,0,35,122.56Z" transform="translate(-552.32 -232.16)"/><path class="cls-4" d="M924.4,670.13a113.55,113.55,0,1,0-192.8,0Z" transform="translate(-552.32 -232.16)"/><circle class="cls-6" cx="275.68" cy="356.68" r="35.01"/><polygon class="cls-7" points="275.68 352.52 418.08 220.21 421.05 223.18 280.89 358.28 275.68 352.52"/><rect class="cls-6" x="273.45" y="97.84" width="4.45" height="24.03"/><rect class="cls-6" x="1025.14" y="492.9" width="4.45" height="24.03" transform="translate(-43.73 1293.19) rotate(-89.22)"/><rect class="cls-6" x="627.6" y="497.68" width="4.45" height="24.03" transform="translate(-440.66 900.41) rotate(-89.23)"/><path class="cls-8" d="M828,303.8l-2.22,0V682h212.28a246.25,246.25,0,0,0,37.36-130.77C1075.42,414.58,964.65,303.8,828,303.8Z" transform="translate(-552.32 -232.16)"/></g><g id="Line"><path class="cls-9" d="M969,366.38l3.17,3s2.22-2.31,4.34-4.72c1.06-1.2,2.11-2.41,2.88-3.35l1.29-1.59-3.45-2.7L976,358.54c-.74.9-1.77,2.08-2.8,3.25C971.13,364.13,969,366.38,969,366.38Z" transform="translate(-552.32 -232.16)"/><path class="cls-9" d="M955.43,379.19l2.84,3.34,1.53-1.3c.89-.81,2.11-1.85,3.28-2.94,2.37-2.15,4.65-4.41,4.65-4.41l-3.07-3.13s-2.22,2.2-4.54,4.3c-1.14,1.07-2.33,2.08-3.2,2.87Z" transform="translate(-552.32 -232.16)"/><path class="cls-9" d="M940.57,390.29l2.37,3.69s.69-.42,1.69-1.1,2.34-1.57,3.64-2.52,2.61-1.88,3.55-2.63l1.59-1.23-2.7-3.45-1.55,1.19c-.92.73-2.19,1.63-3.45,2.55s-2.56,1.77-3.52,2.44S940.57,390.29,940.57,390.29Z" transform="translate(-552.32 -232.16)"/><path class="cls-9" d="M924.41,398.79l1.35,4.19s.19-.07.52-.21l1.36-.59,1.93-.83c.7-.31,1.43-.69,2.17-1s1.48-.7,2.16-1.07l1.86-1,1.29-.7c.31-.16.48-.27.48-.27l-2.17-3.81s-.16.11-.46.26l-1.23.67-1.71.92c-.63.33-1.32.65-2,1s-1.36.68-2,1l-1.79.78-1.27.55C924.6,398.73,924.41,398.79,924.41,398.79Z" transform="translate(-552.32 -232.16)"/><path class="cls-9" d="M906.88,403.18l0,4.47,2-.22c1.23-.09,2.83-.45,4.45-.72s3.19-.76,4.39-1c.6-.14,1.08-.32,1.42-.42l.54-.17-.9-4.33-.5.16c-.32.09-.76.26-1.32.39-1.11.26-2.58.69-4.07,1s-3,.6-4.13.68Z" transform="translate(-552.32 -232.16)"/><path class="cls-9" d="M889,401.39l-1.38,4.29,2,.61c1.2.26,2.8.64,4.41.93l2.38.3a20.45,20.45,0,0,0,2.09.21l2,.09.47-4.46-1.9-.08a17.17,17.17,0,0,1-1.94-.19l-2.22-.28c-1.5-.27-3-.62-4.1-.86Z" transform="translate(-552.32 -232.16)"/><path class="cls-9" d="M873.4,392.34,870.82,396l1.55,1.34c.23.2.48.42.76.64l.89.66,1.93,1.43,2,1.28.94.59c.3.18.61.32.88.47l1.82.94,1.8-4.13-1.69-.88c-.25-.14-.53-.27-.81-.43l-.87-.55-1.89-1.19-1.79-1.34-.82-.62c-.25-.21-.48-.42-.7-.6Z" transform="translate(-552.32 -232.16)"/><path class="cls-9" d="M861.88,378.39,858.35,381s.45.69,1.15,1.7,1.64,2.36,2.64,3.66,2,2.57,2.81,3.53c.38.48.74.85,1,1.12l.38.42,2.93-3.34-.35-.39c-.22-.25-.55-.6-.9-1-.71-.89-1.71-2-2.59-3.28s-1.8-2.46-2.44-3.4S861.88,378.39,861.88,378.39Z" transform="translate(-552.32 -232.16)"/><path class="cls-9" d="M852.06,362.47l-3.7,2.35,1,1.65,2.24,3.72,3.29,5.44,3.73-2.3Z" transform="translate(-552.32 -232.16)"/><path class="cls-9" d="M840.53,346.69l-2.83,3.45s.54.54,1.27,1.42l1.27,1.49,1.37,1.77c.94,1.2,1.8,2.47,2.47,3.4l1.06,1.59L848.6,357l-1.15-1.71c-.73-1-1.65-2.35-2.67-3.65l-1.49-1.9-1.38-1.59C841.12,347.26,840.53,346.69,840.53,346.69Z" transform="translate(-552.32 -232.16)"/><path class="cls-9" d="M824.26,336.27l-1.65,4.16a11.4,11.4,0,0,1,1.81.6l1.83.69,2,1a17.14,17.14,0,0,1,1.93,1.13,19,19,0,0,1,1.63,1.08l1.52,1.15,2.47-3.73-1.64-1.23c-.48-.39-1.12-.73-1.76-1.15a18.94,18.94,0,0,0-2.08-1.21l-2.16-1.08-2-.75A12.49,12.49,0,0,0,824.26,336.27Z" transform="translate(-552.32 -232.16)"/><path class="cls-9" d="M804.83,334.52l-.27,4.37c.89,0,1.78.13,2.68.14,3.17.07,6.34.09,9.51.28L818,335c-3.4-.25-6.82-.27-10.23-.36C806.77,334.66,805.8,334.57,804.83,334.52Z" transform="translate(-552.32 -232.16)"/><path class="cls-9" d="M786.43,332.29l-.89,4.29,2,.39c1.19.26,2.79.47,4.38.71l2.34.34,2.05.21,2,.21.41-4.36-1.94-.2-2-.2-2.26-.33c-1.54-.23-3.08-.43-4.21-.69Z" transform="translate(-552.32 -232.16)"/><path class="cls-9" d="M769.27,326.46l-2.11,3.84.5.28,1.35.67c.56.28,1.21.6,1.93.89s1.46.65,2.23.93c1.54.56,3.08,1.13,4.25,1.45l2,.59,1.18-4.22-1.84-.56c-1.11-.3-2.54-.84-4-1.36-.72-.26-1.4-.59-2.06-.85s-1.25-.56-1.76-.81l-1.22-.6Z" transform="translate(-552.32 -232.16)"/></g><g id="Web"><path class="cls-10" d="M1097,420a6.56,6.56,0,0,1-6.26,6.82H939.92a6.56,6.56,0,0,1-6.26-6.82V298.81a6.56,6.56,0,0,1,6.26-6.82h150.78a6.56,6.56,0,0,1,6.26,6.82Z" transform="translate(-552.32 -232.16)"/><path class="cls-11" d="M1090.71,292H939.92a6.56,6.56,0,0,0-6.26,6.82v26.45H1097V298.81A6.56,6.56,0,0,0,1090.71,292Z" transform="translate(-552.32 -232.16)"/><ellipse class="cls-12" cx="515.61" cy="65.89" rx="3.13" ry="3.41"/><ellipse class="cls-13" cx="525.95" cy="65.89" rx="3.13" ry="3.41"/><ellipse class="cls-14" cx="536.73" cy="65.89" rx="3.13" ry="3.41"/><path class="cls-15" d="M1056.27,303.34a5.08,5.08,0,0,1-4.85,5.28H956a5.08,5.08,0,0,1-4.85-5.28h0a5.08,5.08,0,0,1,4.85-5.28h95.44a5.08,5.08,0,0,1,4.85,5.28Z" transform="translate(-552.32 -232.16)"/><rect class="cls-16" x="389.43" y="99.36" width="97.39" height="53.85"/><rect class="cls-17" x="389.43" y="163.07" width="147.31" height="9.86"/><rect class="cls-17" x="389.34" y="177.47" width="147.31" height="9.86"/><path class="cls-18" d="M1090.71,292h-75.3V426.79h75.3A6.56,6.56,0,0,0,1097,420V298.81A6.56,6.56,0,0,0,1090.71,292Z" transform="translate(-552.32 -232.16)"/></g><g id="Rocket"><path class="cls-6" d="M594.43,240.63s22.87,88.18,118,92.56L726,305.86l13.55-27.33C678.46,205.44,594.43,240.63,594.43,240.63Z" transform="translate(-552.32 -232.16)"/><path class="cls-19" d="M727,303.8l-.3.6-14.27,28.78s12.9-2.67,17.88-7.86L737.95,310l.3-.61,6.65-13.4c.75-6.35-5.38-17.34-5.38-17.34Z" transform="translate(-552.32 -232.16)"/><rect class="cls-20" x="725.46" y="308.91" width="31.72" height="9.18" transform="translate(-421.15 606.27) rotate(-63.63)"/><rect class="cls-21" x="734.83" y="314.34" width="25.05" height="4.3" transform="translate(-420.44 613.39) rotate(-63.63)"/><polygon class="cls-22" points="114.97 83.64 140.62 131.79 158.61 92.05 114.97 83.64"/><polygon class="cls-22" points="142.06 22.11 195.91 13.37 175.17 51.75 142.06 22.11"/><path class="cls-4" d="M623.61,233.44c-17.63,2.36-29.18,7.19-29.18,7.19s3.14,12.11,11.94,27.57Z" transform="translate(-552.32 -232.16)"/><polygon class="cls-23" points="229.67 101.5 218 83.96 206.33 66.41 196.96 85.29 187.6 104.17 208.64 102.84 229.67 101.5"/><polygon class="cls-24" points="219.7 97.12 211.67 84.46 203.65 71.81 196.74 85.73 189.84 99.67 204.77 98.39 219.7 97.12"/><polygon class="cls-25" points="207.61 91.36 204.49 83.89 201.36 76.43 196.65 85.92 191.95 95.41 199.78 93.39 207.61 91.36"/><path class="cls-26" d="M623.61,233.44h0a132.49,132.49,0,0,0-28,6.72l-.05,0-1,.38-.06,0-.1,0,0,.1,0,.06.15.54L781,333.73l1-.06-11.68-17.55-11.67-17.55L756,304l-1.12,2.26L751,304.32l1.48-3-8.22-4.07.64-1.29c.75-6.35-5.38-17.34-5.38-17.34l0-.09q-2.81-3.36-5.68-6.42l14.36-26.58-38.42,6.23C678.69,231.43,646.16,230.41,623.61,233.44Z" transform="translate(-552.32 -232.16)"/></g><g id="Cloud"><path class="cls-27" d="M651.1,362.08a14.83,14.83,0,0,0-3.38.39C644.27,347.81,633,337,619.56,337c-9.89,0-18.62,5.85-23.91,14.79a25.28,25.28,0,0,0-11.16-2.58,25,25,0,0,0-25.17,24.89,24.73,24.73,0,0,0,.66,5.69H665.33a14.34,14.34,0,0,0,.38-3.3A14.54,14.54,0,0,0,651.1,362.08Z" transform="translate(-552.32 -232.16)"/><path class="cls-10" d="M644.1,362.08a14.84,14.84,0,0,0-3.39.39C637.27,347.81,626,337,612.56,337c-9.88,0-18.62,5.85-23.91,14.79a25.22,25.22,0,0,0-36.32,22.31,24.54,24.54,0,0,0,.66,5.69H658.34a14.34,14.34,0,0,0,.38-3.3A14.54,14.54,0,0,0,644.1,362.08Z" transform="translate(-552.32 -232.16)"/><path class="cls-26" d="M644.1,362.08a14.84,14.84,0,0,0-3.39.39C637.27,347.81,626,337,612.56,337c-.41,0-.83,0-1.24,0v42.76h47a14.34,14.34,0,0,0,.38-3.3A14.54,14.54,0,0,0,644.1,362.08Z" transform="translate(-552.32 -232.16)"/><path class="cls-27" d="M847,268.36a14.63,14.63,0,0,0-3.38.39c-3.44-14.67-14.75-25.43-28.16-25.43-9.89,0-18.63,5.85-23.92,14.79a25.32,25.32,0,0,0-11.16-2.58,25,25,0,0,0-25.17,24.89,24.76,24.76,0,0,0,.66,5.69H861.24a14.38,14.38,0,0,0,.38-3.3A14.54,14.54,0,0,0,847,268.36Z" transform="translate(-552.32 -232.16)"/><path class="cls-10" d="M840,268.36a14.65,14.65,0,0,0-3.38.39c-3.45-14.67-14.75-25.43-28.16-25.43-9.89,0-18.63,5.85-23.92,14.79a25.3,25.3,0,0,0-11.16-2.58,25,25,0,0,0-25.17,24.89,24.76,24.76,0,0,0,.66,5.69H854.25a14.39,14.39,0,0,0,.38-3.3A14.54,14.54,0,0,0,840,268.36Z" transform="translate(-552.32 -232.16)"/><path class="cls-26" d="M840,268.36a14.65,14.65,0,0,0-3.38.39c-3.45-14.67-14.75-25.43-28.16-25.43-.42,0-.83,0-1.24,0v42.76h47a14.39,14.39,0,0,0,.38-3.3A14.54,14.54,0,0,0,840,268.36Z" transform="translate(-552.32 -232.16)"/><path class="cls-27" d="M819.81,688.52a26.46,26.46,0,0,0-6.07.71c-6.19-26.34-26.48-45.65-50.56-45.65-17.75,0-33.44,10.5-42.94,26.56a45.39,45.39,0,0,0-20-4.63c-25,0-45.18,20-45.18,44.68a44.32,44.32,0,0,0,1.19,10.21H845.37a26,26,0,0,0-25.56-31.89Z" transform="translate(-552.32 -232.16)"/><path class="cls-10" d="M807.25,688.52a26.51,26.51,0,0,0-6.07.71c-6.18-26.34-26.47-45.65-50.55-45.65-17.75,0-33.44,10.5-42.94,26.56a45.4,45.4,0,0,0-20-4.63c-25,0-45.18,20-45.18,44.68a44.34,44.34,0,0,0,1.19,10.21H832.81a25.69,25.69,0,0,0,.69-5.93A26.11,26.11,0,0,0,807.25,688.52Z" transform="translate(-552.32 -232.16)"/><path class="cls-26" d="M807.25,688.52a26.51,26.51,0,0,0-6.07.71c-6.18-26.34-26.47-45.65-50.55-45.65-.75,0-1.49,0-2.23.06v76.77h84.41a25.69,25.69,0,0,0,.69-5.93A26.11,26.11,0,0,0,807.25,688.52Z" transform="translate(-552.32 -232.16)"/><path class="cls-27" d="M1133.59,610a33.36,33.36,0,0,0-7.59.88c-7.73-32.92-33.1-57.07-63.2-57.07-22.19,0-41.81,13.12-53.68,33.2a56.82,56.82,0,0,0-25-5.78c-31.2,0-56.49,25-56.49,55.86a55.42,55.42,0,0,0,1.49,12.77h236.47a32.11,32.11,0,0,0,.86-7.42A32.63,32.63,0,0,0,1133.59,610Z" transform="translate(-552.32 -232.16)"/><path class="cls-10" d="M1117.89,610a33.36,33.36,0,0,0-7.59.88c-7.73-32.92-33.1-57.07-63.2-57.07-22.19,0-41.8,13.12-53.68,33.2a56.82,56.82,0,0,0-25-5.78c-31.2,0-56.49,25-56.49,55.86a55.39,55.39,0,0,0,1.49,12.77h236.47a32.11,32.11,0,0,0,.86-7.42A32.63,32.63,0,0,0,1117.89,610Z" transform="translate(-552.32 -232.16)"/><path class="cls-26" d="M1117.89,610a33.36,33.36,0,0,0-7.59.88c-7.73-32.92-33.1-57.07-63.2-57.07-.93,0-1.86,0-2.79.08v96h105.53a32.11,32.11,0,0,0,.86-7.42A32.63,32.63,0,0,0,1117.89,610Z" transform="translate(-552.32 -232.16)"/></g></g></g></g></g></svg>