<?xml version="1.0" encoding="utf-8"?>
<!-- Generator: Adobe Illustrator 21.0.0, SVG Export Plug-In . SVG Version: 6.00 Build 0)  -->
<svg version="1.1" id="Layer_1" xmlns="http://www.w3.org/2000/svg" xmlns:xlink="http://www.w3.org/1999/xlink" x="0px" y="0px"
	 viewBox="0 0 339.2 353.9" style="enable-background:new 0 0 339.2 353.9;" xml:space="preserve">
<style type="text/css">
	.st0{clip-path:url(#SVGID_2_);}
	.st1{fill:#F99B4E;}
	.st2{fill:#EFEFEF;}
	.st3{fill:#A5A5A5;}
	.st4{opacity:0.3;fill:#FFFFFF;enable-background:new    ;}
	.st5{fill:#CCCCCC;}
	.st6{fill:#223666;}
	.st7{fill:#E2E2E2;}
	.st8{fill:#F95A78;}
	.st9{fill:#F9F94B;}
	.st10{fill:#F49625;}
	.st11{fill:#AEC647;}
	.st12{fill:#F3AE1B;}
	.st13{fill:#DF3F11;}
	.st14{fill:#BCDEDE;}
	.st15{fill:#34495E;}
	.st16{fill:#E2E1E0;}
	.st17{fill:#FF614F;}
	.st18{fill:#84E570;}
	.st19{fill:#7D57FF;}
	.st20{fill:#0B2E44;}
	.st21{opacity:0.8;fill:#FFFFFF;enable-background:new    ;}
	.st22{opacity:0.1;enable-background:new    ;}
	.st23{fill:#ECF0F1;}
	.st24{fill:#C84119;}
	.st25{fill:#6BB5CE;}
	.st26{fill:#EDEDED;}
</style>
<title>Asset Register</title>
<g id="Layer_2">
	<g id="Layer_1-2">
		<g>
			<defs>
				<path id="SVGID_1_" d="M-87.8-224h417c5.5,0,10,4.5,10,10v555c0,5.5-4.5,10-10,10h-417c-5.5,0-10-4.5-10-10v-555
					C-97.8-219.5-93.4-224-87.8-224z"/>
			</defs>
			<clipPath id="SVGID_2_">
				<use xlink:href="#SVGID_1_"  style="overflow:visible;"/>
			</clipPath>
			<g class="st0">
				<circle id="Background_2" class="st1" cx="225" cy="216.2" r="198.4"/>
				<g id="Responsive_Web">
					<g id="Line">
						<path class="st2" d="M211,111.8l1.9-3.8c0,0-2.8-1.4-5.6-2.7c-1.4-0.6-2.8-1.3-3.9-1.7l-1.3-0.5l-0.5-0.2l-1.5,4l1.7,0.7
							c1,0.4,2.4,1,3.8,1.7C208.3,110.5,211,111.8,211,111.8z"/>
						<path class="st2" d="M226.7,120.7l2.3-3.6c0,0-2.6-1.6-5.3-3.2s-5.4-3-5.4-3l-2,3.7c0,0,2.7,1.5,5.3,3
							S226.7,120.7,226.7,120.7z"/>
						<path class="st2" d="M241.5,131l2.6-3.4l-1.5-1.2c-0.9-0.7-2.2-1.6-3.4-2.5c-2.5-1.8-5.1-3.5-5.1-3.5l-2.4,3.5
							c0,0,2.5,1.7,5,3.5c1.2,0.9,2.5,1.8,3.4,2.5L241.5,131z"/>
						<path class="st2" d="M255.2,142.7l3-3l-1.4-1.4c-0.9-0.8-2-1.8-3.1-2.9s-2.3-2-3.2-2.8l-1.5-1.2l-2.7,3.3l1.5,1.2
							c0.9,0.7,2,1.7,3.1,2.7l3.1,2.8L255.2,142.7z"/>
						<path class="st2" d="M267.3,156l3.3-2.6c0,0-0.5-0.6-1.2-1.5s-1.7-2.1-2.8-3.3s-2-2.3-2.9-3.2l-1.3-1.4l-3.1,2.9l1.3,1.4
							c0.8,0.8,1.8,2,2.8,3.1s1.9,2.3,2.7,3.2S267.3,156,267.3,156z"/>
						<path class="st2" d="M277.3,170.8l3.7-2.1c0,0-1.5-2.7-3.2-5.4c-0.8-1.3-1.7-2.6-2.4-3.6c-0.3-0.5-0.6-0.9-0.8-1.2l-0.3-0.4
							l-3.5,2.5l0.3,0.4c0.2,0.3,0.5,0.6,0.8,1.1c0.6,0.9,1.5,2.2,2.3,3.4C275.8,168.2,277.3,170.8,277.3,170.8z"/>
						<path class="st2" d="M284.6,187.1l4-1.4l-0.7-1.8l-0.7-1.9c-0.3-0.7-0.6-1.4-0.9-2.1l-0.9-2.1l-0.8-1.8l-0.8-1.8L280,176
							l0.8,1.7l0.8,1.7l0.8,2c0.3,0.7,0.6,1.4,0.8,2l0.7,1.8L284.6,187.1z"/>
						<path class="st2" d="M288.6,204.4l4.2-0.6c0,0,0-0.2-0.1-0.5l-0.2-1.4c-0.2-1.2-0.4-2.7-0.8-4.2s-0.6-3.1-0.9-4.2l-0.5-1.9
							l-4.1,1.1l0.5,1.8c0.3,1.1,0.6,2.5,0.9,4s0.5,3,0.7,4l0.2,1.3C288.6,204.2,288.6,204.4,288.6,204.4z"/>
						<path class="st2" d="M289.3,222.2l4.2,0.2l0.1-2c0-1.2,0.1-2.7,0.1-4.3s0-3.1-0.1-4.3l-0.1-2l-4.2,0.3l0.1,1.9
							c0.1,1.1,0.1,2.6,0.1,4.1s0,3-0.1,4.1S289.3,222.2,289.3,222.2z"/>
						<path class="st2" d="M286.8,239.9l4.1,0.9l0.4-1.9c0.2-1.1,0.5-2.7,0.8-4.2s0.5-3.1,0.6-4.2l0.3-1.9l-4.2-0.5l-0.3,1.9
							c-0.2,1.1-0.3,2.6-0.6,4.1s-0.5,3-0.8,4.1L286.8,239.9z"/>
						<path class="st2" d="M281.6,257l4,1.5l0.7-1.8c0.4-1.1,0.9-2.6,1.4-4s1-3,1.3-4.1l0.5-1.9l-4.1-1.1l-0.5,1.8
							c-0.3,1.1-0.8,2.5-1.2,4s-0.9,2.9-1.4,3.9L281.6,257z"/>
						<path class="st2" d="M274.2,273.5l3.8,1.9l0.9-1.7c0.5-1,1.2-2.5,1.8-3.9s1.4-2.8,1.8-3.9l0.8-1.8l-3.9-1.6l-0.7,1.7
							c-0.4,1-1.1,2.4-1.7,3.8s-1.3,2.8-1.8,3.8L274.2,273.5z"/>
						<path class="st2" d="M265.3,289.2l3.6,2.3l3.2-5.3c0.8-1.3,1.5-2.7,2.1-3.7l1-1.7l-3.7-2.1l-0.9,1.6c-0.6,1-1.3,2.3-2.1,3.6
							L265.3,289.2z"/>
						<path class="st2" d="M255,304.1l3.4,2.5l1.2-1.5c0.7-0.9,1.6-2.2,2.5-3.5l2.5-3.5l1.1-1.6l-3.5-2.4l-1,1.6l-2.4,3.4
							c-0.9,1.2-1.7,2.5-2.4,3.4L255,304.1z"/>
						<path class="st2" d="M290.6,119.8l1.2-5.4c0,0-4.1-0.9-8.1-1.6c-2-0.4-4.1-0.7-5.7-0.9l-1.9-0.3l-0.8-0.1l-0.6,5.5l2.5,0.3
							c1.5,0.2,3.5,0.5,5.5,0.9C286.6,119,290.6,119.8,290.6,119.8z"/>
						<path class="st2" d="M314,125.8l1.7-5.3c0,0-4-1.2-8-2.3s-8-2.1-8-2.1l-1.4,5.4c0,0,3.9,1,7.9,2S314,125.8,314,125.8z"/>
						<path class="st2" d="M336.7,133.9l2.2-5.1l-2.4-1c-1.4-0.6-3.4-1.3-5.3-2.1c-3.9-1.5-7.8-2.8-7.8-2.8l-1.9,5.2
							c0,0,3.8,1.3,7.6,2.7c1.9,0.7,3.8,1.4,5.2,2L336.7,133.9z"/>
						<path class="st2" d="M358.3,144.3l2.8-4.8l-2.3-1.2c-1.4-0.7-3.2-1.7-5-2.6s-3.7-1.8-5.1-2.5l-2.4-1.1l-2.4,5l2.3,1
							c1.4,0.6,3.2,1.5,5,2.4l4.9,2.5L358.3,144.3z"/>
						<path class="st2" d="M378.5,157l3.4-4.4c0,0-0.8-0.6-2.1-1.5s-2.9-2.1-4.7-3.2s-3.5-2.3-4.8-3.1l-2.2-1.4l-3,4.7l2.1,1.3
							c1.3,0.8,3,1.9,4.6,3s3.3,2.3,4.5,3.1S378.5,157,378.5,157z"/>
						<path class="st2" d="M396.4,172.5l4.1-3.8c0,0-2.9-3-6-5.7c-1.5-1.4-3.1-2.7-4.3-3.7c-0.6-0.5-1.1-0.9-1.4-1.2l-0.5-0.4
							l-3.6,4.2l0.5,0.4c0.3,0.3,0.8,0.7,1.4,1.1c1.1,1,2.7,2.3,4.1,3.6C393.7,169.7,396.4,172.5,396.4,172.5z"/>
						<path class="st2" d="M411.4,190.6l4.7-3l-1.5-2.1l-1.5-2.2c-0.6-0.8-1.2-1.6-1.8-2.4l-1.9-2.4l-1.7-2l-1.7-2l-4.3,3.6l1.6,1.9
							l1.6,1.9l1.8,2.3c0.6,0.8,1.2,1.5,1.8,2.3l1.5,2.1L411.4,190.6z"/>
						<path class="st2" d="M422.5,211.1l5.3-2.1c0,0-0.1-0.2-0.3-0.6l-0.8-1.7c-0.7-1.4-1.4-3.3-2.4-5.1s-1.8-3.7-2.6-5l-1.3-2.2
							l-4.9,2.7l1.2,2.1c0.8,1.3,1.6,3,2.5,4.8s1.7,3.5,2.3,4.9l0.7,1.6C422.4,210.9,422.5,211.1,422.5,211.1z"/>
						<path class="st2" d="M429.3,233.4l5.6-1.1l-0.6-2.5c-0.3-1.5-0.8-3.5-1.4-5.4s-1.1-3.9-1.6-5.4l-0.8-2.4l-5.4,1.7l0.8,2.3
							c0.5,1.4,1,3.3,1.5,5.1s1,3.8,1.3,5.2L429.3,233.4z"/>
						<path class="st2" d="M432,256.5l5.7-0.2l-0.1-2.5c-0.1-1.5-0.3-3.5-0.4-5.6s-0.4-4-0.6-5.6l-0.3-2.5l-5.6,0.8l0.3,2.4
							c0.2,1.5,0.5,3.4,0.6,5.4s0.3,3.9,0.4,5.4S432,256.5,432,256.5z"/>
						<path class="st2" d="M431,279.8l5.7,0.6l0.3-2.5c0.2-1.5,0.3-3.5,0.4-5.5s0.3-4,0.3-5.6v-2.5l-5.7-0.1c0,0,0,1,0,2.5
							s-0.2,3.4-0.3,5.4s-0.2,3.9-0.4,5.4L431,279.8z"/>
						<path class="st2" d="M427,302.9l5.5,1.2l0.6-2.5c0.4-1.5,0.7-3.5,1.1-5.5s0.8-4,1-5.5l0.4-2.5l-5.6-0.8l-0.4,2.4
							c-0.2,1.5-0.6,3.4-1,5.3s-0.7,3.9-1.1,5.3L427,302.9z"/>
						<path class="st2" d="M420.7,325.6l5.4,1.7l2.4-7.7c0.6-1.9,1.1-3.9,1.5-5.3l0.7-2.4l-5.5-1.4l-0.7,2.4
							c-0.4,1.4-0.9,3.3-1.5,5.2L420.7,325.6z"/>
						<path class="st2" d="M412.4,347.7l5.3,2.1l1-2.3c0.6-1.4,1.3-3.3,2-5.2l2-5.2l0.8-2.4l-5.4-1.8l-0.8,2.3l-2,5.1
							c-0.7,1.8-1.4,3.7-2,5.1L412.4,347.7z"/>
						<path class="st2" d="M87.1,310.2l-4.1,1.2c0,0,0.7,2.4,1.5,4.8c0.4,1.2,0.8,2.4,1.1,3.3l0.6,1.5l4-1.5l-0.5-1.4
							c-0.3-0.9-0.7-2-1.1-3.2C87.8,312.6,87.1,310.2,87.1,310.2z"/>
						<path class="st2" d="M83.1,295.9l-4.1,1l0.4,1.5l0.9,3.4c0.6,2.5,1.4,4.9,1.4,4.9l4.1-1.2c0,0-0.7-2.4-1.3-4.8l-0.9-3.3
							L83.1,295.9z"/>
						<path class="st2" d="M79.9,281.4l-4.2,0.8l0.3,1.5l0.7,3.4c0.3,1.2,0.5,2.5,0.7,3.4l0.4,1.5l4.1-1l-0.3-1.5
							c-0.2-0.9-0.5-2.1-0.7-3.4l-0.7-3.4L79.9,281.4z"/>
						<path class="st2" d="M77.4,266.7l-4.2,0.6c0,0,0.4,2.5,0.8,5l0.6,3.4l0.3,1.6l4.2-0.7l-0.3-1.5l-0.6-3.4L77.4,266.7z"/>
						<path class="st2" d="M75.8,252l-4.2,0.4l0.1,1.6l0.3,3.5c0.1,1.3,0.3,2.5,0.4,3.5l0.2,1.6l4.2-0.5l-0.2-1.5
							c-0.1-0.9-0.3-2.2-0.4-3.4l-0.3-3.4L75.8,252z"/>
						<path class="st2" d="M75,237.2l-4.2,0.1c0,0,0,0.6,0,1.6s0.1,2.2,0.1,3.5s0.1,2.5,0.2,3.5s0.1,1.6,0.1,1.6l4.2-0.3
							c0,0,0-0.6-0.1-1.5s-0.1-2.2-0.2-3.4s-0.1-2.5-0.1-3.4S75,237.2,75,237.2z"/>
						<path class="st2" d="M75.2,222.4l-4.2-0.2c0,0,0,0.6-0.1,1.6s-0.1,2.2-0.1,3.5s0,2.5-0.1,3.5s0,1.6,0,1.6H75c0,0,0-0.6,0-1.5
							s0-2.2,0.1-3.4l0.1-3.4C75.2,223,75.2,222.4,75.2,222.4z"/>
						<path class="st2" d="M76.5,207.6l-4.2-0.5c0,0-0.1,0.6-0.2,1.6l-0.4,3.5c-0.1,1.3-0.2,2.5-0.3,3.5l-0.1,1.6l4.2,0.3l0.1-1.5
							c0.1-0.9,0.1-2.2,0.3-3.4s0.3-2.5,0.4-3.4S76.5,207.6,76.5,207.6z"/>
						<path class="st2" d="M79,193l-4.1-0.9l-1,5l-0.9,5l4.2,0.6l0.8-4.9L79,193z"/>
						<path class="st2" d="M82.8,178.8l-4-1.3l-0.5,1.5c-0.3,0.9-0.7,2.1-1,3.4l-0.9,3.4c-0.1,0.5-0.2,0.9-0.3,1.1l-0.1,0.4l4.1,1
							l0.1-0.4c0.1-0.3,0.2-0.6,0.3-1.1l0.9-3.3c0.3-1.2,0.7-2.4,1-3.3L82.8,178.8z"/>
						<path class="st2" d="M88.2,165.1l-3.9-1.7l-0.6,1.5c-0.4,0.9-0.9,2.1-1.3,3.2s-1,2.4-1.3,3.3l-0.5,1.5l4,1.5l0.5-1.5
							c0.3-0.9,0.8-2,1.3-3.2s0.9-2.3,1.3-3.1L88.2,165.1z"/>
						<path class="st2" d="M94.9,152l-3.6-2.2l-0.2,0.4c-0.1,0.2-0.4,0.6-0.6,1l-1.7,3.1c-0.6,1.1-1.2,2.3-1.6,3.1l-0.7,1.4l3.8,1.9
							l0.7-1.4c0.4-0.8,1-1.9,1.6-3l1.7-3c0.2-0.4,0.4-0.7,0.6-1L94.9,152z"/>
						<path class="st2" d="M103.2,139.9l-3.4-2.6l-1,1.3c-0.6,0.8-1.4,1.8-2.1,2.8l-2.9,4.2l3.6,2.3l2.8-4.1c0.7-1,1.5-2,2-2.7
							L103.2,139.9z"/>
						<path class="st2" d="M112.9,128.9l-3-3l-1.1,1.1c-0.7,0.7-1.5,1.6-2.4,2.6l-1.3,1.4l-0.6,0.6l-0.5,0.6l-1,1.2l3.2,2.7l1-1.2
							l0.5-0.6l0.6-0.6l1.2-1.3c0.8-0.9,1.7-1.8,2.3-2.5L112.9,128.9z"/>
						<path class="st2" d="M123.9,119.1l-2.6-3.3l-1.2,1c-0.7,0.6-1.8,1.4-2.7,2.2l-3.8,3.4l2.9,3.1l3.7-3.3
							c0.9-0.8,1.9-1.6,2.6-2.1L123.9,119.1z"/>
						<path class="st2" d="M135.9,110.6l-2.3-3.6l-4.3,2.8c-0.5,0.4-1.1,0.7-1.6,1l-1.3,1l-1.3,0.9l2.5,3.4l1.3-0.9l1.3-0.9
							c0.5-0.3,1-0.7,1.5-1L135.9,110.6z"/>
						<path class="st2" d="M148.8,103.4l-1.9-3.8l-0.4,0.2c-0.3,0.1-0.6,0.3-1,0.5l-3.1,1.7c-1.1,0.6-2.3,1.2-3.1,1.7l-1.4,0.8
							l2.1,3.7l1.3-0.8c0.8-0.5,1.9-1,3-1.6l3-1.6c0.4-0.2,0.8-0.4,1-0.5L148.8,103.4z"/>
						<path class="st2" d="M162.3,97.5l-1.5-4l-0.4,0.1c-0.3,0.1-0.6,0.2-1.1,0.4l-3.2,1.4l-3.2,1.4c-0.4,0.2-0.8,0.4-1,0.5
							l-0.4,0.2l1.8,3.9l0.4-0.2c0.3-0.1,0.6-0.3,1-0.5l3.1-1.3l3.1-1.3c0.4-0.2,0.8-0.3,1-0.4L162.3,97.5z"/>
						<path class="st2" d="M176.3,92.6l-1.2-4.1l-0.4,0.1l-1.1,0.4l-3.3,1.1l-3.3,1.1l-1.5,0.6l1.4,4l1.5-0.5l3.3-1.1l3.3-1.1
							l1.1-0.4L176.3,92.6z"/>
						<path class="st2" d="M190.6,88.8l-1-4.1l-4.9,1.2l-1.8,0.4c-0.6,0.1-1.1,0.3-1.6,0.4l-1.5,0.4l1.1,4.1l1.5-0.4
							c0.5-0.1,1-0.3,1.5-0.4l1.8-0.4L190.6,88.8z"/>
						<path class="st2" d="M205.2,85.9l-0.7-4.2l-1.6,0.3c-0.9,0.2-2.2,0.4-3.4,0.6l-5,1l0.9,4.1l4.9-1c1.2-0.3,2.5-0.4,3.4-0.6
							L205.2,85.9z"/>
					</g>
					<g id="Blooming">
						<path class="st3" d="M301.6,415.7c-11.6-10.3-6.3-34.3-6.3-34.3h-34.7c0,0,5.3,24-6.4,34.3c-7,6.1-15.9,9.8-25.2,10.3v5.8
							h97.8V426C317.5,425.5,308.6,421.9,301.6,415.7z"/>
						<rect x="228.9" y="426" class="st4" width="97.8" height="5.8"/>
						<path class="st5" d="M164,224.8h227.8c8.5,0,15.4,6.9,15.4,15.4l0,0v125.9c0,8.5-6.9,15.4-15.4,15.4l0,0H164
							c-8.5,0-15.4-6.9-15.4-15.4l0,0V240.2C148.6,231.7,155.5,224.8,164,224.8z"/>
						<path class="st6" d="M148.6,240.2v125.9c0,2.9,0.8,5.7,2.3,8.1h253.9c1.5-2.4,2.3-5.3,2.3-8.1V240.2c0-3.8-1.4-7.5-4-10.4
							H152.6C150,232.6,148.5,236.3,148.6,240.2z"/>
						<rect x="159.7" y="235" class="st7" width="236.4" height="133.8"/>
						<rect x="174" y="265.1" class="st8" width="37.1" height="34.3"/>
						<rect x="263.3" y="265.1" class="st9" width="37.1" height="34.3"/>
						<rect x="342.5" y="265.1" class="st10" width="37.1" height="34.3"/>
						<rect x="174" y="306.6" class="st11" width="59.5" height="2.5"/>
						<rect x="174" y="314.1" class="st12" width="59.5" height="2.5"/>
						<rect x="174" y="321.1" class="st13" width="59.5" height="2.5"/>
						<rect x="232.5" y="336.9" class="st12" width="48.8" height="2.5"/>
						<rect x="181.4" y="336.9" class="st11" width="45.1" height="2.5"/>
						<rect x="181.4" y="343.9" class="st12" width="45.1" height="2.5"/>
						<rect x="232.5" y="343.9" class="st11" width="22.9" height="2.5"/>
						<rect x="181.4" y="357.3" class="st11" width="45.1" height="2.5"/>
						<rect x="232.5" y="357.3" class="st12" width="22.9" height="2.5"/>
						<rect x="281.9" y="350.5" class="st12" width="16.4" height="2.5"/>
						<rect x="181.4" y="328.9" class="st14" width="97.4" height="2.5"/>
						<rect x="181.4" y="350.5" class="st14" width="97.4" height="2.5"/>
						<rect x="281.9" y="365.3" class="st11" width="16.4" height="2.5"/>
						<rect x="181.4" y="365.3" class="st11" width="97.4" height="2.5"/>
						<rect x="347.4" y="337.8" class="st12" width="39.5" height="2.5"/>
						<rect x="306" y="337.8" class="st11" width="36.4" height="2.5"/>
						<rect x="306" y="344.7" class="st12" width="36.4" height="2.5"/>
						<rect x="347.4" y="344.7" class="st11" width="18.5" height="2.5"/>
						<rect x="306" y="358.2" class="st11" width="36.4" height="2.5"/>
						<rect x="347.4" y="358.2" class="st12" width="18.5" height="2.5"/>
						<rect x="306" y="329.7" class="st14" width="78.7" height="2.5"/>
						<rect x="306" y="351.4" class="st14" width="78.7" height="2.5"/>
						<rect x="306" y="366.1" class="st11" width="78.7" height="2.5"/>
						<rect x="159.7" y="234.9" class="st15" width="236.5" height="23.4"/>
						<path class="st16" d="M281.8,245c0,2.9-2.3,5.2-5.2,5.2H174.8c-2.9,0-5.2-2.4-5.2-5.2l0,0c0-2.9,2.3-5.2,5.2-5.2h101.9
							C279.5,239.8,281.8,242.1,281.8,245z"/>
						<ellipse class="st17" cx="361" cy="243.1" rx="3.3" ry="3.4"/>
						<ellipse class="st18" cx="372.1" cy="243.1" rx="3.3" ry="3.4"/>
						<ellipse class="st19" cx="383.6" cy="243.1" rx="3.3" ry="3.4"/>
					</g>
					<g id="Phone">
						<path class="st20" d="M359.4,303.8h62.3c2.3,0,4.2,1.9,4.2,4.2v114.6c0,2.3-1.9,4.2-4.2,4.2h-62.3c-2.3,0-4.2-1.9-4.2-4.2V308
							C355.3,305.7,357.1,303.8,359.4,303.8z"/>
						<rect x="361.8" y="318.4" class="st21" width="57.6" height="84"/>
						<rect x="365.3" y="331.5" class="st8" width="9" height="15.1"/>
						<rect x="387" y="331.5" class="st9" width="9" height="15.1"/>
						<rect x="406.3" y="331.5" class="st10" width="9" height="15.1"/>
						<rect x="365.3" y="349.7" class="st11" width="14.5" height="1.1"/>
						<rect x="365.3" y="353" class="st12" width="14.5" height="1.1"/>
						<rect x="365.3" y="356.1" class="st13" width="14.5" height="1.1"/>
						<rect x="379.5" y="363" class="st12" width="11.9" height="1.1"/>
						<rect x="367.1" y="363" class="st11" width="11" height="1.1"/>
						<rect x="367.1" y="366.1" class="st12" width="11" height="1.1"/>
						<rect x="379.5" y="366.1" class="st11" width="5.6" height="1.1"/>
						<rect x="367.1" y="372" class="st11" width="11" height="1.1"/>
						<rect x="379.5" y="372" class="st12" width="5.6" height="1.1"/>
						<rect x="391.5" y="369" class="st12" width="4" height="1.1"/>
						<rect x="367.1" y="359.5" class="st14" width="23.7" height="1.1"/>
						<rect x="367.1" y="369" class="st14" width="23.7" height="1.1"/>
						<rect x="391.5" y="375.5" class="st11" width="4" height="1.1"/>
						<rect x="367.1" y="375.5" class="st11" width="23.7" height="1.1"/>
						<rect x="407.5" y="363.4" class="st12" width="9.6" height="1.1"/>
						<rect x="397.4" y="363.4" class="st11" width="8.9" height="1.1"/>
						<rect x="397.4" y="366.5" class="st12" width="8.9" height="1.1"/>
						<rect x="407.5" y="366.5" class="st11" width="4.5" height="1.1"/>
						<rect x="397.4" y="372.4" class="st11" width="8.9" height="1.1"/>
						<rect x="407.5" y="372.4" class="st12" width="4.5" height="1.1"/>
						<rect x="397.4" y="359.9" class="st14" width="19.2" height="1.1"/>
						<rect x="397.4" y="369.4" class="st14" width="19.2" height="1.1"/>
						<rect x="397.4" y="375.9" class="st11" width="19.2" height="1.1"/>
						<rect x="361.8" y="318.2" class="st15" width="57.6" height="10.3"/>
						<path class="st16" d="M391.5,322.6c0,1.3-0.6,2.3-1.3,2.3h-24.8c-0.7,0-1.3-1-1.3-2.3l0,0c0-1.3,0.6-2.3,1.3-2.3h24.8
							C391,320.3,391.5,321.3,391.5,322.6L391.5,322.6z"/>
						<ellipse class="st17" cx="410.9" cy="321.8" rx="0.8" ry="1.5"/>
						<ellipse class="st18" cx="413.5" cy="321.8" rx="0.8" ry="1.5"/>
						<ellipse class="st19" cx="416.4" cy="321.8" rx="0.8" ry="1.5"/>
						<polygon class="st22" points="419.4,318.4 418.3,318.4 361.8,399 361.8,402.4 419.4,402.4 						"/>
					</g>
					<g id="Web">
						<path class="st23" d="M291.8,144.9c0,3.7-2,6.6-4.5,6.6H177.8c-2.5,0-4.5-3-4.5-6.6V27.3c0-3.7,2-6.6,4.5-6.6h109.5
							c2.5,0,4.5,3,4.5,6.6L291.8,144.9z"/>
						<path class="st15" d="M287.3,0H177.8c-2.5,0-4.5,2.7-4.5,6v23.3h118.6V6C291.8,2.7,289.8,0,287.3,0z"/>
						<ellipse class="st17" cx="270.7" cy="4.8" rx="2.3" ry="2.5"/>
						<ellipse class="st18" cx="278.3" cy="4.8" rx="2.3" ry="2.5"/>
						<ellipse class="st19" cx="286.1" cy="4.8" rx="2.3" ry="2.5"/>
						<path class="st16" d="M255.5,7.8c0.1,2-1.5,3.7-3.5,3.8h-69.3c-2-0.1-3.6-1.8-3.5-3.8l0,0c-0.1-2,1.5-3.7,3.5-3.8H252
							C254,4.1,255.6,5.8,255.5,7.8z"/>
						<rect x="182.3" y="39.4" class="st8" width="25.2" height="25.2"/>
						<rect x="219.9" y="39.4" class="st9" width="25.2" height="25.2"/>
						<rect x="255.8" y="39.4" class="st10" width="25.2" height="25.2"/>
						<rect x="183.8" y="73.5" class="st11" width="28.8" height="1.4"/>
						<rect x="183.8" y="77.8" class="st12" width="28.8" height="1.4"/>
						<rect x="183.8" y="81.8" class="st13" width="28.8" height="1.4"/>
						<rect x="183.8" y="118.8" class="st11" width="28.8" height="1.4"/>
						<rect x="183.8" y="114.1" class="st11" width="28.8" height="1.4"/>
						<rect x="183.8" y="123.7" class="st11" width="28.8" height="1.4"/>
						<rect x="218.2" y="90.9" class="st12" width="28.8" height="1.4"/>
						<rect x="187.8" y="90.9" class="st11" width="28.8" height="1.4"/>
						<rect x="187.8" y="94.9" class="st12" width="28.8" height="1.4"/>
						<rect x="218.2" y="94.9" class="st11" width="13.5" height="1.4"/>
						<rect x="187.8" y="102.6" class="st11" width="28.8" height="1.4"/>
						<rect x="218.2" y="102.6" class="st12" width="13.5" height="1.4"/>
						<rect x="252.6" y="98.7" class="st12" width="13.5" height="1.4"/>
						<rect x="187.8" y="86.3" class="st14" width="62.2" height="1.4"/>
						<rect x="187.8" y="98.7" class="st14" width="62.2" height="1.4"/>
						<rect x="252.6" y="107.1" class="st11" width="13.5" height="1.4"/>
						<rect x="187.8" y="107.1" class="st11" width="62.2" height="1.4"/>
						<rect x="248.6" y="127.6" class="st24" width="13.5" height="1.4"/>
						<rect x="183.8" y="127.6" class="st25" width="62.2" height="1.4"/>
						<path class="st22" d="M287.3,0h-54.7v151.6h54.7c2.5,0,4.5-3,4.5-6.6V6C291.8,2.7,289.8,0,287.3,0z"/>
					</g>
					<g id="Tablet">
						<g id="Acces">
							<g id="Tablet-2">
								<path class="st15" d="M194.9,397.1c0,14-1.9,13.2-15.9,13.2H15.4C1.4,410.4,0,409.1,0,395V285.4c0-14,2.9-14.8,16.9-14.8
									l157.3-0.2c14,0,20.5-2.8,20.5,11.3L194.9,397.1z"/>
								<rect x="12.1" y="283.6" class="st26" width="170.7" height="113.4"/>
							</g>
						</g>
						<rect x="22.4" y="307.1" class="st8" width="26.8" height="26.8"/>
						<rect x="86.8" y="307.1" class="st9" width="26.8" height="26.8"/>
						<rect x="144" y="307.1" class="st10" width="26.8" height="26.8"/>
						<rect x="22.4" y="339.5" class="st11" width="42.9" height="2"/>
						<rect x="22.4" y="345.4" class="st12" width="42.9" height="2"/>
						<rect x="22.4" y="350.8" class="st13" width="42.9" height="2"/>
						<rect x="64.7" y="363.2" class="st12" width="35.3" height="2"/>
						<rect x="27.8" y="363.2" class="st11" width="32.5" height="2"/>
						<rect x="27.8" y="368.6" class="st12" width="32.5" height="2"/>
						<rect x="64.7" y="368.6" class="st11" width="16.5" height="2"/>
						<rect x="27.8" y="379.1" class="st11" width="32.5" height="2"/>
						<rect x="64.7" y="379.1" class="st12" width="16.5" height="2"/>
						<rect x="100.3" y="373.8" class="st12" width="11.8" height="2"/>
						<rect x="27.8" y="356.9" class="st14" width="70.3" height="2"/>
						<rect x="27.8" y="373.8" class="st14" width="70.3" height="2"/>
						<rect x="100.3" y="385.3" class="st11" width="11.8" height="2"/>
						<rect x="27.8" y="385.3" class="st11" width="70.3" height="2"/>
						<rect x="147.5" y="363.9" class="st12" width="28.5" height="2"/>
						<rect x="117.7" y="363.9" class="st11" width="26.3" height="2"/>
						<rect x="117.7" y="369.3" class="st12" width="26.3" height="2"/>
						<rect x="147.5" y="369.3" class="st11" width="13.4" height="2"/>
						<rect x="117.7" y="379.8" class="st11" width="26.3" height="2"/>
						<rect x="147.5" y="379.8" class="st12" width="13.4" height="2"/>
						<rect x="117.7" y="357.6" class="st14" width="56.8" height="2"/>
						<rect x="117.7" y="374.5" class="st14" width="56.8" height="2"/>
						<rect x="117.7" y="386" class="st11" width="56.8" height="2"/>
						<rect x="12.1" y="283.6" class="st15" width="170.7" height="18.3"/>
						<path class="st16" d="M100.2,291.4c0.1,2.2-1.6,4-3.7,4.1H22.9c-2.2-0.1-3.8-1.9-3.7-4.1l0,0c-0.1-2.2,1.6-4,3.7-4.1h73.5
							C98.6,287.4,100.3,289.3,100.2,291.4L100.2,291.4z"/>
						<ellipse class="st17" cx="157.4" cy="290" rx="2.4" ry="2.6"/>
						<ellipse class="st18" cx="165.4" cy="290" rx="2.4" ry="2.6"/>
						<ellipse class="st19" cx="173.7" cy="290" rx="2.4" ry="2.6"/>
					</g>
				</g>
			</g>
		</g>
	</g>
</g>
</svg>
