<svg xmlns="http://www.w3.org/2000/svg" xmlns:xlink="http://www.w3.org/1999/xlink" viewBox="0 0 528 533.31"><defs><style>.cls-1{fill:none;}.cls-2{clip-path:url(#clip-path);}.cls-3{fill:#f26761;}.cls-4{fill:#34495e;}.cls-11,.cls-15,.cls-36,.cls-38,.cls-5{fill:#fff;}.cls-5{opacity:0.8;}.cls-6{fill:#1abc9c;}.cls-7{fill:#f4bd42;}.cls-8{fill:#f7c7b0;}.cls-9{fill:#586771;}.cls-10{fill:#00bb83;}.cls-11,.cls-41{opacity:0.3;}.cls-12,.cls-26,.cls-38{opacity:0.2;}.cls-13{fill:#fc5454;}.cls-14,.cls-15{opacity:0.4;}.cls-16{opacity:0.5;}.cls-17{fill:#00c6f6;}.cls-18{fill:#3f3f3f;}.cls-19{fill:#20c9a9;}.cls-20{fill:#4c4c4c;}.cls-21{fill:#fffab7;}.cls-22{fill:#ededed;}.cls-23{fill:#88604a;}.cls-24{fill:#785741;}.cls-25{fill:#494949;}.cls-26{fill:#020202;}.cls-27{fill:#6fd3d8;}.cls-28{fill:#0aa5a5;}.cls-29{fill:#fa4000;}.cls-30{fill:#0068e3;}.cls-31{fill:#f95061;}.cls-32{fill:#60fa00;}.cls-33{fill:#d1d3d3;}.cls-34{opacity:0.1;}.cls-35{fill:#0c4670;}.cls-36{opacity:0.6;}.cls-37{fill:#ed3393;}.cls-39{fill:#213b51;}.cls-40{fill:#cecece;}.cls-42{fill:#3a3939;}</style><clipPath id="clip-path" transform="translate(0 -189.31)"><rect class="cls-1" x="90" width="1366" height="664"/></clipPath></defs><title>Asset Gateway 1</title><g id="Layer_2" data-name="Layer 2"><g id="Layer_1-2" data-name="Layer 1"><g class="cls-2"><circle id="Background_2" data-name="Background 2" class="cls-3" cx="264" cy="264.19" r="264"/><g id="Application_Maker" data-name="Application Maker"><g id="Tablet"><path class="cls-4" d="M395.07,551.46c0,17.6-2.32,16.6-19.91,16.6H170.06c-17.6,0-19.25-1.65-19.25-19.25V411.41c0-17.6,3.64-18.58,21.24-18.58l197.14-.2c17.59,0,25.71-3.5,25.71,14.1Z" transform="translate(0 -189.31)"/><path class="cls-5" d="M380.47,542.94c0,15.49-2,14.61-17.53,14.61H182.36c-15.49,0-16.95-1.45-16.95-16.95v-121c0-15.49,3.2-16.36,18.7-16.36l173.57-.17c15.49,0,22.63-3.08,22.63,12.41Z" transform="translate(0 -189.31)"/><path class="cls-6" d="M207.89,530.89a13.28,13.28,0,0,1-13.27,13.28h0a13.28,13.28,0,0,1-13.28-13.28V432a13.28,13.28,0,0,1,13.28-13.28h0A13.28,13.28,0,0,1,207.89,432Z" transform="translate(0 -189.31)"/><rect class="cls-7" x="225.15" y="234.71" width="94.25" height="114.83"/><path class="cls-6" d="M328,424v19.25h42.48V424Zm39.5,17.26H330.69V426h36.84Z" transform="translate(0 -189.31)"/><rect class="cls-6" x="328.03" y="268.34" width="42.48" height="19.25"/><rect class="cls-6" x="328.03" y="303.3" width="42.48" height="19.25"/><rect class="cls-6" x="328.03" y="330.62" width="42.48" height="19.25"/><path class="cls-8" d="M76.46,625.4l12.61-57.09s.66-9.29,17.26-25.89,44.47-52.77,44.47-52.77v49.84L138.2,562.67l35.18-40.16s23.9-12,20.06,14.57c0,0-30,42.52-30.68,45.83s-1.33,20.58-14.6,39.16-13.94,24.56-13.94,24.56l-2.66,4Z" transform="translate(0 -189.31)"/><path class="cls-9" d="M68.5,622.74l73.68,27.87s-6,28.54-15.93,53.1S32,721.64,32,721.64l8-26.55Z" transform="translate(0 -189.31)"/><path class="cls-10" d="M142.18,650.62,68.5,622.74l-6.55,16.6,76,28.52C140.69,657.71,142.18,650.62,142.18,650.62Z" transform="translate(0 -189.31)"/><path class="cls-11" d="M172,526.11l18.16,13.38S196.26,513.05,172,526.11Z" transform="translate(0 -189.31)"/><path class="cls-12" d="M142.18,650.62l-37.52-14.2L73.23,722c22.94-1.26,47.87-5.61,53-18.29,9.52-23.49,15.4-50.62,15.89-52.93C142.16,650.69,142.18,650.62,142.18,650.62Z" transform="translate(0 -189.31)"/><path class="cls-8" d="M469.41,625.56l-12.61-57.08s-.67-9.29-17.26-25.89-44.47-52.77-44.47-52.77v49.84l12.61,23.17L372.5,522.67s-24.37-13-20.08,14.53c0,0,30,42.55,30.71,45.87s1.33,20.58,14.6,39.16,13.94,24.56,13.94,24.56l2.66,4Z" transform="translate(0 -189.31)"/><path class="cls-9" d="M477.38,622.9,403.7,650.78s6,28.54,15.93,53.1,94.25,17.92,94.25,17.92l-8-26.55Z" transform="translate(0 -189.31)"/><path class="cls-10" d="M403.7,650.78l73.68-27.88,6.55,16.6-76,28.53C405.19,657.88,403.7,650.78,403.7,650.78Z" transform="translate(0 -189.31)"/><path class="cls-11" d="M373.83,526.27l-18.16,13.38S349.62,513.22,373.83,526.27Z" transform="translate(0 -189.31)"/><path class="cls-12" d="M403.7,650.78l37.52-14.2,31.42,85.59c-22.94-1.26-47.87-5.61-53-18.29-9.52-23.49-15.4-50.62-15.9-52.93Z" transform="translate(0 -189.31)"/></g><g id="Setting"><g id="Setting_2" data-name="Setting 2"><path class="cls-13" d="M74,319.28l.13-.14,39-47.55a4.31,4.31,0,0,0-.6-6.07l-5-4.1a4.31,4.31,0,0,0-6.07.6l-39,47.55-.12.16A23,23,0,0,0,34.2,342.34l14.88-18.17a4.31,4.31,0,0,1,6.07-.6L61.83,329a4.32,4.32,0,0,1,.6,6.07L47.54,353.28a23,23,0,0,0,26.45-34Z" transform="translate(0 -189.31)"/><path class="cls-14" d="M67.25,328.38l-12.06-9.88a4.31,4.31,0,0,0-6.07.6l-16.38,20a23.08,23.08,0,0,0,1.46,3.26l14.88-18.17a4.31,4.31,0,0,1,6.07-.6L61.83,329a4.32,4.32,0,0,1,.6,6.07L47.54,353.28a23.17,23.17,0,0,0,4.16.88l16.15-19.71A4.31,4.31,0,0,0,67.25,328.38Z" transform="translate(0 -189.31)"/><path class="cls-15" d="M113.22,266.31a4.39,4.39,0,0,0-.74-.79l-5-4.1a4.39,4.39,0,0,0-.92-.57L66.36,309.9c-1.72,2.1-1.62,5,.22,6.54s4.73,1,6.46-1.08Z" transform="translate(0 -189.31)"/><circle class="cls-16" cx="105.78" cy="268.8" r="3.55" transform="translate(-169.21 -8.97) rotate(-50.69)"/></g><g id="Setting1"><path class="cls-17" d="M111.5,311.77l-.13.15L73.63,360.43a4.31,4.31,0,0,0,.76,6.05l5.11,4a4.32,4.32,0,0,0,6.05-.76l37.74-48.52.11-.16a23,23,0,0,0,27.3-33.32l-14.42,18.53a4.31,4.31,0,0,1-6.05.76l-6.81-5.3a4.31,4.31,0,0,1-.76-6.05l14.42-18.53a23,23,0,0,0-25.58,34.66Z" transform="translate(0 -189.31)"/><path class="cls-14" d="M118,302.51l12.31,9.58a4.31,4.31,0,0,0,6.05-.76l15.87-20.4a23,23,0,0,0-1.54-3.22l-14.42,18.53a4.31,4.31,0,0,1-6.05.76l-6.81-5.3a4.31,4.31,0,0,1-.76-6.05l14.42-18.53a23,23,0,0,0-4.18-.78l-15.65,20.11A4.32,4.32,0,0,0,118,302.51Z" transform="translate(0 -189.31)"/><path class="cls-15" d="M73.62,365.71a4.37,4.37,0,0,0,.77.78l5.11,4a4.37,4.37,0,0,0,.94.55l38.94-50c1.67-2.15,1.5-5.08-.38-6.54s-4.76-.91-6.43,1.23Z" transform="translate(0 -189.31)"/><circle class="cls-16" cx="81" cy="363.03" r="3.55" transform="translate(-255.28 14.74) rotate(-52.12)"/></g></g><g id="Document"><path class="cls-18" d="M243.92,291S246.83,276,247.62,276s3.71.44,15.88,3.53,22.5,5.73,22.5,5.73,4.5,1.32,5.56-1.72.53-3,6.62-1.46,15.35,4.24,15.35,4.24,2.91,1.06,2.91,3.18v3.71l9.53,2.38s3.7.79,1.85,7.15-22.76,79.4-22.76,79.4Z" transform="translate(0 -189.31)"/><path class="cls-19" d="M242.33,289.46s2.91-15.09,3.71-15.09,3.7.44,15.88,3.53,22.5,5.73,22.5,5.73,4.5,1.32,5.56-1.72.53-3,6.62-1.46,15.35,4.24,15.35,4.24,2.91,1.06,2.91,3.18v3.71l9.53,2.38s3.7.79,1.85,7.15-22.76,79.4-22.76,79.4Z" transform="translate(0 -189.31)"/><path class="cls-20" d="M306.62,376.63l-15.06-71.29s.79-3.18-4.24-5a34.9,34.9,0,0,0-7.94-2.12,6.15,6.15,0,0,0-4.59-6.88c-5.47-1.59-21.62-6.62-21.62-6.62l-2.38,1.59v1.85l-31.49-9.79-3.09,1.15,18.44,67.4,70.4,35.2Z" transform="translate(0 -189.31)"/><path class="cls-21" d="M305.06,382.09l-15.88-75.16s.79-3.18-4.23-5a34.94,34.94,0,0,0-7.94-2.12,6.15,6.15,0,0,0-4.59-6.88c-5.47-1.59-21.61-6.62-21.61-6.62l-2.38,3.44-31.49-9.79s-1.59-2.65,0,5,15.35,63.52,15.35,63.52Z" transform="translate(0 -189.31)"/></g><g id="Cup"><path class="cls-22" d="M467.6,430.9A41.91,41.91,0,1,0,480,492.71a5.81,5.81,0,0,0,.83.6l10.73,6.14a5.86,5.86,0,1,0,5.82-10.17l-10.72-6.14a5.8,5.8,0,0,0-1-.45A41.88,41.88,0,0,0,467.6,430.9Z" transform="translate(0 -189.31)"/><circle class="cls-23" cx="446.78" cy="467.28" r="34.62" transform="translate(-180.72 433.56) rotate(-60.21)"/><circle class="cls-24" cx="446.78" cy="467.28" r="19.44" transform="translate(-180.7 433.61) rotate(-60.22)"/><path class="cls-12" d="M420.72,444.47a34.63,34.63,0,0,0,8.85,52.85,34.55,34.55,0,0,0,8.25,3.36C431,489.5,421.23,469.34,420.72,444.47Z" transform="translate(0 -189.31)"/></g><g id="Calculator"><g id="Body"><path class="cls-25" d="M407,68.86h61.57A5.36,5.36,0,0,1,474,74.22V151a5.35,5.35,0,0,1-5.35,5.35H407a5.35,5.35,0,0,1-5.35-5.35V74.22A5.35,5.35,0,0,1,407,68.86Z"/><path class="cls-26" d="M468.61,258.17H407a5.35,5.35,0,0,0-5.36,5.35v17.85H474V263.53A5.35,5.35,0,0,0,468.61,258.17Z" transform="translate(0 -189.31)"/></g><g id="Button"><rect class="cls-27" x="407.78" y="75.71" width="60.09" height="11.75"/><path class="cls-27" d="M418.19,287.68a2.4,2.4,0,0,1-2.4,2.4H412a2.4,2.4,0,0,1-2.4-2.4h0a2.4,2.4,0,0,1,2.4-2.4h3.79a2.4,2.4,0,0,1,2.4,2.4Z" transform="translate(0 -189.31)"/><path class="cls-27" d="M429.12,287.85a2.4,2.4,0,0,1-2.4,2.4h-3.79a2.4,2.4,0,0,1-2.4-2.4h0a2.4,2.4,0,0,1,2.4-2.4h3.79a2.4,2.4,0,0,1,2.4,2.4Z" transform="translate(0 -189.31)"/><path class="cls-27" d="M440.33,287.85a2.4,2.4,0,0,1-2.4,2.4h-3.79a2.4,2.4,0,0,1-2.4-2.4h0a2.4,2.4,0,0,1,2.4-2.4h3.79a2.4,2.4,0,0,1,2.4,2.4Z" transform="translate(0 -189.31)"/><path class="cls-28" d="M458.86,300.86a3.93,3.93,0,0,1-3.93,3.93h-6.22a3.93,3.93,0,0,1-3.93-3.93h0a3.93,3.93,0,0,1,3.93-3.93h6.22a3.93,3.93,0,0,1,3.93,3.93Z" transform="translate(0 -189.31)"/><path class="cls-28" d="M458.86,313.31a3.93,3.93,0,0,1-3.93,3.93h-6.22a3.93,3.93,0,0,1-3.93-3.93h0a3.93,3.93,0,0,1,3.93-3.93h6.22a3.93,3.93,0,0,1,3.93,3.93Z" transform="translate(0 -189.31)"/><path class="cls-28" d="M458.86,325.47a3.93,3.93,0,0,1-3.93,3.93h-6.22a3.93,3.93,0,0,1-3.93-3.93h0a3.93,3.93,0,0,1,3.93-3.93h6.22a3.93,3.93,0,0,1,3.93,3.93Z" transform="translate(0 -189.31)"/><path class="cls-28" d="M458.86,337.63a3.93,3.93,0,0,1-3.93,3.93h-6.22a3.93,3.93,0,0,1-3.93-3.93h0a3.93,3.93,0,0,1,3.93-3.93h6.22a3.93,3.93,0,0,1,3.93,3.93Z" transform="translate(0 -189.31)"/><path class="cls-27" d="M451.38,287.68a2.4,2.4,0,0,1-2.4,2.4h-3.79a2.4,2.4,0,0,1-2.4-2.4h0a2.4,2.4,0,0,1,2.4-2.4H449a2.4,2.4,0,0,1,2.4,2.4Z" transform="translate(0 -189.31)"/><path class="cls-27" d="M469.34,300.86a2.4,2.4,0,0,1-2.4,2.4h-3.79a2.4,2.4,0,0,1-2.4-2.4h0a2.4,2.4,0,0,1,2.4-2.4h3.79a2.4,2.4,0,0,1,2.4,2.4Z" transform="translate(0 -189.31)"/><path class="cls-27" d="M469,313.5a2.4,2.4,0,0,1-2.4,2.4h-3.79a2.4,2.4,0,0,1-2.4-2.4h0a2.4,2.4,0,0,1,2.4-2.4h3.79a2.4,2.4,0,0,1,2.4,2.4Z" transform="translate(0 -189.31)"/><path class="cls-27" d="M469.34,325.47a2.4,2.4,0,0,1-2.4,2.4h-3.79a2.4,2.4,0,0,1-2.4-2.4h0a2.4,2.4,0,0,1,2.4-2.4h3.79a2.4,2.4,0,0,1,2.4,2.4Z" transform="translate(0 -189.31)"/><path class="cls-29" d="M469.34,337.63a2.4,2.4,0,0,1-2.4,2.4h-3.79a2.4,2.4,0,0,1-2.4-2.4h0a2.4,2.4,0,0,1,2.4-2.4h3.79a2.4,2.4,0,0,1,2.4,2.4Z" transform="translate(0 -189.31)"/><path class="cls-30" d="M458.42,286.57a1.28,1.28,0,0,1-1.28,1.28h-2a1.28,1.28,0,0,1-1.28-1.28h0a1.28,1.28,0,0,1,1.28-1.28h2a1.28,1.28,0,0,1,1.28,1.28Z" transform="translate(0 -189.31)"/><path class="cls-31" d="M464.66,286.57a1.28,1.28,0,0,1-1.28,1.28h-2a1.28,1.28,0,0,1-1.28-1.28h0a1.28,1.28,0,0,1,1.28-1.28h2a1.28,1.28,0,0,1,1.28,1.28Z" transform="translate(0 -189.31)"/><path class="cls-32" d="M470.63,286.57a1.28,1.28,0,0,1-1.29,1.28h-2a1.28,1.28,0,0,1-1.28-1.28h0a1.28,1.28,0,0,1,1.28-1.28h2a1.28,1.28,0,0,1,1.29,1.28Z" transform="translate(0 -189.31)"/><circle class="cls-33" cx="412.24" cy="111.55" r="3.72"/><circle class="cls-33" cx="412.24" cy="124.19" r="3.72"/><circle class="cls-33" cx="412.24" cy="136.16" r="3.72"/><circle class="cls-33" cx="412.24" cy="148.5" r="3.72"/><circle class="cls-33" cx="424.38" cy="124.19" r="3.72"/><circle class="cls-33" cx="424.38" cy="136.16" r="3.72"/><circle class="cls-33" cx="424.38" cy="148.5" r="3.72"/><circle class="cls-33" cx="436.62" cy="124" r="3.72"/><circle class="cls-33" cx="436.62" cy="135.97" r="3.72"/><circle class="cls-33" cx="436.62" cy="148.31" r="3.72"/><circle class="cls-33" cx="424.38" cy="111.55" r="3.72"/><circle class="cls-33" cx="436.62" cy="111.55" r="3.72"/><path class="cls-34" d="M468,258.17h-30.2v87.46H468c3.28,0,5.94-2.4,5.94-5.35V263.53C474,260.57,471.31,258.17,468,258.17Z" transform="translate(0 -189.31)"/></g></g><g id="Glass"><path class="cls-35" d="M246.24,201s-29.43,6.38-31.93,16,2.94,8.51,6.74,3.44,19.77-13,25.19-14.27S246.24,201,246.24,201Z" transform="translate(0 -189.31)"/><path class="cls-35" d="M266.66,201s29.43,6.38,31.93,16-2.94,8.51-6.74,3.44-19.77-13-25.19-14.27S266.66,201,266.66,201Z" transform="translate(0 -189.31)"/><path class="cls-35" d="M325.37,206.13a5.15,5.15,0,0,1-5.15,5.15H193.94a5.15,5.15,0,0,1-5.15-5.15h0a5.15,5.15,0,0,1,5.15-5.15H320.22a5.15,5.15,0,0,1,5.15,5.15Z" transform="translate(0 -189.31)"/><path class="cls-36" d="M229.93,231.08H203.85c-18.47-2.72-12.5-28.8-12.5-28.8,11.14-15.76,40.82-12.62,52-1.21C243.31,201.07,244.6,230,229.93,231.08Z" transform="translate(0 -189.31)"/><path class="cls-35" d="M246.21,200c-12.28-12.58-44.88-16.09-57.42,1a3.66,3.66,0,0,0-6.4,2.42v4.9a3.66,3.66,0,0,0,5.14,3.34c.05,8.63,2.57,19.8,14.89,21.61h28.94C247.64,232,246.21,200,246.21,200Zm-16.28,31.13H203.85c-18.47-2.72-12.5-28.8-12.5-28.8,11.14-15.76,40.82-12.62,52-1.21C243.31,201.07,244.6,230,229.93,231.08Z" transform="translate(0 -189.31)"/><path class="cls-36" d="M280.56,231.26h26.08c18.47-2.72,12.5-28.8,12.5-28.8-11.14-15.76-40.82-12.62-52-1.21C267.18,201.26,265.89,230.18,280.56,231.26Z" transform="translate(0 -189.31)"/><path class="cls-35" d="M279.13,233.44h28.94c12.32-1.81,14.84-13,14.89-21.61a3.66,3.66,0,0,0,5.14-3.34v-4.9a3.66,3.66,0,0,0-6.41-2.42c-12.54-17.12-45.13-13.61-57.42-1C264.28,200.13,262.85,232.23,279.13,233.44Zm-11.95-32.18c11.14-11.41,40.82-14.54,52,1.21,0,0,6,26.08-12.5,28.8H280.56C265.89,230.18,267.18,201.26,267.18,201.26Z" transform="translate(0 -189.31)"/><path class="cls-37" d="M187.75,207.28a2.14,2.14,0,0,1-2.14,2.14h0a2.14,2.14,0,0,1-2.14-2.14v-2.72a2.14,2.14,0,0,1,2.14-2.14h0a2.14,2.14,0,0,1,2.14,2.14Z" transform="translate(0 -189.31)"/><path class="cls-37" d="M326.46,207.28a2.14,2.14,0,0,1-2.14,2.14h0a2.14,2.14,0,0,1-2.14-2.14v-2.72a2.14,2.14,0,0,1,2.14-2.14h0a2.14,2.14,0,0,1,2.14,2.14Z" transform="translate(0 -189.31)"/><path class="cls-38" d="M249.22,205s6-4.35,11.68,0v3.71H249.22Z" transform="translate(0 -189.31)"/></g><g id="Phone"><path class="cls-39" d="M83.58,431a.83.83,0,0,1-.83.83h0a.83.83,0,0,1-.83-.83v-5.36a.83.83,0,0,1,.83-.83h0a.83.83,0,0,1,.83.83Z" transform="translate(0 -189.31)"/><path class="cls-39" d="M83.58,440.08a.83.83,0,0,1-.83.83h0a.83.83,0,0,1-.83-.83v-5.35a.83.83,0,0,1,.83-.83h0a.83.83,0,0,1,.83.83Z" transform="translate(0 -189.31)"/><path class="cls-39" d="M129.78,439.09a.84.84,0,0,1-.83.83h0a.83.83,0,0,1-.83-.83v-5.35a.83.83,0,0,1,.83-.83h0a.83.83,0,0,1,.83.83Z" transform="translate(0 -189.31)"/><rect class="cls-4" x="82.96" y="230.18" width="46.04" height="76.32" rx="4.43" ry="4.43"/><rect class="cls-40" x="87.52" y="236.56" width="36.92" height="59.16"/><path class="cls-11" d="M112.7,490.14a3.45,3.45,0,0,1-3.45,3.45H102.6a3.45,3.45,0,0,1-3.45-3.45h0a3.45,3.45,0,0,1,3.45-3.44h6.65a3.45,3.45,0,0,1,3.45,3.44Z" transform="translate(0 -189.31)"/><path class="cls-41" d="M107.34,422.38a.56.56,0,0,1-.56.56H98.9a.56.56,0,0,1-.56-.56h0a.56.56,0,0,1,.56-.56h7.89a.56.56,0,0,1,.56.56Z" transform="translate(0 -189.31)"/><path class="cls-41" d="M110,422.38a.56.56,0,0,1-.56.56h-.52a.55.55,0,0,1-.56-.56h0a.55.55,0,0,1,.56-.56h.52a.56.56,0,0,1,.56.56Z" transform="translate(0 -189.31)"/><path class="cls-6" d="M107.89,446.51l2.49,2.5-8.17,8.15-2.49-2.5c-1.43,1.66-1.86,3.62-.93,4.56l.61.61c1,1,3.23.43,5-1.3l7.39-7.37c1.73-1.73,2.31-4,1.31-5l-.61-.61C111.52,444.66,109.55,445.08,107.89,446.51Z" transform="translate(0 -189.31)"/><path class="cls-42" d="M97.34,465A3.73,3.73,0,0,1,98,465a1.22,1.22,0,0,1,.82.22.62.62,0,0,1,.25.53.71.71,0,0,1-.5.66h0a.77.77,0,0,1,.61.75.81.81,0,0,1-.25.6,1.49,1.49,0,0,1-1,.28,4.09,4.09,0,0,1-.59,0Zm.38,1.22h.35c.41,0,.65-.21.65-.5s-.27-.49-.66-.49a1.61,1.61,0,0,0-.34,0Zm0,1.43.32,0c.4,0,.77-.15.77-.58s-.35-.57-.77-.57h-.32Z" transform="translate(0 -189.31)"/><path class="cls-42" d="M101.52,467.4c0,.22,0,.42,0,.58h-.35l0-.35h0a.8.8,0,0,1-.71.4c-.34,0-.74-.18-.74-.94v-1.25h.39V467c0,.41.12.68.48.68a.56.56,0,0,0,.51-.35.51.51,0,0,0,0-.2v-1.32h.39Z" transform="translate(0 -189.31)"/><path class="cls-42" d="M102.11,467.59a1,1,0,0,0,.51.16c.28,0,.42-.14.42-.32s-.11-.29-.4-.39-.57-.35-.57-.6a.66.66,0,0,1,.74-.63,1.08,1.08,0,0,1,.53.13l-.1.28a.81.81,0,0,0-.44-.13c-.23,0-.36.13-.36.29s.13.26.41.36.56.33.56.65-.29.64-.8.64a1.23,1.23,0,0,1-.6-.15Z" transform="translate(0 -189.31)"/><path class="cls-42" d="M104.36,465.24a.23.23,0,0,1-.25.24.23.23,0,0,1-.24-.24.24.24,0,0,1,.24-.25A.23.23,0,0,1,104.36,465.24Zm-.43,2.74v-2.14h.39V468Z" transform="translate(0 -189.31)"/><path class="cls-42" d="M105,466.43c0-.22,0-.4,0-.58h.34l0,.36h0a.79.79,0,0,1,.71-.4c.3,0,.76.18.76.91V468h-.39v-1.23c0-.35-.13-.63-.49-.63a.55.55,0,0,0-.52.4.53.53,0,0,0,0,.18V468H105Z" transform="translate(0 -189.31)"/><path class="cls-42" d="M107.42,466.43c0-.22,0-.4,0-.58h.35l0,.36h0a.79.79,0,0,1,.71-.4c.3,0,.76.18.76.91V468h-.39v-1.23c0-.35-.13-.63-.49-.63a.55.55,0,0,0-.52.4.63.63,0,0,0,0,.18V468h-.39Z" transform="translate(0 -189.31)"/><path class="cls-42" d="M110.09,467a.69.69,0,0,0,.74.74,1.44,1.44,0,0,0,.59-.11l.06.28a1.73,1.73,0,0,1-.71.13,1,1,0,0,1-1.05-1.08,1,1,0,0,1,1-1.16.91.91,0,0,1,.89,1,1.15,1.15,0,0,1,0,.18Zm1.14-.28a.56.56,0,0,0-.54-.63.65.65,0,0,0-.6.63Z" transform="translate(0 -189.31)"/><path class="cls-42" d="M112,467.59a1,1,0,0,0,.51.16c.28,0,.42-.14.42-.32s-.11-.29-.4-.39-.57-.35-.57-.6a.66.66,0,0,1,.74-.63,1.07,1.07,0,0,1,.53.13l-.1.28a.82.82,0,0,0-.44-.13c-.23,0-.36.13-.36.29s.13.26.41.36.56.33.56.65-.29.64-.8.64a1.23,1.23,0,0,1-.6-.15Z" transform="translate(0 -189.31)"/><path class="cls-42" d="M97.72,470.32v3h-.38v-3Z" transform="translate(0 -189.31)"/><path class="cls-42" d="M98.43,471.74c0-.22,0-.4,0-.58h.34l0,.36h0a.79.79,0,0,1,.71-.4c.29,0,.76.18.76.91v1.28h-.39v-1.23c0-.35-.13-.63-.5-.63a.55.55,0,0,0-.52.4.52.52,0,0,0,0,.18v1.29h-.39Z" transform="translate(0 -189.31)"/><path class="cls-42" d="M102.42,473.23a1.49,1.49,0,0,1-.62.12,1,1,0,0,1-1.07-1.1,1.09,1.09,0,0,1,1.15-1.14,1.26,1.26,0,0,1,.54.11l-.09.3a.86.86,0,0,0-.45-.1.74.74,0,0,0-.76.81.73.73,0,0,0,.74.8,1.12,1.12,0,0,0,.48-.11Z" transform="translate(0 -189.31)"/><path class="cls-42" d="M104.79,472.21a1,1,0,0,1-1.07,1.14,1,1,0,0,1-1-1.1,1,1,0,0,1,1.07-1.14A1,1,0,0,1,104.79,472.21Zm-1.7,0c0,.47.27.82.65.82s.65-.35.65-.83-.18-.82-.64-.82S103.08,471.83,103.08,472.24Z" transform="translate(0 -189.31)"/><path class="cls-42" d="M105.28,471.74c0-.22,0-.4,0-.58h.34l0,.35h0a.74.74,0,0,1,.68-.39.64.64,0,0,1,.61.43h0a.91.91,0,0,1,.24-.28.74.74,0,0,1,.47-.15c.28,0,.7.18.7.93v1.26H108v-1.21c0-.41-.15-.66-.47-.66a.5.5,0,0,0-.46.35.73.73,0,0,0,0,.2v1.32h-.38V472c0-.34-.15-.59-.45-.59a.53.53,0,0,0-.48.39.54.54,0,0,0,0,.19v1.29h-.38Z" transform="translate(0 -189.31)"/><path class="cls-42" d="M109.41,470.56a.24.24,0,0,1-.48,0,.24.24,0,0,1,.25-.25A.23.23,0,0,1,109.41,470.56ZM109,473.3v-2.14h.39v2.14Z" transform="translate(0 -189.31)"/><path class="cls-42" d="M110,471.74c0-.22,0-.4,0-.58h.35l0,.36h0a.78.78,0,0,1,.7-.4c.3,0,.76.18.76.91v1.28h-.39v-1.23c0-.35-.13-.63-.49-.63a.55.55,0,0,0-.52.4.52.52,0,0,0,0,.18v1.29H110Z" transform="translate(0 -189.31)"/><path class="cls-42" d="M114.32,471.16c0,.16,0,.33,0,.59V473a1.22,1.22,0,0,1-.31,1,1.12,1.12,0,0,1-.78.26,1.35,1.35,0,0,1-.71-.18l.1-.3a1.18,1.18,0,0,0,.63.17c.4,0,.69-.21.69-.75v-.24h0a.77.77,0,0,1-.68.36,1,1,0,0,1-.91-1,1,1,0,0,1,1-1.14.72.72,0,0,1,.67.37h0l0-.32Zm-.41.85a.6.6,0,0,0,0-.18.56.56,0,0,0-.55-.41c-.37,0-.64.32-.64.81s.21.77.63.77a.57.57,0,0,0,.54-.4.63.63,0,0,0,0-.21Z" transform="translate(0 -189.31)"/><path class="cls-42" d="M99.42,478.52a1.88,1.88,0,0,1-.79.14,1.4,1.4,0,0,1-1.48-1.51,1.49,1.49,0,0,1,1.56-1.57,1.62,1.62,0,0,1,.7.13l-.09.32a1.39,1.39,0,0,0-.6-.13,1.11,1.11,0,0,0-1.17,1.23,1.08,1.08,0,0,0,1.15,1.2,1.52,1.52,0,0,0,.63-.13Z" transform="translate(0 -189.31)"/><path class="cls-42" d="M100.41,477.68l-.31.94h-.4l1-3h.46l1,3h-.41l-.32-.94Zm1-.3-.29-.86c-.06-.2-.11-.37-.16-.55h0c0,.18-.09.36-.15.54l-.29.87Z" transform="translate(0 -189.31)"/><path class="cls-42" d="M102.64,475.64H103v2.66h1.27v.32h-1.66Z" transform="translate(0 -189.31)"/><path class="cls-42" d="M104.73,475.64h.38v2.66h1.28v.32h-1.66Z" transform="translate(0 -189.31)"/><path class="cls-42" d="M107.66,478.39a.26.26,0,1,1,.26.28A.26.26,0,0,1,107.66,478.39Z" transform="translate(0 -189.31)"/><path class="cls-42" d="M108.57,478.39a.26.26,0,0,1,.27-.28.28.28,0,0,1,0,.56A.26.26,0,0,1,108.57,478.39Z" transform="translate(0 -189.31)"/><path class="cls-42" d="M109.49,478.39a.26.26,0,0,1,.27-.28.28.28,0,0,1,0,.56A.26.26,0,0,1,109.49,478.39Z" transform="translate(0 -189.31)"/></g></g></g></g></g></svg>