<svg xmlns="http://www.w3.org/2000/svg" xmlns:xlink="http://www.w3.org/1999/xlink" viewBox="0 0 369.94 408.17"><defs><style>.cls-1,.cls-3{fill:none;}.cls-2{clip-path:url(#clip-path);}.cls-3{stroke:#231f20;stroke-miterlimit:10;}.cls-4{fill:#f6c49f;}.cls-5{fill:#343434;}.cls-6{fill:#ae8d6e;}.cls-7{fill:#fcd8d6;}.cls-8{fill:#f07a75;}.cls-9{fill:#723138;}</style><clipPath id="clip-path" transform="translate(0 -12.7)"><rect class="cls-1" x="0.59" width="368.76" height="368.76" rx="10" ry="10"/></clipPath></defs><title>Asset Profile Pict</title><g id="Layer_2" data-name="Layer 2"><g id="Layer_1-2" data-name="Layer 1"><g class="cls-2"><path class="cls-3" d="M34,196.9h0c0,.21-.11.42-.11.63v.32h0" transform="translate(0 -12.7)"/><path class="cls-4" d="M133,220.4v11.49L174.33,284l44.16-51,.32-13s-28,20.87-41,24.45S133,220.4,133,220.4Z" transform="translate(0 -12.7)"/><path class="cls-1" d="M108.45,148s-.21-2.21-.42-5.69c-.32,1.26-.53,2.53-.74,3.79Z" transform="translate(0 -12.7)"/><path class="cls-5" d="M107.72,161.91c4.64-3,0,0-1.26-6.32-.32-1.69.11-5.16.84-9.59.21-1.16.42-2.42.74-3.79,2.63-12.65,7.27-30,8.12-37,1.26-10.43,9.17-24,22.13-21.08s38.47-5.59,57.34-16,30.57,13.07,30.57,13.07l4.53,10.43c4.53,10.43,6.53,37.1,6.53,49.54s7.17,19.5,11.7,10.33c1.58-3.06,2.21-8.85,2.53-15.49.53-13.17-.74-29.62-1.16-35.31-.63-8.43,1.26-63.13,3.27-63.13s3.27-8.43-13.7-17.6-54.7-8.43-79.47-4.53-33.83,21.5-33.83,21.5-4.53-4.53-17,11.7-11.7,61.24-11.7,61.24c.84,9.27,1.69,17.6,2.42,24.66C102.45,153.37,104.34,164,107.72,161.91Z" transform="translate(0 -12.7)"/><path class="cls-6" d="M175,238.11c-10.54,0-23.61-7.9-37.73-18.76L133,216.08v4.32s31.94,27.61,44.9,24,41-24.45,41-24.45V214.6c-2.11,1.58-4.32,3.27-6.53,4.85C198.78,229,183.07,238.11,175,238.11Z" transform="translate(0 -12.7)"/><path class="cls-4" d="M258.22,141.56a13,13,0,0,0-4.43-8.75l-2.42,3.06c-.21,6.64-.95,12.44-2.53,15.49-4.53,9.06-11.7,2-11.7-10.33s-2-39.1-6.53-49.54l-4.53-10.43S214.38,57.67,195.51,68s-44.37,18.87-57.34,16S117.31,94.66,116,105.1c-.84,7-5.59,24.35-8.12,37,.21,3.48.42,5.69.42,5.69l-1.16-2c-.84,4.43-1.26,8-.84,9.59,1.26,6.32,5.9,3.37,1.26,6.32-3.37,2.11-5.27-8.43-7.27-27.4L98,130.39A13.06,13.06,0,0,0,91,141.67h0V143a22.29,22.29,0,0,0,2.42,10h0c4.43,8.85,13.17,14.12,13.17,14.12s-3.06,24.14,16.34,40.47c3.37,2.85,6.85,5.69,10.22,8.33,1.37,1.16,2.85,2.21,4.22,3.27C151.46,230.1,164.52,238,175.06,238c8.12,0,23.82-9.06,37.31-18.66,2.32-1.58,4.53-3.27,6.53-4.85,7.06-5.38,12.75-10.54,15.28-13.91C242,190.47,246.63,164,246.63,164a58.66,58.66,0,0,0,7.69-9.91h0C256.64,150.31,258.54,145.67,258.22,141.56Z" transform="translate(0 -12.7)"/><path class="cls-7" d="M365.09,393.25c-4.85-27.61-20.24-77.89-38.79-94.86s-107.4-55.12-107.4-55.12l-8.85,78.63L175.27,283,138.91,321.9l-8.85-80.31S37.94,288.59,21,303.24,0,420.76,0,420.76H369.94C369.94,420.87,369.94,420.87,365.09,393.25Z" transform="translate(0 -12.7)"/><polygon class="cls-8" points="218.91 215.61 218.91 230.58 209.95 309.2 175.28 270.31 218.91 215.61"/><polygon class="cls-8" points="133.22 215.61 130.06 229 138.91 309.2 175.28 270.31 133.22 215.61"/><polygon class="cls-9" points="158.09 288.75 166.42 304.35 152.62 408.17 197.09 408.17 184.97 302.77 191.72 288.75 175.28 270.31 158.09 288.75"/></g></g></g></svg>