<?xml version="1.0" encoding="utf-8"?>
<!-- Generator: Adobe Illustrator 21.0.0, SVG Export Plug-In . SVG Version: 6.00 Build 0)  -->
<svg version="1.1" id="Layer_1" xmlns="http://www.w3.org/2000/svg" xmlns:xlink="http://www.w3.org/1999/xlink" x="0px" y="0px"
	 viewBox="0 0 359.4 356.1" style="enable-background:new 0 0 359.4 356.1;" xml:space="preserve">
<style type="text/css">
	.st0{clip-path:url(#SVGID_2_);}
	.st1{fill:none;stroke:#231F20;stroke-miterlimit:10;}
	.st2{fill:#F6C49F;}
	.st3{fill:none;}
	.st4{fill:#343434;}
	.st5{fill:#AE8D6E;}
	.st6{fill:#FCD8D6;}
	.st7{fill:#F07A75;}
	.st8{fill:#723138;}
</style>
<title>Asset Profile Pict</title>
<g id="Layer_2">
	<g id="Layer_1-2">
		<g>
			<defs>
				<path id="SVGID_1_" d="M10.6-12.7h348.8c5.5,0,10,4.5,10,10v348.8c0,5.5-4.5,10-10,10H10.6c-5.5,0-10-4.5-10-10V-2.7
					C0.6-8.2,5.1-12.7,10.6-12.7z"/>
			</defs>
			<clipPath id="SVGID_2_">
				<use xlink:href="#SVGID_1_"  style="overflow:visible;"/>
			</clipPath>
			<g class="st0">
				<path class="st1" d="M34,184.2L34,184.2c0,0.2-0.1,0.4-0.1,0.6v0.3l0,0"/>
				<path class="st2" d="M133,207.7v11.5l41.3,52.1l44.2-51l0.3-13c0,0-28,20.9-41,24.4S133,207.7,133,207.7z"/>
				<path class="st3" d="M108.4,135.3c0,0-0.2-2.2-0.4-5.7c-0.3,1.3-0.5,2.5-0.7,3.8L108.4,135.3z"/>
				<path class="st4" d="M107.7,149.2c4.6-3,0,0-1.3-6.3c-0.3-1.7,0.1-5.2,0.8-9.6c0.2-1.2,0.4-2.4,0.7-3.8c2.6-12.6,7.3-30,8.1-37
					c1.3-10.4,9.2-24,22.1-21.1s38.5-5.6,57.3-16s30.6,13.1,30.6,13.1l4.5,10.4c4.5,10.4,6.5,37.1,6.5,49.5s7.2,19.5,11.7,10.3
					c1.6-3.1,2.2-8.9,2.5-15.5c0.5-13.2-0.7-29.6-1.2-35.3c-0.6-8.4,1.3-63.1,3.3-63.1s3.3-8.4-13.7-17.6s-54.7-8.4-79.5-4.5
					s-33.8,21.5-33.8,21.5s-4.5-4.5-17,11.7S97.9,97.2,97.9,97.2c0.8,9.3,1.7,17.6,2.4,24.7C102.4,140.7,104.3,151.3,107.7,149.2z"
					/>
				<path class="st5" d="M175,225.4c-10.5,0-23.6-7.9-37.7-18.8l-4.3-3.3v4.3c0,0,31.9,27.6,44.9,24s41-24.4,41-24.4v-5.4
					c-2.1,1.6-4.3,3.3-6.5,4.9C198.8,216.3,183.1,225.4,175,225.4z"/>
				<path class="st2" d="M258.2,128.9c-0.3-3.4-1.9-6.5-4.4-8.8l-2.4,3.1c-0.2,6.6-0.9,12.4-2.5,15.5c-4.5,9.1-11.7,2-11.7-10.3
					s-2-39.1-6.5-49.5l-4.5-10.4c0,0-11.7-23.4-30.6-13.1s-44.4,18.9-57.3,16S117.3,82,116,92.4c-0.8,7-5.6,24.3-8.1,37
					c0.2,3.5,0.4,5.7,0.4,5.7l-1.2-2c-0.8,4.4-1.3,8-0.8,9.6c1.3,6.3,5.9,3.4,1.3,6.3c-3.4,2.1-5.3-8.4-7.3-27.4l-2.3-3.9
					c-4.2,2.2-6.9,6.5-7,11.3l0,0v1.3c0,3.5,0.8,6.9,2.4,10l0,0c4.4,8.9,13.2,14.1,13.2,14.1s-3.1,24.1,16.3,40.5
					c3.4,2.9,6.9,5.7,10.2,8.3c1.4,1.2,2.9,2.2,4.2,3.3c14.1,10.9,27.2,18.8,37.7,18.8c8.1,0,23.8-9.1,37.3-18.7
					c2.3-1.6,4.5-3.3,6.5-4.9c7.1-5.4,12.8-10.5,15.3-13.9c7.8-10.1,12.5-36.6,12.5-36.6c2.9-3,5.5-6.3,7.7-9.9l0,0
					C256.6,137.6,258.5,133,258.2,128.9z"/>
				<path class="st6" d="M365.1,380.5c-4.9-27.6-20.2-77.9-38.8-94.9s-107.4-55.1-107.4-55.1l-8.9,78.6l-34.8-38.9l-36.4,38.9
					l-8.9-80.3c0,0-92.1,47-109.1,61.6S0,408.1,0,408.1h369.9C369.9,408.2,369.9,408.2,365.1,380.5z"/>
				<polygon class="st7" points="218.9,215.6 218.9,230.6 209.9,309.2 175.3,270.3 				"/>
				<polygon class="st7" points="133.2,215.6 130.1,229 138.9,309.2 175.3,270.3 				"/>
				<polygon class="st8" points="158.1,288.8 166.4,304.4 152.6,408.2 197.1,408.2 185,302.8 191.7,288.8 175.3,270.3 				"/>
			</g>
		</g>
	</g>
</g>
</svg>
