<svg xmlns="http://www.w3.org/2000/svg" xmlns:xlink="http://www.w3.org/1999/xlink" viewBox="0 0 598.01 593.23"><defs><style>.cls-1{fill:none;}.cls-2{clip-path:url(#clip-path);}.cls-3{fill:#f9b046;}.cls-4{fill:#fff;}.cls-5{fill:#ededed;}.cls-6{fill:#184f78;}.cls-7{opacity:0.2;}.cls-14,.cls-8{fill:#ff3e03;}.cls-9{fill:#0f0f0f;opacity:0.6;}.cls-10{fill:#e8e8e6;}.cls-11{fill:#00eaa6;}.cls-12{opacity:0.4;}.cls-13{opacity:0.7;}.cls-14,.cls-15,.cls-16,.cls-18,.cls-19{fill-rule:evenodd;}.cls-15{fill:#020202;}.cls-15,.cls-20{opacity:0.1;}.cls-16{fill:#fabe00;}.cls-17{fill:#e6e8e8;}.cls-18{fill:#f7d959;}.cls-19{fill:#f9623e;}</style><clipPath id="clip-path" transform="translate(0 -150.05)"><rect class="cls-1" x="40.61" width="1292" height="664.46" rx="10" ry="10"/></clipPath></defs><title>Asset Successfull Message</title><g id="Layer_2" data-name="Layer 2"><g id="Layer_1-2" data-name="Layer 1"><g class="cls-2"><circle id="Background_2" data-name="Background 2" class="cls-3" cx="299.08" cy="276.53" r="276.53"/><g id="Notification_Massage" data-name="Notification Massage"><g id="Line"><rect class="cls-4" x="362.82" y="459.11" width="9.61" height="6.04" transform="translate(-141.58 13.04) rotate(-21.07)"/><rect class="cls-4" x="376.18" y="453.96" width="9.62" height="6.04" transform="translate(-138.84 17.51) rotate(-21.07)"/><rect class="cls-4" x="389.54" y="448.81" width="9.62" height="6.04" transform="translate(-136.09 21.96) rotate(-21.07)"/><rect class="cls-4" x="402.9" y="443.67" width="9.61" height="6.04" transform="translate(-133.4 26.54) rotate(-21.09)"/><rect class="cls-4" x="416.26" y="438.52" width="9.61" height="6.04" transform="translate(-130.53 30.74) rotate(-21.06)"/><rect class="cls-4" x="429.62" y="433.37" width="9.61" height="6.04" transform="translate(-127.91 35.47) rotate(-21.09)"/><rect class="cls-4" x="442.98" y="428.22" width="9.61" height="6.04" transform="translate(-125.11 39.81) rotate(-21.07)"/><rect class="cls-4" x="323.45" y="414.96" width="9.61" height="6.04" transform="translate(-188.04 141.83) rotate(-38.13)"/><rect class="cls-4" x="334.71" y="406.13" width="9.62" height="6.04" transform="translate(-180.12 146.65) rotate(-38.1)"/><rect class="cls-4" x="345.98" y="397.29" width="9.61" height="6.04" transform="translate(-172.31 151.96) rotate(-38.13)"/><rect class="cls-4" x="357.24" y="388.44" width="9.61" height="6.04" transform="translate(-164.45 156.99) rotate(-38.13)"/><rect class="cls-4" x="368.51" y="379.61" width="9.61" height="6.04" transform="translate(-156.59 162.1) rotate(-38.13)"/><rect class="cls-4" x="379.78" y="370.76" width="9.61" height="6.04" transform="translate(-148.73 167.17) rotate(-38.13)"/><rect class="cls-4" x="391.04" y="361.92" width="9.61" height="6.04" transform="translate(-140.87 172.24) rotate(-38.13)"/><rect class="cls-4" x="293.45" y="373.66" width="9.61" height="6.04" transform="translate(-176.23 302.18) rotate(-60.67)"/><rect class="cls-4" x="300.46" y="361.18" width="9.62" height="6.04" transform="translate(-161.81 301.73) rotate(-60.65)"/><rect class="cls-4" x="307.48" y="348.7" width="9.61" height="6.04" transform="translate(-147.35 301.47) rotate(-60.65)"/><rect class="cls-4" x="314.5" y="336.22" width="9.61" height="6.04" transform="translate(-132.86 301.35) rotate(-60.67)"/><rect class="cls-4" x="321.52" y="323.74" width="9.62" height="6.04" transform="translate(-118.48 300.82) rotate(-60.63)"/><rect class="cls-4" x="328.54" y="311.25" width="9.61" height="6.04" transform="translate(-103.91 300.96) rotate(-60.68)"/><rect class="cls-4" x="335.55" y="298.77" width="9.61" height="6.04" transform="translate(-89.45 300.68) rotate(-60.68)"/><path class="cls-5" d="M108.45,530.5l-4.38,4s2.26,2.52,4.67,4.91c1.21,1.2,2.44,2.37,3.39,3.24l1.17,1,.44.38,3.86-4.48-.42-.36-1.07-1c-.89-.81-2.05-1.92-3.2-3.06C110.61,532.92,108.45,530.5,108.45,530.5Z" transform="translate(0 -150.05)"/><path class="cls-5" d="M96.65,515.27l-4.94,3.24L92,519c.2.31.49.76.86,1.28.73,1,1.68,2.46,2.7,3.81,2,2.74,4.16,5.35,4.16,5.35l4.57-3.75s-2.07-2.49-4-5.11c-1-1.29-1.87-2.64-2.58-3.63-.35-.49-.62-.92-.81-1.21Z" transform="translate(0 -150.05)"/><path class="cls-5" d="M87.74,498.48l-5.58,2s.29.81.83,2,1.19,2.76,2,4.29L86.1,509l1.06,1.93,1,1.89,5.15-2.9-1-1.75-1-1.79-1-2.09c-.74-1.41-1.35-2.89-1.84-4S87.74,498.48,87.74,498.48Z" transform="translate(0 -150.05)"/><path class="cls-5" d="M82.8,480.19l-5.93.58s.13.85.31,2.13.56,3,.9,4.64c.16.85.38,1.68.6,2.45l.58,2.12c.16.63.32,1.14.44,1.49l.19.56,5.73-1.54-.17-.52c-.12-.33-.26-.81-.41-1.38l-.54-2c-.2-.72-.42-1.49-.56-2.27-.31-1.56-.71-3.11-.84-4.3Z" transform="translate(0 -150.05)"/><path class="cls-5" d="M83.14,461.27l-5.9-.89L77,462.51c-.09.64-.2,1.38-.3,2.18s-.13,1.66-.2,2.51l-.16,2.52c0,.8,0,1.56,0,2.2,0,1.29,0,2.15,0,2.15l6-.09s0-.8,0-2c0-.6,0-1.3,0-2l.15-2.34c.07-.79.07-1.59.18-2.33s.2-1.43.28-2Z" transform="translate(0 -150.05)"/><path class="cls-5" d="M89.23,443.34l-5.46-2.29L82.83,443l-.95,2L81,447.32l-.91,2.36c-.29.75-.47,1.48-.67,2.09-.37,1.24-.62,2.06-.62,2.06l5.8,1.36.58-1.91c.19-.57.35-1.25.62-1.95l.85-2.18.85-2.18.89-1.84Z" transform="translate(0 -150.05)"/><path class="cls-5" d="M98.55,426.36l-5.13-2.94-3.29,5.79-3.26,5.89,5.25,2.72,3.16-5.72Z" transform="translate(0 -150.05)"/><polygon class="cls-5" points="108.54 259.31 103.46 256.28 96.69 267.73 101.8 270.71 108.54 259.31"/><polygon class="cls-5" points="118.63 242.29 113.53 239.31 106.78 250.71 111.86 253.73 118.63 242.29"/><path class="cls-5" d="M128.41,375.05l-5.2-2.81L120,378c-1.6,2.88-3.26,5.74-3.26,5.74l5.13,2.94s1.66-2.88,3.29-5.8c.82-1.45,1.61-2.92,2.22-4Z" transform="translate(0 -150.05)"/><path class="cls-5" d="M137.32,357.18l-5.38-2.43-.86,1.86c-.5,1.12-1.21,2.6-1.93,4.07s-1.44,2.95-2,4l-.93,1.83,5.26,2.71,1-1.86c.58-1.11,1.32-2.62,2-4.13s1.47-3,2-4.17Z" transform="translate(0 -150.05)"/><path class="cls-5" d="M144.58,338.42l-5.64-1.77-.63,1.93c-.36,1.16-.91,2.69-1.48,4.22s-1.14,3-1.6,4.18l-.75,1.89,5.47,2.26.78-2c.47-1.17,1.1-2.74,1.66-4.34s1.16-3.18,1.53-4.4Z" transform="translate(0 -150.05)"/><path class="cls-5" d="M148.92,318.59l-5.87-.67-.05.55c-.05.35-.12.84-.21,1.44-.18,1.19-.37,2.78-.71,4.36s-.61,3.16-.92,4.34l-.47,2L146.4,332l.5-2.07c.33-1.23.65-2.91,1-4.59s.57-3.38.76-4.65l.22-1.54Z" transform="translate(0 -150.05)"/><path class="cls-5" d="M148.64,298.1l-5.84.88.29,2c.15,1.18.24,2.77.38,4.36s.07,3.19.11,4.38-.07,2-.07,2l5.91.2s0-.86.07-2.15,0-3-.12-4.75-.26-3.45-.41-4.73Z" transform="translate(0 -150.05)"/><path class="cls-5" d="M256.2,523.77l-5.39,1.58s-1.23-3-2.26-6.09c-.52-1.54-1-3.08-1.35-4.26l-.4-1.44-.14-.54,5.61-.91.13.51.37,1.31c.31,1.1.78,2.56,1.28,4C255,520.89,256.2,523.77,256.2,523.77Z" transform="translate(0 -150.05)"/><path class="cls-5" d="M264.39,540.51l-5,2.38-.29-.49c-.19-.31-.45-.75-.74-1.3-.59-1.09-1.42-2.51-2.15-4-1.53-2.91-2.87-5.89-2.87-5.89l5.29-1.83s1.28,2.85,2.74,5.63c.7,1.4,1.49,2.76,2.05,3.8.28.52.53.94.71,1.24Z" transform="translate(0 -150.05)"/><path class="cls-5" d="M275.2,555.69l-4.2,3.48s-.58-.62-1.37-1.62-1.9-2.28-2.89-3.64l-1.49-2L264,550.15l-1.19-1.73,4.8-2.7,1.11,1.61,1.14,1.64,1.38,1.84c.91,1.27,1.94,2.46,2.68,3.38S275.2,555.69,275.2,555.69Z" transform="translate(0 -150.05)"/><path class="cls-5" d="M289.07,568.44l-3.1,4.45-1.73-1.27c-1.06-.73-2.34-1.87-3.67-2.94-.67-.53-1.3-1.11-1.89-1.66l-1.61-1.48c-.48-.43-.86-.8-1.11-1.07l-.41-.42,3.86-3.82.38.39c.24.25.59.6,1,1l1.49,1.38c.54.51,1.12,1,1.75,1.54,1.24,1,2.42,2.06,3.4,2.74Z" transform="translate(0 -150.05)"/><path class="cls-5" d="M305.8,577.28,304,582.4l-2-.79-2-.81c-.75-.29-1.51-.7-2.29-1.06l-2.28-1.08c-.72-.36-1.36-.75-1.93-1.06l-1.87-1,2.69-4.7,1.74,1c.52.29,1.12.65,1.79,1l2.12,1c.72.33,1.42.71,2.12,1l1.9.75Z" transform="translate(0 -150.05)"/><path class="cls-5" d="M324.17,581.07l-.39,5.45-2.1-.19-2.16-.2-2.46-.41-2.46-.41c-.79-.13-1.51-.35-2.13-.48l-2.07-.5,1.35-5.27,1.92.46c.58.12,1.25.32,2,.44l2.29.37,2.28.37,2,.18Z" transform="translate(0 -150.05)"/><path class="cls-5" d="M343.13,581.83l.34,5.5-6.52-.17-6.58-.25-.09-5.49,6.4.24Z" transform="translate(0 -150.05)"/><polygon class="cls-5" points="362.4 432.02 362.83 437.52 349.84 437.39 349.46 431.89 362.4 432.02"/><polygon class="cls-5" points="381.73 432.18 382.11 437.69 369.17 437.56 368.74 432.06 381.73 432.18"/><path class="cls-5" d="M401.16,582.77l.18,5.5-6.45-.25c-3.23-.11-6.46-.17-6.46-.17l-.34-5.5s3.26.06,6.52.18c1.63,0,3.27.12,4.49.17Z" transform="translate(0 -150.05)"/><path class="cls-5" d="M420.72,584.29l-.22,5.46-2-.22c-1.2-.14-2.81-.29-4.41-.42s-3.21-.27-4.42-.35l-2-.14-.07-5.49,2.05.14c1.23.08,2.87.2,4.51.36s3.29.29,4.52.43Z" transform="translate(0 -150.05)"/><path class="cls-5" d="M440.34,587.54l-.92,5.34-2-.43c-1.18-.27-2.76-.58-4.35-.86s-3.17-.56-4.37-.74l-2-.31.42-5.44,2.06.32c1.24.19,2.88.45,4.53.77s3.3.61,4.52.9Z" transform="translate(0 -150.05)"/><path class="cls-5" d="M459.62,593.64l-2,5-.5-.22-1.35-.52c-1.12-.43-2.6-1-4.13-1.53s-3-1-4.2-1.36l-1.93-.56,1.22-5.27,2,.6c1.23.34,2.84.89,4.45,1.44s3.2,1.18,4.4,1.63l1.45.56Z" transform="translate(0 -150.05)"/><path class="cls-5" d="M477.45,603.74,474.13,608l-1.6-1.17c-1-.69-2.32-1.53-3.65-2.4s-2.76-1.59-3.79-2.2l-1.78-.91,2.41-4.8,1.92,1c1.12.65,2.63,1.49,4.11,2.38s2.91,1.86,4,2.61Z" transform="translate(0 -150.05)"/></g><g id="Command"><polygon class="cls-6" points="205.21 557.47 157.48 593.23 111.17 490.36 139.21 469.36 205.21 557.47"/><rect class="cls-7" x="152.12" y="615.62" width="22.48" height="109.58" transform="translate(-369.32 81.75) rotate(-36.84)"/><path class="cls-4" d="M357.18,491.95a17,17,0,0,1-3.42,23.86l-289,157.37c-15.91,7.18-21.33-.06-27-7.59L5.7,622.77C.05,615.24-3.48,606.58,5.33,597L245.91,371.85a17,17,0,0,1,23.86,3.42Z" transform="translate(0 -150.05)"/><path class="cls-6" d="M14.89,588.07,5.33,597c-8.81,9.56-5.28,18.22.37,25.75l32.07,42.81c5.64,7.53,11.07,14.77,27,7.59l9.87-5.37Z" transform="translate(0 -150.05)"/><path class="cls-6" d="M245.91,371.85l-15.69,14.69L334.79,526.13l19-10.32a17,17,0,0,0,3.42-23.86L269.77,375.27A17,17,0,0,0,245.91,371.85Z" transform="translate(0 -150.05)"/><path class="cls-7" d="M22.21,644.82l15.55,20.76c5.64,7.53,11.07,14.77,27,7.59l289-157.37a17,17,0,0,0,3.42-23.86l-47.05-62.81Z" transform="translate(0 -150.05)"/></g><g id="Mail"><g id="Envelop"><g id="Envelop-2" data-name="Envelop"><rect class="cls-8" x="375.1" y="470.51" width="80.8" height="86.49" rx="5.12" ry="5.12"/><path class="cls-9" d="M376.93,663.81h79L427,684.51s-23.48,5.33-27.53,2.35-18.57-12.8-18.57-12.8Z" transform="translate(0 -150.05)"/><rect class="cls-10" x="382.85" y="477.7" width="65.3" height="71.49"/><path class="cls-11" d="M376.93,663.81H375.1v38.13a5.12,5.12,0,0,0,5.12,5.12h70.56a5.12,5.12,0,0,0,5.12-5.12V663.81l-40.4,21.62Z" transform="translate(0 -150.05)"/><path class="cls-7" d="M380.22,707.06h70.56a5.12,5.12,0,0,0,5.12-5.12V663.81l-40.4,21.62-39,20A5.09,5.09,0,0,0,380.22,707.06Z" transform="translate(0 -150.05)"/></g><g id="Text" class="cls-12"><rect class="cls-13" x="390.74" y="484.53" width="52.49" height="1.92"/><rect class="cls-13" x="390.74" y="487.94" width="52.49" height="1.92"/><rect class="cls-13" x="390.74" y="491.56" width="52.49" height="1.92"/><rect class="cls-13" x="390.74" y="495.09" width="52.49" height="1.92"/><rect class="cls-13" x="390.74" y="499.57" width="52.49" height="1.92"/><rect class="cls-13" x="390.74" y="504.9" width="52.49" height="1.92"/><rect class="cls-13" x="390.74" y="508.64" width="52.49" height="1.92"/><rect class="cls-13" x="390.74" y="512.16" width="52.49" height="1.92"/><rect class="cls-13" x="390.74" y="516.21" width="52.49" height="1.92"/></g></g><g id="Envelop-3" data-name="Envelop"><g id="Envelop-4" data-name="Envelop"><rect class="cls-8" x="459.33" y="332.8" width="138.68" height="148.44" rx="8.79" ry="8.79"/><path class="cls-9" d="M462.48,557.07H598l-49.56,35.52s-40.28,9.16-47.24,4-31.86-22-31.86-22Z" transform="translate(0 -150.05)"/><rect class="cls-10" x="472.64" y="345.13" width="112.06" height="122.68"/><path class="cls-11" d="M462.48,557.07h-3.15V622.5a8.79,8.79,0,0,0,8.79,8.79H589.22A8.8,8.8,0,0,0,598,622.5V557.07l-69.34,37.11Z" transform="translate(0 -150.05)"/><path class="cls-7" d="M468.13,631.29H589.22A8.8,8.8,0,0,0,598,622.5V557.07l-69.34,37.11-67,34.28A8.74,8.74,0,0,0,468.13,631.29Z" transform="translate(0 -150.05)"/></g><g id="Text-2" data-name="Text" class="cls-12"><rect class="cls-13" x="486.19" y="356.85" width="90.09" height="3.3"/><rect class="cls-13" x="486.19" y="362.71" width="90.09" height="3.29"/><rect class="cls-13" x="486.19" y="368.93" width="90.09" height="3.3"/><rect class="cls-13" x="486.19" y="374.97" width="90.09" height="3.3"/><rect class="cls-13" x="486.19" y="382.67" width="90.09" height="3.29"/><rect class="cls-13" x="486.19" y="391.82" width="90.09" height="3.3"/><rect class="cls-13" x="486.19" y="398.23" width="90.09" height="3.3"/><rect class="cls-13" x="486.19" y="404.27" width="90.09" height="3.3"/><rect class="cls-13" x="486.19" y="411.23" width="90.09" height="3.3"/></g></g></g><g id="Document"><path class="cls-14" d="M493.21,200.92H422l-.94,0H373.74a7.33,7.33,0,0,0-7.31,7.31v67.51a7.33,7.33,0,0,0,7.31,7.3h115.7a7.33,7.33,0,0,0,7.31-7.3V204.45A3.55,3.55,0,0,0,493.21,200.92ZM423,201h0Zm.94.12h0Zm5.79,7.64.08.09Zm-.5-.73,0,0Zm.22.38,0,.07Zm.63.7.11.1Zm.42.31.15.1Zm.51.29.19.1Zm.6.25.24.09Zm.71.22.28.07Zm.82.18.34.06Zm1,.13.36,0Zm1.16.08.32,0Z" transform="translate(0 -150.05)"/><path class="cls-15" d="M493.21,200.92H422c12.15.46.73,9.91,14.93,9.65h59.85v-6.12A3.55,3.55,0,0,0,493.21,200.92Z" transform="translate(0 -150.05)"/><path class="cls-16" d="M436.9,210.57h53.25a9.12,9.12,0,0,0-8.7-6.52H428.23C429.21,206.94,427.83,210.73,436.9,210.57Z" transform="translate(0 -150.05)"/><rect class="cls-17" x="402.76" y="73.94" width="57.66" height="33.56"/><rect x="407.89" y="85.33" width="47.39" height="2.23"/><rect x="407.89" y="89.06" width="47.39" height="2.23"/><rect x="407.89" y="92.79" width="47.39" height="2.23"/><rect x="407.89" y="96.52" width="47.39" height="2.23"/><path class="cls-7" d="M470.06,283h19.38a7.33,7.33,0,0,0,7.31-7.3V234.76C491.66,251.1,482.94,272.51,470.06,283Z" transform="translate(0 -150.05)"/><g id="Document-2" data-name="Document"><path class="cls-18" d="M543.92,233.62h-85.4l-1.13,0H400.72c-4.81,0-8.76,3.7-8.76,8.22v75.94c0,4.51,3.95,8.22,8.76,8.22H539.4a8.53,8.53,0,0,0,8.75-8.22V237.6A4.12,4.12,0,0,0,543.92,233.62Zm-84.11.08h0Zm1.13.13h0Zm6.94,8.6.09.1Zm-.6-.83,0,0Zm.27.42.06.08Zm.75.79.13.11Zm.5.36.18.11Zm.61.32.23.11Zm.72.28.28.1Zm.85.24.34.08Zm1,.2.4.07Zm1.16.15.42,0Zm1.39.09.39,0Z" transform="translate(0 -150.05)"/><path class="cls-15" d="M543.92,233.62h-85.4c14.56.52.88,11.15,17.9,10.86h71.73V237.6A4.12,4.12,0,0,0,543.92,233.62Z" transform="translate(0 -150.05)"/><path class="cls-19" d="M476.42,244.48h63.82a10.86,10.86,0,0,0-10.44-7.34H466C467.21,240.4,465.55,244.67,476.42,244.48Z" transform="translate(0 -150.05)"/><rect class="cls-17" x="435.51" y="109.53" width="69.1" height="37.75"/><rect class="cls-8" x="441.66" y="122.34" width="56.8" height="2.51"/><rect class="cls-8" x="441.66" y="126.53" width="56.8" height="2.51"/><rect class="cls-8" x="441.66" y="130.73" width="56.8" height="2.51"/><rect class="cls-8" x="441.66" y="134.92" width="56.8" height="2.51"/></g></g><g id="Command-2" data-name="Command"><path class="cls-8" d="M187.41,214.52c42.9,0,77.69,26.62,77.69,59.47,0,22.92-17,42.8-41.76,52.72a44.26,44.26,0,0,0,17.49,19.72s-17.26-7.24-26.33-16.69a98.89,98.89,0,0,1-27.08,3.72c-42.9,0-77.69-26.62-77.69-59.47S144.51,214.52,187.41,214.52Z" transform="translate(0 -150.05)"/><circle class="cls-20" cx="234.23" cy="123.94" r="6.59"/><circle class="cls-20" cx="209.08" cy="123.94" r="6.59"/><circle class="cls-20" cx="185.67" cy="123.94" r="6.59"/><circle class="cls-20" cx="162.44" cy="123.94" r="6.59"/><circle class="cls-20" cx="137.81" cy="123.94" r="6.59"/><path class="cls-20" d="M265.09,274c0,22.92-17,42.8-41.76,52.72a44.26,44.26,0,0,0,17.49,19.72s-17.26-7.24-26.33-16.69a98.89,98.89,0,0,1-27.08,3.72c-42.9,0-77.69-26.62-77.69-59.47Z" transform="translate(0 -150.05)"/><path class="cls-4" d="M155.85,196.49c-42.9,0-77.68,26.62-77.68,59.47,0,22.92,16.95,42.8,41.76,52.72a44.25,44.25,0,0,1-17.49,19.72s17.26-7.24,26.33-16.69a98.91,98.91,0,0,0,27.08,3.72c42.9,0,77.69-26.62,77.69-59.47S198.75,196.49,155.85,196.49Z" transform="translate(0 -150.05)"/><circle class="cls-20" cx="109.03" cy="105.9" r="6.59"/><circle class="cls-20" cx="134.18" cy="105.9" r="6.59"/><circle class="cls-20" cx="157.58" cy="105.9" r="6.59"/><circle class="cls-20" cx="180.82" cy="105.9" r="6.59"/><circle class="cls-20" cx="205.44" cy="105.9" r="6.59"/><path class="cls-20" d="M78.17,256c0,22.92,16.95,42.8,41.76,52.72a44.25,44.25,0,0,1-17.49,19.72s17.26-7.24,26.33-16.69a98.91,98.91,0,0,0,27.08,3.72c42.9,0,77.69-26.62,77.69-59.47Z" transform="translate(0 -150.05)"/></g></g></g></g></g></svg>