<?xml version="1.0" encoding="utf-8"?>
<!-- Generator: Adobe Illustrator 21.0.0, SVG Export Plug-In . SVG Version: 6.00 Build 0)  -->
<svg version="1.1" id="Layer_1" xmlns="http://www.w3.org/2000/svg" xmlns:xlink="http://www.w3.org/1999/xlink" x="0px" y="0px"
	 viewBox="0 0 556.4 514.4" style="enable-background:new 0 0 556.4 514.4;" xml:space="preserve">
<style type="text/css">
	.st0{clip-path:url(#SVGID_2_);}
	.st1{fill:#F9B046;}
	.st2{fill:#FFFFFF;}
	.st3{fill:#EDEDED;}
	.st4{fill:#184F78;}
	.st5{opacity:0.2;enable-background:new    ;}
	.st6{fill:#FF3E03;}
	.st7{opacity:0.6;fill:#0F0F0F;enable-background:new    ;}
	.st8{fill:#E8E8E6;}
	.st9{fill:#00EAA6;}
	.st10{opacity:0.4;}
	.st11{opacity:0.7;enable-background:new    ;}
	.st12{opacity:0.1;fill:#020202;enable-background:new    ;}
	.st13{fill:#FABE00;}
	.st14{fill:#E6E8E8;}
	.st15{fill:#F7D959;}
	.st16{fill:#F9623E;}
	.st17{opacity:0.1;enable-background:new    ;}
</style>
<title>Asset Successfull Message</title>
<g id="Layer_2">
	<g id="Layer_1-2">
		<g>
			<defs>
				<path id="SVGID_1_" d="M10-150.1h1272c5.5,0,10,4.5,10,10v644.5c0,5.5-4.5,10-10,10H10c-5.5,0-10-4.5-10-10v-644.5
					C0-145.6,4.5-150.1,10-150.1z"/>
			</defs>
			<clipPath id="SVGID_2_">
				<use xlink:href="#SVGID_1_"  style="overflow:visible;"/>
			</clipPath>
			<g class="st0">
				<circle id="Background_2" class="st1" cx="258.5" cy="276.5" r="276.5"/>
				<g id="Notification_Massage">
					<g id="Line">
						
							<rect x="322.2" y="309.1" transform="matrix(0.9331 -0.3595 0.3595 0.9331 -90.3433 138.4247)" class="st2" width="9.6" height="6"/>
						
							<rect x="335.5" y="303.9" transform="matrix(0.9331 -0.3595 0.3595 0.9331 -87.602 142.884)" class="st2" width="9.6" height="6"/>
						
							<rect x="348.9" y="298.8" transform="matrix(0.9331 -0.3595 0.3595 0.9331 -84.8539 147.3441)" class="st2" width="9.6" height="6"/>
						
							<rect x="362.3" y="293.6" transform="matrix(0.933 -0.3598 0.3598 0.933 -82.1368 151.9697)" class="st2" width="9.6" height="6"/>
						
							<rect x="375.7" y="288.5" transform="matrix(0.9332 -0.3593 0.3593 0.9332 -79.3285 156.1879)" class="st2" width="9.6" height="6"/>
						
							<rect x="389" y="283.3" transform="matrix(0.933 -0.3598 0.3598 0.933 -76.643 160.8927)" class="st2" width="9.6" height="6"/>
						
							<rect x="402.4" y="278.2" transform="matrix(0.9331 -0.3595 0.3595 0.9331 -73.8845 165.1807)" class="st2" width="9.6" height="6"/>
						
							<rect x="282.8" y="264.9" transform="matrix(0.7866 -0.6174 0.6174 0.7866 -104.0585 234.7775)" class="st2" width="9.6" height="6"/>
						
							<rect x="294.1" y="256.1" transform="matrix(0.7869 -0.617 0.617 0.7869 -96.2042 239.6496)" class="st2" width="9.6" height="6"/>
						
							<rect x="305.4" y="247.2" transform="matrix(0.7866 -0.6174 0.6174 0.7866 -88.3315 244.9232)" class="st2" width="9.6" height="6"/>
						
							<rect x="316.6" y="238.4" transform="matrix(0.7866 -0.6174 0.6174 0.7866 -80.4449 249.9755)" class="st2" width="9.6" height="6"/>
						
							<rect x="327.9" y="229.6" transform="matrix(0.7866 -0.6174 0.6174 0.7866 -72.6093 255.0594)" class="st2" width="9.6" height="6"/>
						
							<rect x="339.2" y="220.7" transform="matrix(0.7866 -0.6174 0.6174 0.7866 -64.7419 260.1238)" class="st2" width="9.6" height="6"/>
						
							<rect x="350.4" y="211.9" transform="matrix(0.7866 -0.6174 0.6174 0.7866 -56.8835 265.1902)" class="st2" width="9.6" height="6"/>
						
							<rect x="252.8" y="223.6" transform="matrix(0.4898 -0.8718 0.8718 0.4898 -66.1701 340.262)" class="st2" width="9.6" height="6"/>
						
							<rect x="259.8" y="211.1" transform="matrix(0.4901 -0.8716 0.8716 0.4901 -51.728 339.8749)" class="st2" width="9.6" height="6"/>
						
							<rect x="266.9" y="198.6" transform="matrix(0.4901 -0.8716 0.8716 0.4901 -37.2605 339.6252)" class="st2" width="9.6" height="6"/>
						
							<rect x="273.9" y="186.1" transform="matrix(0.4898 -0.8718 0.8718 0.4898 -22.7247 339.4635)" class="st2" width="9.6" height="6"/>
						
							<rect x="280.9" y="173.7" transform="matrix(0.4904 -0.8715 0.8715 0.4904 -8.3925 339.0298)" class="st2" width="9.6" height="6"/>
						
							<rect x="287.9" y="161.2" transform="matrix(0.4897 -0.8719 0.8719 0.4897 6.2068 339.0265)" class="st2" width="9.6" height="6"/>
						
							<rect x="294.9" y="148.7" transform="matrix(0.4897 -0.8719 0.8719 0.4897 20.6864 338.7591)" class="st2" width="9.6" height="6"/>
						<path class="st3" d="M67.8,380.5l-4.4,4c0,0,2.3,2.5,4.7,4.9c1.2,1.2,2.4,2.4,3.4,3.2l1.2,1l0.4,0.4l3.9-4.5l-0.4-0.4l-1.1-1
							c-0.9-0.8-2.1-1.9-3.2-3.1C70,382.9,67.8,380.5,67.8,380.5z"/>
						<path class="st3" d="M56,365.2l-4.9,3.2l0.3,0.5c0.2,0.3,0.5,0.8,0.9,1.3c0.7,1,1.7,2.5,2.7,3.8c2,2.7,4.2,5.3,4.2,5.3
							l4.6-3.8c0,0-2.1-2.5-4-5.1c-1-1.3-1.9-2.6-2.6-3.6c-0.3-0.5-0.6-0.9-0.8-1.2L56,365.2z"/>
						<path class="st3" d="M47.1,348.4l-5.6,2c0,0,0.3,0.8,0.8,2s1.2,2.8,2,4.3l1.1,2.2l1.1,1.9l1,1.9l5.2-2.9l-1-1.8l-1-1.8l-1-2.1
							c-0.7-1.4-1.3-2.9-1.8-4S47.1,348.4,47.1,348.4z"/>
						<path class="st3" d="M42.2,330.1l-5.9,0.6c0,0,0.1,0.9,0.3,2.1c0.2,1.3,0.6,3,0.9,4.6c0.2,0.9,0.4,1.7,0.6,2.5l0.6,2.1
							c0.2,0.6,0.3,1.1,0.4,1.5l0.2,0.6l5.7-1.5l-0.2-0.5c-0.1-0.3-0.3-0.8-0.4-1.4l-0.5-2c-0.2-0.7-0.4-1.5-0.6-2.3
							c-0.3-1.6-0.7-3.1-0.8-4.3L42.2,330.1z"/>
						<path class="st3" d="M42.5,311.2l-5.9-0.9l-0.2,2.1c-0.1,0.6-0.2,1.4-0.3,2.2s-0.1,1.7-0.2,2.5l-0.2,2.5c0,0.8,0,1.6,0,2.2
							c0,1.3,0,2.2,0,2.2l6-0.1c0,0,0-0.8,0-2c0-0.6,0-1.3,0-2l0.2-2.3c0.1-0.8,0.1-1.6,0.2-2.3s0.2-1.4,0.3-2L42.5,311.2z"/>
						<path class="st3" d="M48.6,293.3l-5.5-2.3l-0.9,2l-0.9,2l-0.9,2.3l-0.9,2.4c-0.3,0.8-0.5,1.5-0.7,2.1
							c-0.4,1.2-0.6,2.1-0.6,2.1l5.8,1.4l0.6-1.9c0.2-0.6,0.3-1.3,0.6-2l0.8-2.2l0.8-2.2l0.9-1.8L48.6,293.3z"/>
						<path class="st3" d="M57.9,276.3l-5.1-2.9l-3.3,5.8l-3.3,5.9l5.3,2.7l3.2-5.7L57.9,276.3z"/>
						<polygon class="st3" points="67.9,259.3 62.8,256.3 56.1,267.7 61.2,270.7 						"/>
						<polygon class="st3" points="78,242.3 72.9,239.3 66.2,250.7 71.3,253.7 						"/>
						<path class="st3" d="M87.8,225l-5.2-2.8l-3.2,5.8c-1.6,2.9-3.3,5.7-3.3,5.7l5.1,2.9c0,0,1.7-2.9,3.3-5.8
							c0.8-1.5,1.6-2.9,2.2-4L87.8,225z"/>
						<path class="st3" d="M96.7,207.1l-5.4-2.4l-0.9,1.9c-0.5,1.1-1.2,2.6-1.9,4.1s-1.4,3-2,4l-0.9,1.8l5.3,2.7l1-1.9
							c0.6-1.1,1.3-2.6,2-4.1s1.5-3,2-4.2L96.7,207.1z"/>
						<path class="st3" d="M104,188.4l-5.6-1.8l-0.6,1.9c-0.4,1.2-0.9,2.7-1.5,4.2s-1.1,3-1.6,4.2l-0.8,1.9l5.5,2.3l0.8-2
							c0.5-1.2,1.1-2.7,1.7-4.3s1.2-3.2,1.5-4.4L104,188.4z"/>
						<path class="st3" d="M108.3,168.5l-5.9-0.7l-0.1,0.5c-0.1,0.4-0.1,0.8-0.2,1.4c-0.2,1.2-0.4,2.8-0.7,4.4s-0.6,3.2-0.9,4.3
							l-0.5,2l5.7,1.4l0.5-2.1c0.3-1.2,0.6-2.9,1-4.6s0.6-3.4,0.8-4.6l0.2-1.5L108.3,168.5z"/>
						<path class="st3" d="M108,148.1l-5.8,0.9l0.3,2c0.1,1.2,0.2,2.8,0.4,4.4s0.1,3.2,0.1,4.4s-0.1,2-0.1,2l5.9,0.2
							c0,0,0-0.9,0.1-2.1s0-3-0.1-4.8s-0.3-3.5-0.4-4.7L108,148.1z"/>
						<path class="st3" d="M215.6,373.7l-5.4,1.6c0,0-1.2-3-2.3-6.1c-0.5-1.5-1-3.1-1.4-4.3l-0.4-1.4l-0.1-0.5l5.6-0.9l0.1,0.5
							l0.4,1.3c0.3,1.1,0.8,2.6,1.3,4C214.4,370.8,215.6,373.7,215.6,373.7z"/>
						<path class="st3" d="M223.8,390.5l-5,2.4l-0.3-0.5c-0.2-0.3-0.5-0.8-0.7-1.3c-0.6-1.1-1.4-2.5-2.1-4c-1.5-2.9-2.9-5.9-2.9-5.9
							l5.3-1.8c0,0,1.3,2.8,2.7,5.6c0.7,1.4,1.5,2.8,2,3.8c0.3,0.5,0.5,0.9,0.7,1.2L223.8,390.5z"/>
						<path class="st3" d="M234.6,405.6l-4.2,3.5c0,0-0.6-0.6-1.4-1.6s-1.9-2.3-2.9-3.6l-1.5-2l-1.3-1.8l-1.2-1.7l4.8-2.7l1.1,1.6
							l1.1,1.6l1.4,1.8c0.9,1.3,1.9,2.5,2.7,3.4S234.6,405.6,234.6,405.6z"/>
						<path class="st3" d="M248.5,418.4l-3.1,4.5l-1.7-1.3c-1.1-0.7-2.3-1.9-3.7-2.9c-0.7-0.5-1.3-1.1-1.9-1.7l-1.6-1.5
							c-0.5-0.4-0.9-0.8-1.1-1.1l-0.4-0.4l3.9-3.8l0.4,0.4c0.2,0.3,0.6,0.6,1,1l1.5,1.4c0.5,0.5,1.1,1,1.8,1.5
							c1.2,1,2.4,2.1,3.4,2.7L248.5,418.4z"/>
						<path class="st3" d="M265.2,427.2l-1.8,5.1l-2-0.8l-2-0.8c-0.8-0.3-1.5-0.7-2.3-1.1l-2.3-1.1c-0.7-0.4-1.4-0.8-1.9-1.1l-1.9-1
							l2.7-4.7l1.7,1c0.5,0.3,1.1,0.7,1.8,1l2.1,1c0.7,0.3,1.4,0.7,2.1,1l1.9,0.8L265.2,427.2z"/>
						<path class="st3" d="M283.6,431l-0.4,5.5l-2.1-0.2l-2.2-0.2l-2.5-0.4l-2.5-0.4c-0.8-0.1-1.5-0.3-2.1-0.5l-2.1-0.5l1.4-5.3
							l1.9,0.5c0.6,0.1,1.3,0.3,2,0.4l2.3,0.4l2.3,0.4l2,0.2L283.6,431z"/>
						<path class="st3" d="M302.5,431.8l0.3,5.5l-6.5-0.2l-6.6-0.3l-0.1-5.5l6.4,0.2L302.5,431.8z"/>
						<polygon class="st3" points="321.8,432 322.2,437.5 309.2,437.4 308.8,431.9 						"/>
						<polygon class="st3" points="341.1,432.2 341.5,437.7 328.6,437.6 328.1,432.1 						"/>
						<path class="st3" d="M360.5,432.7l0.2,5.5l-6.5-0.3c-3.2-0.1-6.5-0.2-6.5-0.2l-0.3-5.5c0,0,3.3,0.1,6.5,0.2
							c1.6,0,3.3,0.1,4.5,0.2L360.5,432.7z"/>
						<path class="st3" d="M380.1,434.2l-0.2,5.5l-2-0.2c-1.2-0.1-2.8-0.3-4.4-0.4c-1.6-0.1-3.2-0.3-4.4-0.3l-2-0.1l-0.1-5.5l2,0.1
							c1.2,0.1,2.9,0.2,4.5,0.4s3.3,0.3,4.5,0.4L380.1,434.2z"/>
						<path class="st3" d="M399.7,437.5l-0.9,5.3l-2-0.4c-1.2-0.3-2.8-0.6-4.4-0.9c-1.6-0.3-3.2-0.6-4.4-0.7l-2-0.3l0.4-5.4l2.1,0.3
							c1.2,0.2,2.9,0.5,4.5,0.8c1.7,0.3,3.3,0.6,4.5,0.9L399.7,437.5z"/>
						<path class="st3" d="M419,443.6l-2,5l-0.5-0.2l-1.4-0.5c-1.1-0.4-2.6-1-4.1-1.5c-1.5-0.5-3-1-4.2-1.4l-1.9-0.6l1.2-5.3l2,0.6
							c1.2,0.3,2.8,0.9,4.5,1.4c1.6,0.5,3.2,1.2,4.4,1.6l1.5,0.6L419,443.6z"/>
						<path class="st3" d="M436.8,453.7l-3.3,4.3l-1.6-1.2c-1-0.7-2.3-1.5-3.6-2.4c-1.3-0.9-2.8-1.6-3.8-2.2l-1.8-0.9l2.4-4.8l1.9,1
							c1.1,0.7,2.6,1.5,4.1,2.4s2.9,1.9,4,2.6L436.8,453.7z"/>
					</g>
					<g id="Command">
						<polygon class="st4" points="164.6,557.5 116.9,593.2 70.6,490.4 98.6,469.4 						"/>
						
							<rect x="111.5" y="465.6" transform="matrix(0.8003 -0.5996 0.5996 0.8003 -287.4702 177.519)" class="st5" width="22.5" height="109.6"/>
						<path class="st2" d="M316.6,341.9c5.6,7.5,4.1,18.2-3.3,23.8c0,0,0,0-0.1,0.1l-289,157.4c-15.9,7.2-21.3-0.1-27-7.6
							l-32.1-42.8c-5.7-7.5-9.2-16.2-0.4-25.8l240.6-225.2c7.5-5.6,18.2-4.1,23.8,3.3c0,0,0,0,0.1,0.1L316.6,341.9z"/>
						<path class="st4" d="M-25.7,438l-9.6,8.9c-8.8,9.6-5.3,18.2,0.4,25.8l32.1,42.8c5.6,7.5,11.1,14.8,27,7.6l9.9-5.4L-25.7,438z"
							/>
						<path class="st4" d="M205.3,221.8l-15.7,14.7l104.6,139.6l19-10.3c7.5-5.6,9.1-16.3,3.5-23.8c0,0,0,0-0.1-0.1l-87.4-116.7
							C223.5,217.7,212.9,216.1,205.3,221.8C205.3,221.8,205.3,221.8,205.3,221.8z"/>
						<path class="st5" d="M-18.4,494.8l15.5,20.8c5.6,7.5,11.1,14.8,27,7.6l289-157.4c7.5-5.6,9.1-16.3,3.5-23.8c0,0,0,0-0.1-0.1
							l-47-62.8L-18.4,494.8z"/>
					</g>
					<g id="Mail">
						<g id="Envelop">
							<g id="Envelop-2">
								<path class="st6" d="M339.6,470.5h70.6c2.8,0,5.1,2.3,5.1,5.1v76.3c0,2.8-2.3,5.1-5.1,5.1h-70.6c-2.8,0-5.1-2.3-5.1-5.1
									v-76.3C334.5,472.8,336.8,470.5,339.6,470.5z"/>
								<path class="st7" d="M336.3,513.8h79l-28.9,20.7c0,0-23.5,5.3-27.5,2.3S340.3,524,340.3,524L336.3,513.8z"/>
								<rect x="342.2" y="477.7" class="st8" width="65.3" height="71.5"/>
								<path class="st9" d="M336.3,513.8h-1.8v38.1c0,2.8,2.3,5.1,5.1,5.1h70.6c2.8,0,5.1-2.3,5.1-5.1v-38.1l-40.4,21.6
									L336.3,513.8z"/>
								<path class="st5" d="M339.6,557h70.6c2.8,0,5.1-2.3,5.1-5.1v-38.1l-40.4,21.6l-39,20C336.9,556.4,338.2,557,339.6,557z"/>
							</g>
							<g id="Text" class="st10">
								<rect x="350.1" y="484.5" class="st11" width="52.5" height="1.9"/>
								<rect x="350.1" y="487.9" class="st11" width="52.5" height="1.9"/>
								<rect x="350.1" y="491.6" class="st11" width="52.5" height="1.9"/>
								<rect x="350.1" y="495.1" class="st11" width="52.5" height="1.9"/>
								<rect x="350.1" y="499.6" class="st11" width="52.5" height="1.9"/>
								<rect x="350.1" y="504.9" class="st11" width="52.5" height="1.9"/>
								<rect x="350.1" y="508.6" class="st11" width="52.5" height="1.9"/>
								<rect x="350.1" y="512.2" class="st11" width="52.5" height="1.9"/>
								<rect x="350.1" y="516.2" class="st11" width="52.5" height="1.9"/>
							</g>
						</g>
						<g id="Envelop-3">
							<g id="Envelop-4">
								<path class="st6" d="M427.5,332.8h121.1c4.9,0,8.8,3.9,8.8,8.8v130.9c0,4.9-3.9,8.8-8.8,8.8H427.5c-4.9,0-8.8-3.9-8.8-8.8
									V341.6C418.7,336.7,422.7,332.8,427.5,332.8z"/>
								<path class="st7" d="M421.9,407h135.5l-49.6,35.5c0,0-40.3,9.2-47.2,4c-7-5.2-31.9-22-31.9-22L421.9,407z"/>
								<rect x="432" y="345.1" class="st8" width="112.1" height="122.7"/>
								<path class="st9" d="M421.9,407h-3.1v65.4c0,4.9,3.9,8.8,8.8,8.8h121.1c4.8,0,8.8-3.9,8.8-8.8V407l-69.3,37.1L421.9,407z"/>
								<path class="st5" d="M427.5,481.2h121.1c4.8,0,8.8-3.9,8.8-8.8V407l-69.3,37.1l-67,34.3
									C422.7,480.2,425.1,481.2,427.5,481.2z"/>
							</g>
							<g id="Text-2" class="st10">
								<rect x="445.6" y="356.9" class="st11" width="90.1" height="3.3"/>
								<rect x="445.6" y="362.7" class="st11" width="90.1" height="3.3"/>
								<rect x="445.6" y="368.9" class="st11" width="90.1" height="3.3"/>
								<rect x="445.6" y="375" class="st11" width="90.1" height="3.3"/>
								<rect x="445.6" y="382.7" class="st11" width="90.1" height="3.3"/>
								<rect x="445.6" y="391.8" class="st11" width="90.1" height="3.3"/>
								<rect x="445.6" y="398.2" class="st11" width="90.1" height="3.3"/>
								<rect x="445.6" y="404.3" class="st11" width="90.1" height="3.3"/>
								<rect x="445.6" y="411.2" class="st11" width="90.1" height="3.3"/>
							</g>
						</g>
					</g>
					<g id="Document">
						<path class="st6" d="M452.6,50.9h-71.2h-0.9h-47.3c-4,0-7.3,3.3-7.3,7.3v67.5c0,4,3.3,7.3,7.3,7.3h115.7c4,0,7.3-3.3,7.3-7.3
							V54.4C456.1,52.5,454.5,50.9,452.6,50.9z M382.4,50.9L382.4,50.9z M383.3,51.1L383.3,51.1z M389.1,58.7L389.1,58.7L389.1,58.7
							z M388.6,58L388.6,58z M388.8,58.4L388.8,58.4L388.8,58.4z M389.5,59.1l0.1,0.1L389.5,59.1z M389.9,59.4l0.2,0.1L389.9,59.4z
							 M390.4,59.7l0.2,0.1L390.4,59.7z M391,59.9l0.2,0.1L391,59.9z M391.7,60.1l0.3,0.1L391.7,60.1z M392.5,60.3l0.3,0.1
							L392.5,60.3z M393.5,60.4h0.4H393.5z M394.7,60.5h0.3H394.7z"/>
						<path class="st12" d="M452.6,50.9h-71.2c12.1,0.5,0.7,9.9,14.9,9.6h59.8v-6.1C456.2,52.4,454.6,50.9,452.6,50.9
							C452.6,50.9,452.6,50.9,452.6,50.9z"/>
						<path class="st13" d="M396.3,60.5h53.3c-1.1-3.9-4.7-6.5-8.7-6.5h-53.2C388.6,56.9,387.2,60.7,396.3,60.5z"/>
						<rect x="362.2" y="73.9" class="st14" width="57.7" height="33.6"/>
						<rect x="367.3" y="85.3" width="47.4" height="2.2"/>
						<rect x="367.3" y="89.1" width="47.4" height="2.2"/>
						<rect x="367.3" y="92.8" width="47.4" height="2.2"/>
						<rect x="367.3" y="96.5" width="47.4" height="2.2"/>
						<path class="st5" d="M429.5,132.9h19.4c4,0,7.3-3.3,7.3-7.3V84.7C451,101.1,442.3,122.5,429.5,132.9z"/>
						<g id="Document-2">
							<path class="st15" d="M503.3,83.6h-85.4h-1.1h-56.7c-4.8,0-8.8,3.7-8.8,8.2v75.9c0,4.5,4,8.2,8.8,8.2h138.7
								c4.7,0.1,8.6-3.5,8.8-8.2V87.6C507.5,85.3,505.6,83.5,503.3,83.6z M419.2,83.6L419.2,83.6z M420.3,83.8L420.3,83.8z
								 M427.3,92.4l0.1,0.1L427.3,92.4z M426.7,91.6L426.7,91.6z M426.9,92L426.9,92L426.9,92z M427.7,92.8l0.1,0.1L427.7,92.8z
								 M428.2,93.1l0.2,0.1L428.2,93.1z M428.8,93.4l0.2,0.1L428.8,93.4z M429.5,93.7l0.3,0.1L429.5,93.7z M430.4,94l0.3,0.1
								L430.4,94z M431.4,94.2l0.4,0.1L431.4,94.2z M432.5,94.3h0.4H432.5z M433.9,94.4h0.4H433.9z"/>
							<path class="st12" d="M503.3,83.6h-85.4c14.6,0.5,0.9,11.1,17.9,10.9h71.7v-6.9C507.5,85.3,505.6,83.5,503.3,83.6z"/>
							<path class="st16" d="M435.8,94.4h63.8c-1.5-4.4-5.7-7.4-10.4-7.3h-63.8C426.6,90.3,424.9,94.6,435.8,94.4z"/>
							<rect x="394.9" y="109.5" class="st14" width="69.1" height="37.8"/>
							<rect x="401" y="122.3" class="st6" width="56.8" height="2.5"/>
							<rect x="401" y="126.5" class="st6" width="56.8" height="2.5"/>
							<rect x="401" y="130.7" class="st6" width="56.8" height="2.5"/>
							<rect x="401" y="134.9" class="st6" width="56.8" height="2.5"/>
						</g>
					</g>
					<g id="Command-2">
						<path class="st6" d="M146.8,64.5c42.9,0,77.7,26.6,77.7,59.5c0,22.9-17,42.8-41.8,52.7c3.7,8.2,9.8,15.1,17.5,19.7
							c0,0-17.3-7.2-26.3-16.7c-8.8,2.5-17.9,3.7-27.1,3.7c-42.9,0-77.7-26.6-77.7-59.5S103.9,64.5,146.8,64.5z"/>
						<circle class="st17" cx="193.6" cy="123.9" r="6.6"/>
						<circle class="st17" cx="168.5" cy="123.9" r="6.6"/>
						<circle class="st17" cx="145.1" cy="123.9" r="6.6"/>
						<circle class="st17" cx="121.8" cy="123.9" r="6.6"/>
						<circle class="st17" cx="97.2" cy="123.9" r="6.6"/>
						<path class="st17" d="M224.5,123.9c0,22.9-17,42.8-41.8,52.7c3.7,8.2,9.8,15.1,17.5,19.7c0,0-17.3-7.2-26.3-16.7
							c-8.8,2.5-17.9,3.7-27.1,3.7c-42.9,0-77.7-26.6-77.7-59.5H224.5z"/>
						<path class="st2" d="M115.2,46.4c-42.9,0-77.7,26.6-77.7,59.5c0,22.9,17,42.8,41.8,52.7c-3.7,8.2-9.8,15.1-17.5,19.7
							c0,0,17.3-7.2,26.3-16.7c8.8,2.5,17.9,3.7,27.1,3.7c42.9,0,77.7-26.6,77.7-59.5S158.1,46.4,115.2,46.4z"/>
						<circle class="st17" cx="68.4" cy="105.9" r="6.6"/>
						<circle class="st17" cx="93.6" cy="105.9" r="6.6"/>
						<circle class="st17" cx="117" cy="105.9" r="6.6"/>
						<circle class="st17" cx="140.2" cy="105.9" r="6.6"/>
						<circle class="st17" cx="164.8" cy="105.9" r="6.6"/>
						<path class="st17" d="M37.6,105.9c0,22.9,16.9,42.8,41.8,52.7c-3.7,8.2-9.8,15.1-17.5,19.7c0,0,17.3-7.2,26.3-16.7
							c8.8,2.5,17.9,3.7,27.1,3.7c42.9,0,77.7-26.6,77.7-59.5H37.6z"/>
					</g>
				</g>
			</g>
		</g>
	</g>
</g>
</svg>
